<svg xmlns="http://www.w3.org/2000/svg" width="201" height="165" viewBox="0 0 201 165" fill="none">
  <path fill-rule="evenodd" clip-rule="evenodd" d="M176.76 36.0999C176.631 36.0037 176.331 35.9697 176.19 35.9407C175.605 35.8211 175.003 35.769 174.406 35.769C172.569 35.772 170.702 35.9593 168.896 36.2835C167.748 36.4891 166.363 37.1819 165.221 36.8056C163.233 36.1503 161.224 36.1825 159.338 37.1182C157.613 37.9737 156.304 39.5986 155.54 41.3543C155.425 41.6194 154.957 42.595 154.825 43.2526C154.769 43.387 154.714 43.5222 154.665 43.6596C154.526 44.0498 154.401 44.4466 154.285 44.8445C154.236 45.0142 154.111 45.3887 154.259 45.4611C154.023 45.9143 153.813 46.3811 153.639 46.8631C153.131 48.265 152.576 49.8029 152.398 51.2887C152.332 51.8389 152.33 52.3923 152.391 52.9434C152.421 53.216 152.409 53.7637 152.586 53.9711C152.964 54.4106 153.158 53.7952 153.115 53.502C152.79 51.2681 153.418 49.1702 154.161 47.0702C154.642 45.7124 155.432 44.47 156.317 43.3451C157.033 42.4343 157.802 41.7172 158.783 41.1134C159.984 40.375 161.268 39.7782 162.539 39.1794C163.376 38.7855 164.214 38.402 165.073 38.0627C165.265 37.9871 165.565 37.7933 165.777 37.7926C166.226 37.7911 166.862 38.1346 167.294 38.2624C168.717 38.6831 170.16 39.2216 171.633 39.4364C172.576 39.5743 173.462 39.419 174.344 39.0923C174.434 39.0591 174.585 38.9733 174.771 38.8508C175.428 38.5888 176.046 38.2592 176.586 37.7834C176.899 37.5096 177.181 37.1554 177.439 36.8312C177.515 36.7344 177.549 36.6233 177.551 36.5176C177.608 36.4861 177.646 36.4489 177.656 36.4058C177.72 36.0868 177.135 36.0811 176.76 36.0999Z" fill="#89C5CC"/>
  <path fill-rule="evenodd" clip-rule="evenodd" d="M27.514 62.692C27.1537 62.9952 26.8002 63.305 26.4554 63.6269C26.1924 63.8727 25.7272 64.1667 25.6329 64.5387C25.5347 64.9252 25.8445 65.2871 26.089 65.5207C27.3827 66.757 28.8394 67.5929 30.6319 67.7318C33.3921 67.9459 35.7943 67.2137 38.1891 65.7733C39.8713 64.7612 40.9856 63.2645 41.229 61.2435C43.2324 62.1081 45.1698 63.3002 46.8164 64.7632C47.6289 65.485 48.3286 66.285 48.9758 67.1712C49.3903 67.7393 49.7913 68.3162 50.1634 68.9155C50.3251 69.1759 50.4896 69.6375 50.7566 69.7874C51.0701 69.9637 51.4491 69.6874 51.4336 69.3255C51.4205 69.0241 51.1074 68.6746 50.9608 68.4283C50.7177 68.0193 50.4707 67.613 50.2107 67.2151C49.7899 66.5712 49.355 65.9362 48.8807 65.3335C47.8147 63.9794 46.4585 62.8607 45.0526 61.9067C42.3554 60.0767 39.3954 58.9237 36.1136 58.826C34.0957 58.766 32.3982 59.4821 30.6725 60.5514C29.5981 61.2174 28.4891 61.872 27.514 62.692Z" fill="#DDE3E9"/>
  <path fill-rule="evenodd" clip-rule="evenodd" d="M53.6901 53.8407C51.5871 51.5911 49.477 49.3699 47.1276 47.3893C45.7429 46.222 44.2838 45.1608 42.8548 44.0541C43.0195 44.2041 43.1812 44.3584 43.3391 44.5167C42.893 44.2021 42.3091 44.0243 41.8362 43.7331C41.3087 43.4084 40.8043 43.0371 40.3097 42.6625C39.3442 41.9318 38.3933 41.1872 37.4008 40.4946C36.2951 39.723 35.1493 39.0101 34.0247 38.2677C33.0702 37.6374 32.1042 36.9476 31.083 36.4326C30.5266 36.1519 29.969 35.819 29.4101 35.526C29.2232 35.4281 27.3256 34.1836 27.3303 34.1799C27.4352 34.0978 28.3902 34.5639 28.5378 34.6264C28.9691 34.8094 29.3817 35.0285 29.7963 35.2465C29.5687 34.7802 29.3887 34.2903 29.2905 33.7743C29.2602 33.6154 29.0175 32.4562 29.1417 32.359C29.2036 32.3106 29.809 34.384 29.84 34.5835C29.8653 34.7452 29.8615 34.9786 29.9126 35.1319C29.995 35.3794 29.9909 35.3048 30.1724 35.4442C30.5051 35.6999 30.9467 35.8597 31.3065 36.0735C31.5009 36.1861 32.102 36.6323 32.4641 36.7596C33.5595 37.3125 34.67 38.1625 35.7109 38.8684C35.4377 38.3351 35.2297 37.7775 35.0783 37.1934C35.0423 37.0545 34.653 35.81 34.7476 35.7361C34.8539 35.653 35.5951 37.5538 35.6391 37.7336C35.7205 38.068 35.7375 38.4401 35.8397 38.7653C35.9517 39.1222 36.3015 39.2487 36.6168 39.4568C37.7767 40.2223 38.8969 41.0356 39.9983 41.8864C41.2003 39.6661 39.8145 36.9853 38.6467 35.1225C37.8046 33.7801 36.6715 32.6289 35.4748 31.624C33.8776 30.2831 32.0505 29.2116 30.2255 28.2315C28.0991 27.0898 25.8007 26.3824 23.4112 26.0554C22.1615 25.8845 20.8831 25.8893 19.6208 25.9441C19.0042 25.9709 18.4122 26.0557 17.8213 26.2645C17.5548 26.3588 17.2974 26.4776 17.0466 26.6106C16.8561 26.7115 16.3949 26.8184 16.2855 26.969C15.3833 28.1884 14.9219 29.4036 14.9924 30.936C15.059 32.3865 15.5001 33.8378 16.0985 35.1319C16.7653 36.5728 17.6226 37.8805 18.7441 38.9778C19.5995 39.8152 20.556 40.5442 21.5062 41.2633C24.8856 43.8214 29.1701 46.0464 33.5471 45.4749C34.964 45.2898 36.3116 44.7751 37.5708 44.0759C37.8677 43.9109 38.1626 43.7443 38.4427 43.5498C38.6316 43.4186 39.1365 42.8275 39.3263 42.8061C39.5869 42.7766 40.1476 43.3268 40.3919 43.4942C42.2484 44.7669 44.0562 46.1089 45.8261 47.5049C47.7093 48.9904 49.4999 50.5766 51.238 52.2376C51.9771 52.9442 52.7117 53.6522 53.4293 54.3824C53.5965 54.5523 54.0051 55.1779 54.3082 55.2064C54.4997 55.2243 54.6289 55.0544 54.6017 54.8701C54.5541 54.5501 53.9055 54.0709 53.6901 53.8407Z" fill="#C1DEE2"/>
  <path fill-rule="evenodd" clip-rule="evenodd" d="M174.552 45.1104C173.737 44.9257 172.837 44.9398 172.008 44.9549C167.559 45.0179 163.188 47.2062 160.344 50.7026C157.923 53.6791 157.258 57.38 156.779 61.121C156.732 61.4923 156.712 61.8614 156.685 62.2337C156.679 62.3136 156.671 62.3848 156.661 62.452C156.473 62.6266 156.374 62.8303 156.486 63.054C156.072 63.9958 155.721 64.9615 155.42 65.9576C154.535 68.8895 153.635 71.8772 154.189 74.9601C154.319 73.2635 154.591 71.5287 154.917 69.8598C154.936 69.7641 154.956 69.6691 154.977 69.5744C154.98 69.5644 154.982 69.5543 154.984 69.5443C155.099 69.0334 155.249 68.5378 155.432 68.0499C155.434 68.0444 155.435 68.0392 155.437 68.034C155.461 67.9698 155.487 67.9058 155.512 67.842C155.565 67.7098 155.618 67.5778 155.675 67.4466C155.695 67.4017 155.713 67.3566 155.731 67.3112C155.996 66.635 156.108 65.873 156.347 65.1735C156.403 65.0146 156.463 64.856 156.525 64.6983C156.529 64.6891 156.533 64.6799 156.536 64.6708C156.705 64.2464 156.891 63.8274 157.088 63.4127C157.195 63.3291 157.252 63.122 157.345 62.9337C157.363 62.8965 157.513 62.6492 157.557 62.5066C157.673 62.2737 157.788 62.0407 157.905 61.8081C157.902 61.8096 157.898 61.8108 157.895 61.8123C158.012 61.5888 158.129 61.3666 158.245 61.145C158.271 61.0964 158.296 61.0478 158.322 60.999C158.364 60.9213 158.406 60.8437 158.447 60.7663C158.837 60.0417 159.25 59.3318 159.68 58.6306C159.833 58.3803 160.199 58.0214 160.269 57.7406C160.272 57.73 160.272 57.7203 160.274 57.7104C161.205 56.3516 162.277 55.0985 163.563 54.1055C163.408 54.2802 163.077 54.8722 162.99 54.9896C162.723 55.3485 162.432 55.6826 162.141 56.0209C161.619 56.6269 161.11 57.252 160.658 57.913C159.83 59.122 159.116 60.3942 158.441 61.6922C158.435 61.6997 158.428 61.7069 158.422 61.7148C158.082 62.1491 157.869 62.8055 157.625 63.3023C158.591 62.8375 159.66 62.5346 160.651 62.1219C161.64 61.7103 162.602 61.252 163.531 60.7139C164.766 59.9986 166.047 59.1912 167.213 58.2774C168.55 57.4162 169.673 56.2308 170.664 54.9868C171.839 53.5149 172.913 52.0304 173.577 50.2432C173.904 49.3652 174.16 48.4494 174.313 47.5229C174.32 47.4827 174.329 47.4388 174.337 47.3935C174.494 47.0735 174.633 46.7463 174.75 46.4117C174.936 45.8809 175.373 45.297 174.552 45.1104Z" fill="#69A1AC"/>
  <path fill-rule="evenodd" clip-rule="evenodd" d="M19.6372 47.9265C19.3143 47.5924 18.9518 47.2908 18.5263 47.0757C18.4186 47.0214 17.6171 46.657 17.5648 46.7371C17.4433 46.9232 19.5403 47.8199 19.6372 47.9265ZM23.4374 45.6939C23.4348 45.708 23.7128 46.159 23.7885 46.2976C23.9494 46.5925 24.0982 46.8932 24.2382 47.1943C24.0311 46.6622 23.8183 46.1689 23.4374 45.6939ZM4.00127 49.3654C3.73356 49.4478 3.41189 49.1228 3.75888 49.0427C4.03996 48.9785 4.02611 48.9633 4.15221 48.7471C4.25466 48.5712 4.31794 48.3569 4.40773 48.1726C4.5983 47.7812 4.81467 47.4081 5.08022 47.0586C5.64907 46.3093 6.34235 45.6634 7.11992 45.1194C8.47684 44.1696 9.99807 43.302 11.612 42.8659C14.178 42.1726 17.0987 42.1297 19.6687 42.6104C21.2604 42.9081 22.7153 43.4255 23.772 44.6513C24.3002 45.2638 24.7151 45.9816 24.8963 46.7719C24.9436 46.9782 24.9348 47.2079 24.994 47.4103C25.085 47.7211 25.0449 47.6383 25.4251 47.6988C25.8404 47.7648 26.2552 47.8323 26.6697 47.901C27.7556 48.0806 28.8479 48.2713 29.9059 48.5628C30.2543 48.6587 30.5948 48.7758 30.9275 48.9122C31.179 49.0149 32.181 49.3381 32.3028 49.6509C32.5056 50.1711 31.8264 49.9352 31.6155 49.8221C31.4307 49.7226 31.2408 49.6301 31.0484 49.545C30.5636 49.3304 30.0585 49.1645 29.5419 49.0323C28.9838 48.8894 28.4143 48.783 27.8468 48.6761C27.3179 48.5766 26.7868 48.4861 26.2549 48.3998C25.9595 48.3517 25.6639 48.305 25.3682 48.2582C25.2672 48.2423 25.0893 48.1587 25.1027 48.2842C24.481 48.1696 23.8088 48.1862 23.1757 48.1545C22.4003 48.116 21.6217 48.0843 20.8437 48.1073C20.2825 48.1242 19.7208 48.1594 19.1625 48.2314C18.8362 48.2735 18.5153 48.3353 18.195 48.4134C18.0193 48.4563 17.326 48.5471 17.2302 48.6937C17.2713 48.6307 18.0365 48.692 18.1339 48.6883C18.5234 48.6744 18.91 48.6374 19.2981 48.596C20.0184 48.5191 20.7391 48.4789 21.4615 48.4846C21.4589 48.6059 20.9652 48.822 20.8446 48.9023C20.5746 49.0827 20.3159 49.2794 20.0745 49.4952C19.6494 49.8752 19.1403 50.3457 18.846 50.7959C18.9327 50.6632 19.3604 50.4906 19.5121 50.3893C19.7552 50.2269 19.9933 50.0535 20.2187 49.8682C20.4267 49.6973 20.6209 49.5125 20.8117 49.3238C21.0025 49.135 21.2616 48.7426 21.5124 48.6168C21.5277 48.6091 21.637 48.6917 21.6991 48.6637C21.7617 48.6354 21.8395 48.4938 21.8555 48.4881C22.0891 48.402 22.5323 48.5092 22.7778 48.5201C23.4145 48.5481 24.0505 48.5848 24.6864 48.6183C24.8834 48.6285 25.0511 48.5858 25.1253 48.7247C25.2046 48.8731 25.0594 49.2627 25.0181 49.4242C24.8646 50.024 24.5923 50.562 24.1634 51.0266C23.3605 51.897 22.3702 52.4771 21.2516 52.8653C16.9671 54.3521 12.4086 54.9474 8.12531 53.4009C6.35214 52.7607 3.6815 51.6164 4.00127 49.3654Z" fill="#89C5CC"/>
  <g opacity="0.6">
    <path fill-rule="evenodd" clip-rule="evenodd" d="M200.1 119.407C203.016 138.279 132.353 150.589 71.5332 141.998C10.7131 133.407 -17.1882 99.8604 11.8341 81.9851C40.8564 64.11 197.186 100.535 200.1 119.407Z" fill="#DDE3E9"/>
  </g>
  <path d="M80.9424 6.49976H46.7923C45.7372 6.49976 44.8818 7.38818 44.8818 8.48411V79.4249C44.8818 80.5208 45.7372 81.4093 46.7923 81.4093H80.9424C81.9975 81.4093 82.8529 80.5208 82.8529 79.4249V8.48411C82.8529 7.38818 81.9975 6.49976 80.9424 6.49976Z" fill="#F2F2F2"/>
  <path fill-rule="evenodd" clip-rule="evenodd" d="M63.7482 76.6962C65.7265 76.6962 67.3304 75.0304 67.3304 72.9756C67.3304 70.9208 65.7265 69.2549 63.7482 69.2549C61.7699 69.2549 60.166 70.9208 60.166 72.9756C60.166 75.0304 61.7699 76.6962 63.7482 76.6962Z" fill="white"/>
  <path fill-rule="evenodd" clip-rule="evenodd" d="M60.6439 11.4604C60.908 11.4604 61.1218 11.2384 61.1218 10.9644C61.1218 10.6903 60.908 10.4683 60.6439 10.4683C60.3799 10.4683 60.166 10.6903 60.166 10.9644C60.166 11.2384 60.3799 11.4604 60.6439 11.4604Z" fill="white"/>
  <path d="M66.8528 10.4683H62.7931C62.5293 10.4683 62.3154 10.6904 62.3154 10.9644C62.3154 11.2383 62.5293 11.4604 62.7931 11.4604H66.8528C67.1166 11.4604 67.3305 11.2383 67.3305 10.9644C67.3305 10.6904 67.1166 10.4683 66.8528 10.4683Z" fill="white"/>
  <path d="M78.5542 13.4451H49.1803C48.6528 13.4451 48.2251 13.8893 48.2251 14.4372V25.8473C48.2251 26.3953 48.6528 26.8395 49.1803 26.8395H78.5542C79.0817 26.8395 79.5094 26.3953 79.5094 25.8473V14.4372C79.5094 13.8893 79.0817 13.4451 78.5542 13.4451Z" fill="white"/>
  <path d="M74.2554 17.4634H58.255C57.8593 17.4634 57.5386 17.7965 57.5386 18.2075V18.7284C57.5386 19.1394 57.8593 19.4725 58.255 19.4725H74.2554C74.6511 19.4725 74.9718 19.1394 74.9718 18.7284V18.2075C74.9718 17.7965 74.6511 17.4634 74.2554 17.4634Z" fill="#DDE3E9"/>
  <path d="M68.5239 20.812H58.255C57.8593 20.812 57.5386 21.1452 57.5386 21.5561V22.077C57.5386 22.488 57.8593 22.8212 58.255 22.8212H68.5239C68.9196 22.8212 69.2403 22.488 69.2403 22.077V21.5561C69.2403 21.1452 68.9196 20.812 68.5239 20.812Z" fill="#DDE3E9"/>
  <path fill-rule="evenodd" clip-rule="evenodd" d="M53.2403 23.1188C54.8229 23.1188 56.106 21.7861 56.106 20.1423C56.106 18.4985 54.8229 17.1658 53.2403 17.1658C51.6576 17.1658 50.3745 18.4985 50.3745 20.1423C50.3745 21.7861 51.6576 23.1188 53.2403 23.1188Z" fill="#C5CFD6"/>
  <path d="M78.5542 28.824H49.1803C48.6528 28.824 48.2251 29.2682 48.2251 29.8162V38.2497C48.2251 38.7976 48.6528 39.2419 49.1803 39.2419H78.5542C79.0817 39.2419 79.5094 38.7976 79.5094 38.2497V29.8162C79.5094 29.2682 79.0817 28.824 78.5542 28.824Z" fill="white"/>
  <path d="M74.2554 31.9492H58.255C57.8593 31.9492 57.5386 32.2824 57.5386 32.6934V32.7678C57.5386 33.1787 57.8593 33.5119 58.255 33.5119H74.2554C74.6511 33.5119 74.9718 33.1787 74.9718 32.7678V32.6934C74.9718 32.2824 74.6511 31.9492 74.2554 31.9492Z" fill="#DDE3E9"/>
  <path d="M68.5239 34.5537H58.255C57.8593 34.5537 57.5386 34.8869 57.5386 35.2978V35.3723C57.5386 35.7832 57.8593 36.1164 58.255 36.1164H68.5239C68.9196 36.1164 69.2403 35.7832 69.2403 35.3723V35.2978C69.2403 34.8869 68.9196 34.5537 68.5239 34.5537Z" fill="#DDE3E9"/>
  <path fill-rule="evenodd" clip-rule="evenodd" d="M53.2403 37.0095C54.8229 37.0095 56.106 35.6767 56.106 34.0329C56.106 32.3891 54.8229 31.0564 53.2403 31.0564C51.6576 31.0564 50.3745 32.3891 50.3745 34.0329C50.3745 35.6767 51.6576 37.0095 53.2403 37.0095Z" fill="#C5CFD6"/>
  <path d="M78.5542 41.2261H49.1803C48.6528 41.2261 48.2251 41.6703 48.2251 42.2183V50.6518C48.2251 51.1997 48.6528 51.644 49.1803 51.644H78.5542C79.0817 51.644 79.5094 51.1997 79.5094 50.6518V42.2183C79.5094 41.6703 79.0817 41.2261 78.5542 41.2261Z" fill="white"/>
  <path d="M74.2554 44.3513H58.255C57.8593 44.3513 57.5386 44.6845 57.5386 45.0955V45.1699C57.5386 45.5808 57.8593 45.914 58.255 45.914H74.2554C74.6511 45.914 74.9718 45.5808 74.9718 45.1699V45.0955C74.9718 44.6845 74.6511 44.3513 74.2554 44.3513Z" fill="#DDE3E9"/>
  <path d="M68.5239 46.9558H58.255C57.8593 46.9558 57.5386 47.289 57.5386 47.6999V47.7744C57.5386 48.1853 57.8593 48.5185 58.255 48.5185H68.5239C68.9196 48.5185 69.2403 48.1853 69.2403 47.7744V47.6999C69.2403 47.289 68.9196 46.9558 68.5239 46.9558Z" fill="#DDE3E9"/>
  <path fill-rule="evenodd" clip-rule="evenodd" d="M53.2403 49.4116C54.8229 49.4116 56.106 48.0788 56.106 46.435C56.106 44.7912 54.8229 43.4585 53.2403 43.4585C51.6576 43.4585 50.3745 44.7912 50.3745 46.435C50.3745 48.0788 51.6576 49.4116 53.2403 49.4116Z" fill="#AFB9C5"/>
  <path d="M78.5542 53.6282H49.1803C48.6528 53.6282 48.2251 54.0724 48.2251 54.6204V63.0539C48.2251 63.6018 48.6528 64.0461 49.1803 64.0461H78.5542C79.0817 64.0461 79.5094 63.6018 79.5094 63.0539V54.6204C79.5094 54.0724 79.0817 53.6282 78.5542 53.6282Z" fill="white"/>
  <path d="M74.2554 56.7534H58.255C57.8593 56.7534 57.5386 57.0866 57.5386 57.4976V57.572C57.5386 57.9829 57.8593 58.3161 58.255 58.3161H74.2554C74.6511 58.3161 74.9718 57.9829 74.9718 57.572V57.4976C74.9718 57.0866 74.6511 56.7534 74.2554 56.7534Z" fill="#DDE3E9"/>
  <path d="M68.5239 59.3579H58.255C57.8593 59.3579 57.5386 59.6911 57.5386 60.102V60.1765C57.5386 60.5874 57.8593 60.9206 58.255 60.9206H68.5239C68.9196 60.9206 69.2403 60.5874 69.2403 60.1765V60.102C69.2403 59.6911 68.9196 59.3579 68.5239 59.3579Z" fill="#DDE3E9"/>
  <path fill-rule="evenodd" clip-rule="evenodd" d="M53.2403 61.8137C54.8229 61.8137 56.106 60.4809 56.106 58.8371C56.106 57.1933 54.8229 55.8606 53.2403 55.8606C51.6576 55.8606 50.3745 57.1933 50.3745 58.8371C50.3745 60.4809 51.6576 61.8137 53.2403 61.8137Z" fill="#C5CFD6"/>
  <path fill-rule="evenodd" clip-rule="evenodd" d="M52.0792 67.0225C51.7628 67.0225 51.4473 67.0292 51.1313 67.046C50.8904 67.0592 50.5224 67.0073 50.3187 67.1633C50.1068 67.3253 50.1214 67.6567 50.1546 67.8909C50.3294 69.1291 50.7562 70.2269 51.6491 71.1043C53.0239 72.4549 54.5998 73.1412 56.4647 73.4468C57.7748 73.6616 58.9842 73.3635 59.9485 72.3959C60.6532 73.7541 61.1877 75.2573 61.4559 76.7743C61.5882 77.5229 61.6285 78.2626 61.6054 79.0248C61.5903 79.513 61.5645 80.0002 61.5141 80.4861C61.4922 80.6972 61.3885 81.0166 61.4681 81.2163C61.5614 81.4505 61.8764 81.4733 62.0178 81.2734C62.1355 81.1072 62.114 80.7805 62.1382 80.5838C62.1783 80.2569 62.2153 79.9297 62.2418 79.6013C62.285 79.0697 62.3168 78.5367 62.3146 78.0029C62.3091 76.8041 62.0524 75.6006 61.7014 74.4626C61.0279 72.279 59.9354 70.3386 58.236 68.8161C57.1909 67.8799 55.995 67.5009 54.6383 67.2973C53.7934 67.1705 52.9348 67.0225 52.0792 67.0225Z" fill="#89C5CC"/>
  <path fill-rule="evenodd" clip-rule="evenodd" d="M56.9585 75.7041C53.5438 75.7041 51.244 78.5626 50.1567 81.5337C49.7467 82.6533 49.6507 83.8831 49.4926 85.0589C49.442 85.4364 49.4608 86.0113 49.3132 86.3475C49.2597 86.4695 49.137 86.5131 49.1957 86.6793C49.2313 86.7798 49.3008 86.8416 49.4056 86.8614C49.6203 86.9026 49.9241 86.6595 50.1082 86.5637C51.6357 85.768 52.6392 84.5377 53.4578 83.0326C53.9655 82.0997 54.4804 81.1311 54.7818 80.1069C54.9659 79.4811 55.0731 78.8223 55.1362 78.1731C55.161 77.9174 55.1849 77.6557 55.1835 77.3987C55.182 77.1435 55.0676 77.0086 54.9855 76.7866C56.1249 76.3386 57.4111 76.2166 58.5653 76.6807C59.6328 77.11 60.5195 77.9397 61.0159 78.9823C61.1449 79.2531 61.2445 79.5389 61.3168 79.8306C61.3644 80.0216 61.3665 80.2691 61.4546 80.4418C61.6677 80.8605 62.1161 80.5807 62.0732 80.191C61.953 79.1043 61.3546 78.0131 60.5894 77.2576C59.6244 76.3046 58.3167 75.7041 56.9585 75.7041Z" fill="#89C5CC"/>
  <path d="M96.7036 12.9487H62.5536C61.4984 12.9487 60.6431 13.8372 60.6431 14.9331V85.8739C60.6431 86.9698 61.4984 87.8582 62.5536 87.8582H96.7036C97.7587 87.8582 98.6141 86.9698 98.6141 85.8739V14.9331C98.6141 13.8372 97.7587 12.9487 96.7036 12.9487Z" fill="#DDE3E9"/>
  <path fill-rule="evenodd" clip-rule="evenodd" d="M79.5094 83.1454C81.4877 83.1454 83.0916 81.4796 83.0916 79.4248C83.0916 77.37 81.4877 75.7041 79.5094 75.7041C77.5311 75.7041 75.9272 77.37 75.9272 79.4248C75.9272 81.4796 77.5311 83.1454 79.5094 83.1454Z" fill="white"/>
  <path fill-rule="evenodd" clip-rule="evenodd" d="M76.4051 17.9097C76.6692 17.9097 76.883 17.6877 76.883 17.4136C76.883 17.1395 76.6692 16.9175 76.4051 16.9175C76.1411 16.9175 75.9272 17.1395 75.9272 17.4136C75.9272 17.6877 76.1411 17.9097 76.4051 17.9097Z" fill="white"/>
  <path d="M82.6141 16.9175H78.5543C78.2905 16.9175 78.0767 17.1396 78.0767 17.4136C78.0767 17.6876 78.2905 17.9097 78.5543 17.9097H82.6141C82.8779 17.9097 83.0917 17.6876 83.0917 17.4136C83.0917 17.1396 82.8779 16.9175 82.6141 16.9175Z" fill="white"/>
  <path d="M94.3154 19.894H64.9416C64.414 19.894 63.9863 20.3383 63.9863 20.8862V32.2963C63.9863 32.8442 64.414 33.2885 64.9416 33.2885H94.3154C94.843 33.2885 95.2706 32.8442 95.2706 32.2963V20.8862C95.2706 20.3383 94.843 19.894 94.3154 19.894Z" fill="white"/>
  <path d="M82.8526 23.9124H66.8522C66.4565 23.9124 66.1357 24.2455 66.1357 24.6565V25.1774C66.1357 25.5884 66.4565 25.9215 66.8522 25.9215H82.8526C83.2482 25.9215 83.569 25.5884 83.569 25.1774V24.6565C83.569 24.2455 83.2482 23.9124 82.8526 23.9124Z" fill="#DDE3E9"/>
  <path d="M77.1211 27.261H66.8522C66.4565 27.261 66.1357 27.5941 66.1357 28.0051V28.526C66.1357 28.937 66.4565 29.2701 66.8522 29.2701H77.1211C77.5167 29.2701 77.8375 28.937 77.8375 28.526V28.0051C77.8375 27.5941 77.5167 27.261 77.1211 27.261Z" fill="#DDE3E9"/>
  <path fill-rule="evenodd" clip-rule="evenodd" d="M91.9275 28.3276C92.8508 28.3276 93.5992 27.5502 93.5992 26.5913C93.5992 25.6324 92.8508 24.855 91.9275 24.855C91.0043 24.855 90.2559 25.6324 90.2559 26.5913C90.2559 27.5502 91.0043 28.3276 91.9275 28.3276Z" fill="#DDE3E9"/>
  <path fill-rule="evenodd" clip-rule="evenodd" d="M91.9278 27.3354C92.3237 27.3354 92.6446 27.0023 92.6446 26.5913C92.6446 26.1803 92.3237 25.8472 91.9278 25.8472C91.5318 25.8472 91.2109 26.1803 91.2109 26.5913C91.2109 27.0023 91.5318 27.3354 91.9278 27.3354Z" fill="#F2F2F2"/>
  <path d="M94.3154 35.2729H64.9416C64.414 35.2729 63.9863 35.7172 63.9863 36.2651V44.6986C63.9863 45.2466 64.414 45.6908 64.9416 45.6908H94.3154C94.843 45.6908 95.2706 45.2466 95.2706 44.6986V36.2651C95.2706 35.7172 94.843 35.2729 94.3154 35.2729Z" fill="white"/>
  <path d="M90.0166 38.3982H74.0162C73.6206 38.3982 73.2998 38.7314 73.2998 39.1423V39.2167C73.2998 39.6277 73.6206 39.9609 74.0162 39.9609H90.0166C90.4123 39.9609 90.733 39.6277 90.733 39.2167V39.1423C90.733 38.7314 90.4123 38.3982 90.0166 38.3982Z" fill="#DDE3E9"/>
  <path d="M84.2851 41.0027H74.0162C73.6206 41.0027 73.2998 41.3358 73.2998 41.7468V41.8212C73.2998 42.2322 73.6206 42.5654 74.0162 42.5654H84.2851C84.6808 42.5654 85.0016 42.2322 85.0016 41.8212V41.7468C85.0016 41.3358 84.6808 41.0027 84.2851 41.0027Z" fill="#DDE3E9"/>
  <path fill-rule="evenodd" clip-rule="evenodd" d="M69.0015 43.4584C70.5841 43.4584 71.8672 42.1257 71.8672 40.4819C71.8672 38.8381 70.5841 37.5054 69.0015 37.5054C67.4189 37.5054 66.1357 38.8381 66.1357 40.4819C66.1357 42.1257 67.4189 43.4584 69.0015 43.4584Z" fill="#C5CFD6"/>
  <path d="M94.3154 47.675H64.9416C64.414 47.675 63.9863 48.1193 63.9863 48.6672V57.1007C63.9863 57.6487 64.414 58.0929 64.9416 58.0929H94.3154C94.843 58.0929 95.2706 57.6487 95.2706 57.1007V48.6672C95.2706 48.1193 94.843 47.675 94.3154 47.675Z" fill="white"/>
  <path d="M82.8526 50.8005H66.8522C66.4565 50.8005 66.1357 51.1337 66.1357 51.5447V51.6191C66.1357 52.0301 66.4565 52.3632 66.8522 52.3632H82.8526C83.2482 52.3632 83.569 52.0301 83.569 51.6191V51.5447C83.569 51.1337 83.2482 50.8005 82.8526 50.8005Z" fill="#DDE3E9"/>
  <path d="M77.1211 53.405H66.8522C66.4565 53.405 66.1357 53.7382 66.1357 54.1492V54.2236C66.1357 54.6345 66.4565 54.9677 66.8522 54.9677H77.1211C77.5167 54.9677 77.8375 54.6345 77.8375 54.2236V54.1492C77.8375 53.7382 77.5167 53.405 77.1211 53.405Z" fill="#AFB9C5"/>
  <path fill-rule="evenodd" clip-rule="evenodd" d="M91.9275 54.6203C92.8508 54.6203 93.5992 53.843 93.5992 52.884C93.5992 51.9251 92.8508 51.1477 91.9275 51.1477C91.0043 51.1477 90.2559 51.9251 90.2559 52.884C90.2559 53.843 91.0043 54.6203 91.9275 54.6203Z" fill="#DDE3E9"/>
  <path fill-rule="evenodd" clip-rule="evenodd" d="M91.9278 53.6282C92.3237 53.6282 92.6446 53.295 92.6446 52.884C92.6446 52.473 92.3237 52.1399 91.9278 52.1399C91.5318 52.1399 91.2109 52.473 91.2109 52.884C91.2109 53.295 91.5318 53.6282 91.9278 53.6282Z" fill="#F2F2F2"/>
  <path d="M94.3154 60.0774H64.9416C64.414 60.0774 63.9863 60.5216 63.9863 61.0696V69.5031C63.9863 70.0511 64.414 70.4953 64.9416 70.4953H94.3154C94.843 70.4953 95.2706 70.0511 95.2706 69.5031V61.0696C95.2706 60.5216 94.843 60.0774 94.3154 60.0774Z" fill="white"/>
  <path d="M90.0166 63.2026H74.0162C73.6206 63.2026 73.2998 63.5358 73.2998 63.9468V64.0212C73.2998 64.4322 73.6206 64.7653 74.0162 64.7653H90.0166C90.4123 64.7653 90.733 64.4322 90.733 64.0212V63.9468C90.733 63.5358 90.4123 63.2026 90.0166 63.2026Z" fill="#DDE3E9"/>
  <path d="M84.2851 65.8071H74.0162C73.6206 65.8071 73.2998 66.1403 73.2998 66.5513V66.6257C73.2998 67.0366 73.6206 67.3698 74.0162 67.3698H84.2851C84.6808 67.3698 85.0016 67.0366 85.0016 66.6257V66.5513C85.0016 66.1403 84.6808 65.8071 84.2851 65.8071Z" fill="#DDE3E9"/>
  <path fill-rule="evenodd" clip-rule="evenodd" d="M69.0015 68.2629C70.5841 68.2629 71.8672 66.9301 71.8672 65.2864C71.8672 63.6426 70.5841 62.3098 69.0015 62.3098C67.4189 62.3098 66.1357 63.6426 66.1357 65.2864C66.1357 66.9301 67.4189 68.2629 69.0015 68.2629Z" fill="#C5CFD6"/>
  <path d="M154.496 19.1499H78.3153C77.2601 19.1499 76.4048 20.0383 76.4048 21.1343V102.989C76.4048 104.085 77.2601 104.973 78.3153 104.973H154.496C155.551 104.973 156.407 104.085 156.407 102.989V21.1343C156.407 20.0383 155.551 19.1499 154.496 19.1499Z" fill="#F2F2F2"/>
  <path d="M150.675 29.8159H137.78C136.724 29.8159 135.869 30.7043 135.869 31.8003V47.9232C135.869 49.0191 136.724 49.9075 137.78 49.9075H150.675C151.731 49.9075 152.586 49.0191 152.586 47.9232V31.8003C152.586 30.7043 151.731 29.8159 150.675 29.8159Z" fill="white"/>
  <path fill-rule="evenodd" clip-rule="evenodd" d="M144.227 41.4741C146.338 41.4741 148.048 39.6973 148.048 37.5053C148.048 35.3134 146.338 33.5366 144.227 33.5366C142.117 33.5366 140.406 35.3134 140.406 37.5053C140.406 39.6973 142.117 41.4741 144.227 41.4741Z" fill="#DDE3E9"/>
  <path d="M149.481 42.4663H138.973C138.578 42.4663 138.257 42.7995 138.257 43.2104C138.257 43.6214 138.578 43.9546 138.973 43.9546H149.481C149.877 43.9546 150.197 43.6214 150.197 43.2104C150.197 42.7995 149.877 42.4663 149.481 42.4663Z" fill="#DDE3E9"/>
  <path d="M147.571 44.9468H140.884C140.488 44.9468 140.167 45.2799 140.167 45.6909C140.167 46.1019 140.488 46.435 140.884 46.435H147.571C147.966 46.435 148.287 46.1019 148.287 45.6909C148.287 45.2799 147.966 44.9468 147.571 44.9468Z" fill="#DDE3E9"/>
  <path d="M76.4048 21.1343C76.4048 20.0384 77.2602 19.1499 78.3153 19.1499H154.496C155.551 19.1499 156.407 20.0384 156.407 21.1343V25.8471H76.4048V21.1343Z" fill="#C5CFD6"/>
  <path fill-rule="evenodd" clip-rule="evenodd" d="M79.5094 23.6147C80.037 23.6147 80.4647 23.1705 80.4647 22.6225C80.4647 22.0746 80.037 21.6304 79.5094 21.6304C78.9819 21.6304 78.5542 22.0746 78.5542 22.6225C78.5542 23.1705 78.9819 23.6147 79.5094 23.6147Z" fill="#F2F2F2"/>
  <path fill-rule="evenodd" clip-rule="evenodd" d="M82.3752 23.6147C82.9027 23.6147 83.3304 23.1705 83.3304 22.6225C83.3304 22.0746 82.9027 21.6304 82.3752 21.6304C81.8476 21.6304 81.4199 22.0746 81.4199 22.6225C81.4199 23.1705 81.8476 23.6147 82.3752 23.6147Z" fill="#F2F2F2"/>
  <path fill-rule="evenodd" clip-rule="evenodd" d="M85.2409 23.6147C85.7684 23.6147 86.1961 23.1705 86.1961 22.6225C86.1961 22.0746 85.7684 21.6304 85.2409 21.6304C84.7134 21.6304 84.2856 22.0746 84.2856 22.6225C84.2856 23.1705 84.7134 23.6147 85.2409 23.6147Z" fill="#F2F2F2"/>
  <path d="M150.675 51.8918H137.78C136.724 51.8918 135.869 52.7803 135.869 53.8762V98.0282C135.869 99.1241 136.724 100.013 137.78 100.013H150.675C151.731 100.013 152.586 99.1241 152.586 98.0282V53.8762C152.586 52.7803 151.731 51.8918 150.675 51.8918Z" fill="white"/>
  <path d="M147.332 56.3564H141.123C140.596 56.3564 140.168 56.8007 140.168 57.3486V61.8134C140.168 62.3614 140.596 62.8056 141.123 62.8056H147.332C147.86 62.8056 148.288 62.3614 148.288 61.8134V57.3486C148.288 56.8007 147.86 56.3564 147.332 56.3564Z" fill="#DDE3E9"/>
  <path d="M147.332 64.79H141.123C140.596 64.79 140.168 65.2343 140.168 65.7822V69.999C140.168 70.5469 140.596 70.9912 141.123 70.9912H147.332C147.86 70.9912 148.288 70.5469 148.288 69.999V65.7822C148.288 65.2343 147.86 64.79 147.332 64.79Z" fill="#AFB9C5"/>
  <path d="M147.332 72.9756H141.123C140.596 72.9756 140.168 73.4198 140.168 73.9678V78.1845C140.168 78.7325 140.596 79.1767 141.123 79.1767H147.332C147.86 79.1767 148.288 78.7325 148.288 78.1845V73.9678C148.288 73.4198 147.86 72.9756 147.332 72.9756Z" fill="#DDE3E9"/>
  <path d="M147.332 89.3464H141.123C140.596 89.3464 140.168 89.7906 140.168 90.3386V94.5554C140.168 95.1033 140.596 95.5476 141.123 95.5476H147.332C147.86 95.5476 148.288 95.1033 148.288 94.5554V90.3386C148.288 89.7906 147.86 89.3464 147.332 89.3464Z" fill="#DDE3E9"/>
  <path d="M147.332 81.1609H141.123C140.596 81.1609 140.168 81.6051 140.168 82.1531V86.3698C140.168 86.9178 140.596 87.362 141.123 87.362H147.332C147.86 87.362 148.288 86.9178 148.288 86.3698V82.1531C148.288 81.6051 147.86 81.1609 147.332 81.1609Z" fill="#C5CFD6"/>
  <path d="M133.003 30.064H81.1808C80.6533 30.064 80.2256 30.5082 80.2256 31.0561V40.7299C80.2256 41.2779 80.6533 41.7221 81.1808 41.7221H133.003C133.531 41.7221 133.958 41.2779 133.958 40.7299V31.0561C133.958 30.5082 133.531 30.064 133.003 30.064Z" fill="white"/>
  <path d="M121.54 33.5613H83.0914C82.6958 33.5613 82.375 33.8944 82.375 34.3054V34.5659C82.375 34.9768 82.6958 35.31 83.0914 35.31H121.54C121.936 35.31 122.257 34.9768 122.257 34.5659V34.3054C122.257 33.8944 121.936 33.5613 121.54 33.5613Z" fill="#DDE3E9"/>
  <path d="M108.428 36.4758H83.0914C82.6958 36.4758 82.375 36.809 82.375 37.22V37.4804C82.375 37.8914 82.6958 38.2245 83.0914 38.2245H108.428C108.824 38.2245 109.145 37.8914 109.145 37.4804V37.22C109.145 36.809 108.824 36.4758 108.428 36.4758Z" fill="#DDE3E9"/>
  <path fill-rule="evenodd" clip-rule="evenodd" d="M128.216 37.6294C129.139 37.6294 129.887 36.852 129.887 35.8931C129.887 34.9341 129.139 34.1567 128.216 34.1567C127.292 34.1567 126.544 34.9341 126.544 35.8931C126.544 36.852 127.292 37.6294 128.216 37.6294Z" fill="#DDE3E9"/>
  <path fill-rule="evenodd" clip-rule="evenodd" d="M128.216 36.6372C128.612 36.6372 128.933 36.3041 128.933 35.8931C128.933 35.482 128.612 35.1489 128.216 35.1489C127.82 35.1489 127.499 35.482 127.499 35.8931C127.499 36.3041 127.82 36.6372 128.216 36.6372Z" fill="#F2F2F2"/>
  <path d="M133.003 43.7065H81.1808C80.6533 43.7065 80.2256 44.1508 80.2256 44.6987V52.3881C80.2256 52.9361 80.6533 53.3803 81.1808 53.3803H133.003C133.531 53.3803 133.958 52.9361 133.958 52.3881V44.6987C133.958 44.1508 133.531 43.7065 133.003 43.7065Z" fill="white"/>
  <path d="M121.558 46.6086H83.0735C82.6877 46.6086 82.375 46.9335 82.375 47.3342C82.375 47.7349 82.6877 48.0597 83.0735 48.0597H121.558C121.944 48.0597 122.257 47.7349 122.257 47.3342C122.257 46.9335 121.944 46.6086 121.558 46.6086Z" fill="#DDE3E9"/>
  <path d="M108.446 49.0271H83.0735C82.6877 49.0271 82.375 49.3519 82.375 49.7526C82.375 50.1533 82.6877 50.4782 83.0735 50.4782H108.446C108.832 50.4782 109.145 50.1533 109.145 49.7526C109.145 49.3519 108.832 49.0271 108.446 49.0271Z" fill="#DDE3E9"/>
  <path fill-rule="evenodd" clip-rule="evenodd" d="M128.216 50.2798C129.139 50.2798 129.887 49.5024 129.887 48.5434C129.887 47.5845 129.139 46.8071 128.216 46.8071C127.292 46.8071 126.544 47.5845 126.544 48.5434C126.544 49.5024 127.292 50.2798 128.216 50.2798Z" fill="#DDE3E9"/>
  <path fill-rule="evenodd" clip-rule="evenodd" d="M128.216 49.2876C128.612 49.2876 128.933 48.9545 128.933 48.5435C128.933 48.1324 128.612 47.7993 128.216 47.7993C127.82 47.7993 127.499 48.1324 127.499 48.5435C127.499 48.9545 127.82 49.2876 128.216 49.2876Z" fill="#F2F2F2"/>
  <path d="M133.003 55.3645H81.1808C80.6533 55.3645 80.2256 55.8087 80.2256 56.3567V64.0461C80.2256 64.594 80.6533 65.0382 81.1808 65.0382H133.003C133.531 65.0382 133.958 64.594 133.958 64.0461V56.3567C133.958 55.8087 133.531 55.3645 133.003 55.3645Z" fill="white"/>
  <path d="M121.558 58.2666H83.0735C82.6877 58.2666 82.375 58.5914 82.375 58.9921C82.375 59.3928 82.6877 59.7177 83.0735 59.7177H121.558C121.944 59.7177 122.257 59.3928 122.257 58.9921C122.257 58.5914 121.944 58.2666 121.558 58.2666Z" fill="#DDE3E9"/>
  <path d="M108.446 60.6851H83.0735C82.6877 60.6851 82.375 61.0099 82.375 61.4106C82.375 61.8113 82.6877 62.1361 83.0735 62.1361H108.446C108.832 62.1361 109.145 61.8113 109.145 61.4106C109.145 61.0099 108.832 60.6851 108.446 60.6851Z" fill="#DDE3E9"/>
  <path fill-rule="evenodd" clip-rule="evenodd" d="M128.216 61.9377C129.139 61.9377 129.887 61.1603 129.887 60.2014C129.887 59.2425 129.139 58.4651 128.216 58.4651C127.292 58.4651 126.544 59.2425 126.544 60.2014C126.544 61.1603 127.292 61.9377 128.216 61.9377Z" fill="#DDE3E9"/>
  <path fill-rule="evenodd" clip-rule="evenodd" d="M128.216 60.9455C128.612 60.9455 128.933 60.6124 128.933 60.2014C128.933 59.7904 128.612 59.4573 128.216 59.4573C127.82 59.4573 127.499 59.7904 127.499 60.2014C127.499 60.6124 127.82 60.9455 128.216 60.9455Z" fill="#AFB9C5"/>
  <path d="M133.003 90.3389H81.1808C80.6533 90.3389 80.2256 90.7831 80.2256 91.331V99.0204C80.2256 99.5684 80.6533 100.013 81.1808 100.013H133.003C133.531 100.013 133.958 99.5684 133.958 99.0204V91.331C133.958 90.7831 133.531 90.3389 133.003 90.3389Z" fill="white"/>
  <path d="M121.558 93.241H83.0735C82.6877 93.241 82.375 93.5658 82.375 93.9665C82.375 94.3672 82.6877 94.692 83.0735 94.692H121.558C121.944 94.692 122.257 94.3672 122.257 93.9665C122.257 93.5658 121.944 93.241 121.558 93.241Z" fill="#DDE3E9"/>
  <path d="M108.446 95.6594H83.0735C82.6877 95.6594 82.375 95.9843 82.375 96.385C82.375 96.7857 82.6877 97.1105 83.0735 97.1105H108.446C108.832 97.1105 109.145 96.7857 109.145 96.385C109.145 95.9843 108.832 95.6594 108.446 95.6594Z" fill="#DDE3E9"/>
  <path fill-rule="evenodd" clip-rule="evenodd" d="M128.216 96.9121C129.139 96.9121 129.887 96.1347 129.887 95.1758C129.887 94.2168 129.139 93.4395 128.216 93.4395C127.292 93.4395 126.544 94.2168 126.544 95.1758C126.544 96.1347 127.292 96.9121 128.216 96.9121Z" fill="#DDE3E9"/>
  <path fill-rule="evenodd" clip-rule="evenodd" d="M128.216 95.9199C128.612 95.9199 128.933 95.5868 128.933 95.1758C128.933 94.7648 128.612 94.4316 128.216 94.4316C127.82 94.4316 127.499 94.7648 127.499 95.1758C127.499 95.5868 127.82 95.9199 128.216 95.9199Z" fill="#F2F2F2"/>
  <path d="M133.003 78.6807H81.1808C80.6533 78.6807 80.2256 79.1249 80.2256 79.6728V87.3622C80.2256 87.9102 80.6533 88.3544 81.1808 88.3544H133.003C133.531 88.3544 133.958 87.9102 133.958 87.3622V79.6728C133.958 79.1249 133.531 78.6807 133.003 78.6807Z" fill="white"/>
  <path d="M121.558 81.5828H83.0735C82.6877 81.5828 82.375 81.9076 82.375 82.3083C82.375 82.709 82.6877 83.0338 83.0735 83.0338H121.558C121.944 83.0338 122.257 82.709 122.257 82.3083C122.257 81.9076 121.944 81.5828 121.558 81.5828Z" fill="#DDE3E9"/>
  <path d="M108.446 84.0012H83.0735C82.6877 84.0012 82.375 84.326 82.375 84.7267C82.375 85.1274 82.6877 85.4523 83.0735 85.4523H108.446C108.832 85.4523 109.145 85.1274 109.145 84.7267C109.145 84.326 108.832 84.0012 108.446 84.0012Z" fill="#DDE3E9"/>
  <path fill-rule="evenodd" clip-rule="evenodd" d="M128.216 85.2539C129.139 85.2539 129.887 84.4765 129.887 83.5176C129.887 82.5586 129.139 81.7812 128.216 81.7812C127.292 81.7812 126.544 82.5586 126.544 83.5176C126.544 84.4765 127.292 85.2539 128.216 85.2539Z" fill="#DDE3E9"/>
  <path fill-rule="evenodd" clip-rule="evenodd" d="M128.216 84.2617C128.612 84.2617 128.933 83.9286 128.933 83.5176C128.933 83.1066 128.612 82.7734 128.216 82.7734C127.82 82.7734 127.499 83.1066 127.499 83.5176C127.499 83.9286 127.82 84.2617 128.216 84.2617Z" fill="#F2F2F2"/>
  <path d="M133.003 67.0227H81.1808C80.6533 67.0227 80.2256 67.4669 80.2256 68.0149V75.7043C80.2256 76.2522 80.6533 76.6964 81.1808 76.6964H133.003C133.531 76.6964 133.958 76.2522 133.958 75.7043V68.0149C133.958 67.4669 133.531 67.0227 133.003 67.0227Z" fill="white"/>
  <path d="M121.558 69.9248H83.0735C82.6877 69.9248 82.375 70.2496 82.375 70.6503C82.375 71.051 82.6877 71.3759 83.0735 71.3759H121.558C121.944 71.3759 122.257 71.051 122.257 70.6503C122.257 70.2496 121.944 69.9248 121.558 69.9248Z" fill="#DDE3E9"/>
  <path d="M108.446 72.3433H83.0735C82.6877 72.3433 82.375 72.6681 82.375 73.0688C82.375 73.4695 82.6877 73.7943 83.0735 73.7943H108.446C108.832 73.7943 109.145 73.4695 109.145 73.0688C109.145 72.6681 108.832 72.3433 108.446 72.3433Z" fill="#DDE3E9"/>
  <path fill-rule="evenodd" clip-rule="evenodd" d="M128.216 73.5959C129.139 73.5959 129.887 72.8185 129.887 71.8596C129.887 70.9007 129.139 70.1233 128.216 70.1233C127.292 70.1233 126.544 70.9007 126.544 71.8596C126.544 72.8185 127.292 73.5959 128.216 73.5959Z" fill="#DDE3E9"/>
  <path fill-rule="evenodd" clip-rule="evenodd" d="M128.216 72.6037C128.612 72.6037 128.933 72.2706 128.933 71.8596C128.933 71.4486 128.612 71.1155 128.216 71.1155C127.82 71.1155 127.499 71.4486 127.499 71.8596C127.499 72.2706 127.82 72.6037 128.216 72.6037Z" fill="#F2F2F2"/>
  <path fill-rule="evenodd" clip-rule="evenodd" d="M176.226 61.4109C175.282 60.7474 174.031 60.5735 172.904 60.5735C168.5 60.5735 164.362 62.2701 160.787 64.7982C158.828 66.1833 157.075 67.9474 155.528 69.7839C154.635 70.8443 153.839 71.991 153.275 73.2667C152.895 74.1276 152.634 75.0248 152.457 75.95C152.241 77.0776 152.07 78.2281 151.992 79.3745C151.962 79.826 151.709 82.2213 152.432 82.262C152.428 82.3211 152.427 82.3774 152.431 82.4277C150.862 84.9761 149.893 87.9626 148.994 90.794C148.211 93.2581 147.514 95.7428 147.062 98.2919C146.466 101.648 146.075 105.054 145.889 108.459C145.849 109.19 145.822 109.922 145.798 110.654C145.778 111.279 145.758 111.904 145.738 112.529C145.716 113.229 145.597 114.036 145.704 114.732C145.798 115.338 146.303 115.246 146.325 114.643C146.352 113.914 146.348 113.184 146.379 112.455C146.419 111.488 146.461 110.52 146.507 109.553C146.824 102.833 148.015 96.2113 150.212 89.8636C151.102 87.2948 152.12 84.8633 153.43 82.487C154.581 80.3977 155.966 78.3749 157.382 76.4913C158.758 74.6604 160.189 72.8723 161.874 71.3213C163.242 70.0627 164.747 68.9661 166.294 67.9459C168.259 66.6501 170.22 65.3858 172.35 64.3911C173.455 63.8742 174.583 63.4114 175.698 62.915C175.899 62.826 176.113 62.7394 176.307 62.636C176.949 62.2912 176.737 61.772 176.226 61.4109Z" fill="#C1DEE2"/>
  <path fill-rule="evenodd" clip-rule="evenodd" d="M158.513 84.8818C160.298 84.8818 161.887 85.1229 163.532 85.8599C164.953 86.4961 166.246 87.3382 167.504 88.255C169.272 89.5446 170.664 91.0452 171.638 93.0338C172.221 94.2217 172.648 95.9027 172.257 97.1985C171.796 98.7245 170.53 99.9974 168.866 99.7285C167.836 99.5624 166.891 98.8542 166.108 98.1877C165.172 97.3902 164.422 96.4315 163.803 95.3667C162.794 93.6296 162.2 91.6661 161.343 89.8509C160.936 88.9895 160.542 88.122 160.055 87.3032C159.813 86.8979 159.556 86.4964 159.19 86.195C158.995 86.0338 158.169 85.755 158.484 85.3931C153.854 85.4561 149.752 89.1499 148.862 93.7224C148.78 94.1485 148.715 94.5782 148.647 95.007C148.604 95.2776 148.621 96.2763 148.388 96.4491C147.874 96.8306 148.09 95.6715 148.112 95.5046C148.169 95.0732 148.23 94.6424 148.294 94.212C148.641 91.872 149.644 89.6966 151.316 88.0278C153.229 86.1196 155.81 84.8818 158.513 84.8818Z" fill="#89C5CC"/>
  <path fill-rule="evenodd" clip-rule="evenodd" d="M6.41823 93.0018C10.8759 100.77 16.0679 108.291 19.1858 116.784C19.0602 115.782 18.9269 114.782 18.7777 113.784C17.9867 108.49 17.0033 103.236 15.9702 97.9873C15.4441 95.3151 14.8874 92.6523 14.3167 89.9901C14.0098 88.5601 13.7065 87.1294 13.3932 85.7009C13.3173 85.3546 13.2521 84.7501 13.1573 84.1377C16.1873 94.4655 19.1094 104.801 21.2468 115.377C21.5271 116.765 21.7659 118.151 21.9615 119.534C22.0284 119.218 22.0943 118.903 22.1662 118.588C23.0312 114.816 24.3284 111.074 25.873 107.547C26.6114 105.86 27.4594 104.21 28.4581 102.673C29.081 101.715 30.5497 100.576 31.1176 99.5944C28.0109 105.513 26.8889 112.919 25.095 119.353C24.6572 120.924 24.2166 122.491 23.7848 124.062C26.4901 118.427 30.6875 113.797 36.5233 111.79C29.4592 116.638 25.2222 125.128 22.367 133.811C22.3577 133.914 22.3465 134.017 22.3367 134.12C23.1771 132.464 24.2352 130.966 25.6695 129.917C28.7397 127.671 32.1452 128.325 35.1231 130.252C32.7859 128.709 28.562 130.114 26.5954 131.682C25.1876 132.805 23.9845 134.311 22.9397 135.781C22.6894 136.133 22.3477 136.544 21.9868 136.982C21.481 140.393 20.6567 143.781 19.4893 147.141C19.6821 146.176 19.5428 144.634 19.5963 143.915C19.6021 143.837 19.6068 143.759 19.6126 143.682C19.4351 144.417 19.2637 145.145 19.0986 145.86C19.4268 144.495 19.6049 143.069 19.7442 141.629C19.78 141.01 19.8151 140.391 19.8519 139.772C19.8402 138.597 19.7936 137.417 19.7148 136.236C19.4356 135.088 19.1228 134.005 18.8646 133.104C17.934 129.855 16.5692 126.742 14.8896 123.838C13.3571 121.187 11.5226 118.787 9.40505 116.615C8.26329 115.445 7.06852 114.331 5.8907 113.201C5.46466 112.793 4.70333 111.788 4.04492 111.265C8.84026 114.011 13.7763 116.981 17.2746 121.406C16.8643 119.77 16.4189 118.157 15.9478 116.577C13.557 108.559 10.5384 100.249 6.41823 93.0018Z" fill="#DDE3E9"/>
  <path fill-rule="evenodd" clip-rule="evenodd" d="M11.2095 136.971C11.2095 145.876 11.8884 153.094 21.0007 153.094C30.1131 153.094 30.792 145.876 30.792 136.971" fill="#C5CFD6"/>
  <path d="M137.542 9.22826C137.542 8.81729 137.221 8.48413 136.825 8.48413C136.429 8.48413 136.108 8.81729 136.108 9.22826V13.9411C136.108 14.3521 136.429 14.6852 136.825 14.6852C137.221 14.6852 137.542 14.3521 137.542 13.9411V9.22826Z" fill="#DDE3E9"/>
  <path d="M140.885 5.25952C140.885 4.84854 140.564 4.51538 140.168 4.51538C139.772 4.51538 139.451 4.84854 139.451 5.25952V13.9411C139.451 14.3521 139.772 14.6852 140.168 14.6852C140.564 14.6852 140.885 14.3521 140.885 13.9411V5.25952Z" fill="#DDE3E9"/>
  <path d="M144.228 3.27514C144.228 2.86417 143.907 2.53101 143.511 2.53101C143.115 2.53101 142.794 2.86417 142.794 3.27514V13.9411C142.794 14.352 143.115 14.6852 143.511 14.6852C143.907 14.6852 144.228 14.352 144.228 13.9411V3.27514Z" fill="#DDE3E9"/>
  <path d="M147.571 5.25952C147.571 4.84854 147.25 4.51538 146.855 4.51538C146.459 4.51538 146.138 4.84854 146.138 5.25952V13.9411C146.138 14.3521 146.459 14.6852 146.855 14.6852C147.25 14.6852 147.571 14.3521 147.571 13.9411V5.25952Z" fill="#DDE3E9"/>
  <path d="M150.915 1.29076C150.915 0.879791 150.594 0.546631 150.198 0.546631C149.802 0.546631 149.481 0.879791 149.481 1.29076V13.941C149.481 14.352 149.802 14.6852 150.198 14.6852C150.594 14.6852 150.915 14.352 150.915 13.941V1.29076Z" fill="#C5CFD6"/>
  <path fill-rule="evenodd" clip-rule="evenodd" d="M18.6123 76.5117C18.6123 73.7487 20.7621 71.4873 23.3885 71.4873V76.5117L20.1245 80.1689C19.196 79.2747 18.6123 77.963 18.6123 76.5117Z" fill="#F2F2F2"/>
  <path fill-rule="evenodd" clip-rule="evenodd" d="M23.2621 76.4482H28.0854C28.0854 77.7433 27.5767 78.9567 26.7727 79.8385C25.8883 80.8029 24.6291 81.4091 23.2621 81.4091C22.0029 81.4091 20.8504 80.886 19.9658 80.059L23.2621 76.4482Z" fill="#AFB9C5"/>
  <path fill-rule="evenodd" clip-rule="evenodd" d="M28.1648 76.4482C28.1648 73.7202 26.015 71.4873 23.3885 71.4873V76.4482H28.1648ZM21.0004 71.4873L22.9109 75.9521L18.6123 73.9678C19.0374 72.8104 19.9919 71.9288 21.0004 71.4873Z" fill="#C5CFD6"/>
  <path fill-rule="evenodd" clip-rule="evenodd" d="M174.024 78.725C173.563 79.231 172.913 79.5487 172.192 79.5487C170.802 79.5487 169.675 78.3827 169.675 76.9443C169.675 75.5059 170.802 74.3398 172.192 74.3398V69.5029C168.24 69.5029 165.004 72.8523 165.004 76.9443C165.004 81.0363 168.24 84.3856 172.192 84.3856C174.267 84.3856 176.142 83.4763 177.422 82.0297L174.024 78.725Z" fill="#F2F2F2"/>
  <path fill-rule="evenodd" clip-rule="evenodd" d="M172.168 69.5029V74.3398C173.553 74.3398 174.675 75.5059 174.675 76.9443H179.332C179.332 72.8523 176.108 69.5029 172.168 69.5029Z" fill="#AFB9C5"/>
  <path fill-rule="evenodd" clip-rule="evenodd" d="M174.58 76.9443C174.58 77.7894 174.196 78.5405 173.601 79.0257L176.529 82.8974C178.234 81.5113 179.333 79.3625 179.333 76.9443H174.58Z" fill="#C5CFD6"/>
  <path fill-rule="evenodd" clip-rule="evenodd" d="M128.478 10.3454C128.125 10.7334 127.625 10.9769 127.069 10.9769C126 10.9769 125.134 10.083 125.134 8.98018C125.134 7.87737 126 6.98341 127.069 6.98341V3.27515C124.028 3.27515 121.54 5.84291 121.54 8.98018C121.54 12.1174 124.028 14.6852 127.069 14.6852C128.665 14.6852 130.109 13.988 131.093 12.8789L128.478 10.3454Z" fill="#F2F2F2"/>
  <path fill-rule="evenodd" clip-rule="evenodd" d="M127.033 3.27515V6.98341C128.094 6.98341 128.955 7.87737 128.955 8.98018H132.525C132.525 5.84291 130.053 3.27515 127.033 3.27515Z" fill="#AFB9C5"/>
  <path fill-rule="evenodd" clip-rule="evenodd" d="M128.96 8.98022C128.96 9.61398 128.673 10.1775 128.227 10.5412L130.423 13.445C131.701 12.4055 132.525 10.7939 132.525 8.98022H128.96Z" fill="#C5CFD6"/>
  <path fill-rule="evenodd" clip-rule="evenodd" d="M41.5395 14.6818C41.5385 14.6843 41.5376 14.6868 41.5361 14.6898C41.5376 14.6873 41.5395 14.6773 41.5395 14.6818Z" fill="#C5CFD6"/>
  <path fill-rule="evenodd" clip-rule="evenodd" d="M41.5376 14.6858C41.5376 14.6864 41.5371 14.6875 41.5371 14.6887C41.5371 14.6858 41.5414 14.6773 41.5376 14.6858Z" fill="#C5CFD6"/>
  <path fill-rule="evenodd" clip-rule="evenodd" d="M41.5541 14.6436C41.5507 14.6536 41.5464 14.6631 41.5426 14.6731C41.5445 14.6681 41.5464 14.6641 41.5483 14.6591C41.4986 14.7895 41.5302 14.7048 41.5541 14.6436Z" fill="#C5CFD6"/>
  <path fill-rule="evenodd" clip-rule="evenodd" d="M41.5434 14.6736C41.5415 14.6781 41.5396 14.6831 41.5377 14.6876C41.5238 14.7157 41.5434 14.6736 41.5434 14.6736Z" fill="#C5CFD6"/>
  <path fill-rule="evenodd" clip-rule="evenodd" d="M41.5381 14.6865C41.5381 14.6855 41.5381 14.6855 41.539 14.6846C41.5381 14.6855 41.5381 14.6855 41.5381 14.6865Z" fill="#C5CFD6"/>
  <path fill-rule="evenodd" clip-rule="evenodd" d="M41.5355 14.6892C41.5326 14.6952 41.5489 14.6661 41.5355 14.6892V14.6892Z" fill="#C5CFD6"/>
  <path fill-rule="evenodd" clip-rule="evenodd" d="M41.5376 14.6865L41.5395 14.6846C41.5386 14.6855 41.5386 14.6865 41.5376 14.6865Z" fill="#C5CFD6"/>
  <path d="M51.807 1.78687H31.0304C30.5029 1.78687 30.0752 2.23108 30.0752 2.77904V16.4215C30.0752 16.9695 30.5029 17.4137 31.0304 17.4137H51.807C52.3346 17.4137 52.7623 16.9695 52.7623 16.4215V2.77904C52.7623 2.23108 52.3346 1.78687 51.807 1.78687Z" fill="#DDE3E9"/>
  <path fill-rule="evenodd" clip-rule="evenodd" d="M38.6721 6.25171L31.9854 17.4137H45.3588L38.6721 6.25171Z" fill="#AFB9C5"/>
  <path fill-rule="evenodd" clip-rule="evenodd" d="M45.2396 9.22827L39.3887 17.4137H51.0904L45.2396 9.22827Z" fill="#C5CFD6"/>
  <path fill-rule="evenodd" clip-rule="evenodd" d="M47.747 9.22823C48.9341 9.22823 49.8963 8.22886 49.8963 6.99583C49.8963 5.7628 48.9341 4.76343 47.747 4.76343C46.5598 4.76343 45.5977 5.7628 45.5977 6.99583C45.5977 8.22886 46.5598 9.22823 47.747 9.22823Z" fill="white"/>
  <path fill-rule="evenodd" clip-rule="evenodd" d="M155.45 120.597C155.451 120.599 155.452 120.602 155.454 120.605C155.452 120.602 155.45 120.592 155.45 120.597Z" fill="#C5CFD6"/>
  <path fill-rule="evenodd" clip-rule="evenodd" d="M155.452 120.601C155.452 120.602 155.453 120.603 155.453 120.604C155.453 120.601 155.448 120.593 155.452 120.601Z" fill="#C5CFD6"/>
  <path fill-rule="evenodd" clip-rule="evenodd" d="M155.436 120.559C155.439 120.569 155.443 120.578 155.447 120.588C155.445 120.583 155.443 120.579 155.441 120.574C155.491 120.705 155.459 120.62 155.436 120.559Z" fill="#C5CFD6"/>
  <path fill-rule="evenodd" clip-rule="evenodd" d="M155.446 120.589C155.448 120.593 155.45 120.598 155.452 120.603C155.466 120.631 155.446 120.589 155.446 120.589Z" fill="#C5CFD6"/>
  <path fill-rule="evenodd" clip-rule="evenodd" d="M155.452 120.602C155.452 120.601 155.452 120.601 155.451 120.6C155.452 120.601 155.452 120.601 155.452 120.602Z" fill="#C5CFD6"/>
  <path fill-rule="evenodd" clip-rule="evenodd" d="M155.454 120.605C155.441 120.581 155.457 120.611 155.454 120.605V120.605Z" fill="#C5CFD6"/>
  <path fill-rule="evenodd" clip-rule="evenodd" d="M155.453 120.602L155.451 120.6C155.452 120.601 155.452 120.602 155.453 120.602Z" fill="#C5CFD6"/>
  <path d="M139.451 101.501H171.452C171.98 101.501 172.407 101.945 172.407 102.493V123.825C172.407 124.373 171.98 124.817 171.452 124.817H139.451C138.924 124.817 138.496 124.373 138.496 123.825V102.493C138.496 101.945 138.924 101.501 139.451 101.501Z" fill="#DDE3E9"/>
  <path fill-rule="evenodd" clip-rule="evenodd" d="M159.816 108.198L169.62 124.817H150.011L159.816 108.198Z" fill="#AFB9C5"/>
  <path fill-rule="evenodd" clip-rule="evenodd" d="M149.707 112.65L158.374 124.817H141.039L149.707 112.65Z" fill="#C5CFD6"/>
  <path fill-rule="evenodd" clip-rule="evenodd" d="M146.019 112.663C144.238 112.663 142.795 111.164 142.795 109.314C142.795 107.465 144.238 105.966 146.019 105.966C147.799 105.966 149.243 107.465 149.243 109.314C149.243 111.164 147.799 112.663 146.019 112.663Z" fill="white"/>
  <path fill-rule="evenodd" clip-rule="evenodd" d="M54.9554 84.0348C56.6925 85.123 58.3993 85.6489 59.2005 85.4343C61.2096 84.8961 61.3944 77.2565 59.8398 74.2448C58.2854 71.2332 50.2938 69.9204 49.8909 75.8876C49.751 77.9585 50.5877 79.8069 51.8238 81.315L49.6074 92.0529H56.0458L54.9554 84.0348Z" fill="#B28B67"/>
  <path fill-rule="evenodd" clip-rule="evenodd" d="M47.0839 73.901C46.8759 73.687 46.7624 73.3811 46.6643 73.0909C46.5626 72.7893 46.4634 72.4847 46.3959 72.1707C46.2607 71.5436 46.2593 70.8223 46.6898 70.3354C47.0349 69.945 47.5529 69.7696 48.031 69.7316C48.3496 69.7063 48.6768 69.7525 48.982 69.8569C49.2848 69.9603 49.546 70.1667 49.8395 70.2947C49.8507 69.6188 49.9623 68.9116 50.2921 68.3347C50.6095 67.7793 51.1157 67.4677 51.692 67.3854C52.2835 67.3008 52.8679 67.4447 53.3973 67.7423C53.5299 67.8167 53.6615 67.8949 53.7871 67.9834C53.8924 68.0573 54.0018 68.1466 54.1252 68.1767C54.263 68.2101 54.3311 68.1275 54.4207 68.0231C54.5255 67.9008 54.6437 67.7929 54.7688 67.6974C55.3219 67.2748 56.0477 67.1011 56.6884 67.3544C56.9836 67.471 57.2709 67.6692 57.471 67.9423C57.6496 68.1858 57.7769 68.572 58.0234 68.7415C58.128 68.8136 58.2018 68.7181 58.297 68.6477C58.4401 68.5418 58.5765 68.4247 58.7212 68.3218C58.9244 68.1769 59.1446 68.0688 59.3803 68.012C59.7254 67.9291 60.2023 67.9485 60.3009 68.4183C60.3379 68.5946 60.3097 68.7834 60.2976 68.9612C60.2813 69.2053 60.2641 69.4494 60.2436 69.6932C60.2283 69.8782 60.2087 70.0571 60.1751 70.2389C60.1571 70.3356 60.101 70.5162 60.1409 70.6135C60.1911 70.7347 60.4215 70.6658 60.5199 70.67C60.7145 70.6782 60.9099 70.7137 61.0897 70.8C61.2292 70.8672 61.3758 70.9657 61.4345 71.1316C61.4708 71.2336 61.4613 71.3385 61.4441 71.4434C61.4236 71.5694 61.4472 71.6361 61.4625 71.7634C61.7237 71.6297 62.6291 71.3325 62.743 71.8192C62.781 71.9812 62.6945 72.1642 62.6286 72.3009C62.513 72.5408 62.3616 72.7598 62.2066 72.9689C61.8835 73.4047 61.4978 73.7807 61.0828 74.1022C61.569 74.3269 61.696 74.9897 61.2748 75.3846C61.089 75.559 60.8389 75.5979 60.6044 75.5867C60.5187 75.5825 60.395 75.5483 60.3274 75.5639C60.2911 75.5721 60.2522 75.6041 60.2018 75.6078C59.8708 75.6314 59.4973 75.5485 59.1737 75.4721C58.5975 75.3362 58.0515 75.0522 57.6059 74.6199C57.4915 74.509 57.3972 74.4452 57.2434 74.4467C57.1085 74.4482 56.9762 74.4867 56.8415 74.4901C56.4849 74.4996 56.1635 74.3185 55.8325 74.1979C55.8124 74.6628 55.6849 75.1747 55.502 75.5927C55.353 75.9338 55.0416 75.9834 54.7354 76.0131C53.7565 76.1089 52.7743 76.002 51.7944 76.0035C52.743 76.2265 53.7233 76.3182 54.6635 76.5804C55.0886 76.699 54.7641 76.9969 54.5823 77.2033C54.2831 77.5431 54.0605 77.9643 53.9063 78.4078C53.4422 77.779 52.6219 77.3647 51.8952 77.558C51.0923 77.7713 50.5268 78.8999 51.0403 79.7115C51.3383 80.1825 51.8766 80.3643 52.3246 80.5667C51.9752 80.9443 51.8907 81.5019 51.6803 81.9717C51.5766 82.2033 51.431 82.4653 51.1991 82.5461C51.1131 82.5759 51.0126 82.5786 50.9448 82.6513C50.8609 82.7413 50.8411 82.8421 50.7339 82.9194C50.3064 83.2283 49.6389 83.2044 49.2599 82.8014C48.9175 82.4367 49.0066 81.86 49.2926 81.4905C48.8372 81.293 48.0074 81.0393 48.1884 80.3018C47.2016 80.2336 44.8054 78.57 46.1298 77.3543C45.4029 76.9272 44.7352 75.8837 45.202 74.9637C45.5617 74.2552 46.3978 73.9387 47.0839 73.901Z" fill="#191847"/>
  <path fill-rule="evenodd" clip-rule="evenodd" d="M40.1166 127.186H60.8414L63.5569 161.761H32.7065L40.1166 127.186Z" fill="#C5CFD6"/>
  <path fill-rule="evenodd" clip-rule="evenodd" d="M40.1166 127.186H46.4907L50.3058 161.761H32.7065L40.1166 127.186Z" fill="black" fill-opacity="0.1"/>
  <path fill-rule="evenodd" clip-rule="evenodd" d="M72.2279 134.036C69.899 139.169 66.2598 151.631 66.2598 151.631L69.3493 153.099C69.3493 153.099 77.1883 139.999 81.9791 131.044C81.7558 133.06 81.5284 135.329 81.3178 137.715C80.8187 143.367 81.3175 155.578 81.586 159.106C81.7548 161.323 84.653 160.858 84.9234 159.1C84.9692 158.802 85.156 157.757 85.4347 156.197C86.8009 148.548 90.3769 128.529 90.3831 123.627C90.3857 121.655 86.6784 119.883 84.4687 121.262C82.951 119.579 80.0784 118.609 78.4282 121.389C77.3791 123.157 74.8864 128.176 72.2279 134.036Z" fill="#B28B67"/>
  <path fill-rule="evenodd" clip-rule="evenodd" d="M66.481 147.018L77.0849 120.908C79.6251 116.661 86.7475 121.773 85.8811 124.236C83.9144 129.829 73.9118 147.935 73.326 149.601L66.481 147.018Z" fill="#171C51"/>
  <path fill-rule="evenodd" clip-rule="evenodd" d="M66.648 150.048C66.484 149.813 66.1637 149.757 65.949 149.943C65.5101 150.324 64.8393 150.945 64.6029 151.37C64.2401 152.023 63.7534 153.402 63.7534 153.402C64.4825 153.839 76.857 161.265 76.857 161.265C76.857 161.265 78.3427 159.817 77.3198 159.016C76.2972 158.216 75.6319 157.666 75.6319 157.666L71.0914 151.164C71.0123 151.051 70.859 151.028 70.7523 151.113L69.7887 151.884C69.7887 151.884 68.4955 151.767 67.8586 151.385C67.4548 151.143 66.9578 150.492 66.648 150.048Z" fill="#E4E4E4"/>
  <path fill-rule="evenodd" clip-rule="evenodd" d="M81.5928 157.352C81.3375 157.233 81.0333 157.352 80.9371 157.624C80.74 158.183 80.4575 159.069 80.4575 159.56C80.4575 160.314 80.6992 161.761 80.6992 161.761C81.541 161.761 95.8298 161.761 95.8298 161.761C95.8298 161.761 96.4197 159.734 95.149 159.573C93.8783 159.411 93.0379 159.281 93.0379 159.281L85.9777 156.009C85.8547 155.952 85.7109 156.012 85.6596 156.141L85.196 157.31C85.196 157.31 84.0196 157.881 83.2841 157.881C82.8179 157.881 82.0748 157.576 81.5928 157.352Z" fill="#E4E4E4"/>
  <path fill-rule="evenodd" clip-rule="evenodd" d="M91.1266 125.633C91.1266 133.041 87.7422 150.32 87.7401 151.952L80.4577 151.957C80.4577 151.957 82.0566 128.83 81.5916 128.581C81.1266 128.332 62.5311 130.511 56.9541 130.511C48.9119 130.511 45.585 125.239 45.3149 115.475H61.2463C64.4901 115.835 81.4099 119.383 87.6935 120.602C90.3835 121.124 91.1266 123.593 91.1266 125.633Z" fill="#171C51"/>
  <path fill-rule="evenodd" clip-rule="evenodd" d="M69.3862 118.894C64.2914 129.923 42.8447 122.476 42.8447 122.476C42.8447 120.565 43.5741 118.649 44.3399 116.637C45.161 114.48 46.0245 112.211 46.0761 109.72C46.1711 105.136 46.9957 91.2477 50.437 86.5562C50.4998 86.3443 50.5634 86.1318 50.6278 85.9185L50.8662 86.035C50.9032 85.9951 50.9407 85.9564 50.9784 85.9185L58.4874 87.1252C58.4874 90.6554 60.6608 94.0027 62.6174 97.0162C63.0933 97.7492 63.5566 98.4626 63.9726 99.1541C64.5174 100.06 65.1323 100.982 65.7623 101.927C68.953 106.711 72.5343 112.08 69.3862 118.894Z" fill="#378375"/>
  <path fill-rule="evenodd" clip-rule="evenodd" d="M59.7646 116.81C60.2669 114.116 60.5926 112.318 60.7421 111.415C64.7424 116.114 67.0534 118.49 67.675 118.544C68.8445 118.647 69.7083 117.569 69.9545 117.872C70.361 119.127 69.2125 122.268 67.0174 122.724C65.9692 122.943 64.347 120.696 63.6785 119.9C63.4158 119.586 62.1112 118.557 59.7646 116.81ZM66.6749 102.448C67.7118 102.448 68.2687 102.894 68.882 103.793C69.495 104.692 70.0753 108.932 69.091 108.932C68.1066 108.932 63.9821 107.293 63.9821 106.191C63.9821 105.089 66.7962 104.623 66.7962 103.793C66.7962 102.963 65.6377 102.448 66.6749 102.448Z" fill="#B28B67"/>
  <path fill-rule="evenodd" clip-rule="evenodd" d="M49.2223 91.1379C46.5885 102.551 47.6615 112.177 57.6708 120.909C57.553 121.347 57.4826 121.609 57.4826 121.609C45.7338 113.074 45.728 102.731 49.2223 91.1379Z" fill="black" fill-opacity="0.2"/>
  <path fill-rule="evenodd" clip-rule="evenodd" d="M130.573 66.4397C128.833 67.5289 127.124 68.055 126.321 67.8402C124.309 67.3017 124.124 59.6562 125.681 56.6422C127.238 53.628 135.242 52.3143 135.645 58.2862C135.785 60.3586 134.947 62.2086 133.709 63.7177L135.929 74.464H129.481L130.573 66.4397Z" fill="#B28B67"/>
  <path fill-rule="evenodd" clip-rule="evenodd" d="M129.356 53.1684C130.206 53.0235 132.494 52.9241 132.916 52.9241C133.186 52.9241 133.478 52.9881 133.638 52.7311C133.768 52.5202 133.721 52.1643 133.76 51.9197C133.805 51.636 133.869 51.3557 133.934 51.0761C134.12 50.2806 134.4 49.5239 134.792 48.8135C135.528 47.4805 136.605 46.4362 137.966 45.8287C139.469 45.1578 141.169 45.0042 142.785 45.1402C144.514 45.2858 146.08 45.8788 147.713 46.4369C149.269 46.9688 150.899 47.1779 152.526 46.9184C154.166 46.6567 155.405 45.7335 156.788 44.8574C158.204 43.9605 159.822 43.3738 161.496 43.5088C163.058 43.6345 164.498 44.3048 165.79 45.1999C167 46.0373 167.996 47.0452 168.56 48.4632C169.166 49.9887 169.164 51.6632 168.168 53.0116C166.726 54.9657 164.044 55.4712 161.814 55.4209C160.524 55.3919 159.257 55.1473 158.039 54.7025C156.415 54.109 155.011 53.1034 153.492 52.2873C152.779 51.9043 152.042 51.5898 151.269 51.3634C150.519 51.1436 149.781 51.0426 149.102 51.5129C148.384 52.0108 147.741 52.4997 146.919 52.8112C146.131 53.1098 145.296 53.277 144.457 53.2703C142.823 53.2572 141.213 52.7286 139.626 52.3744C138.332 52.0857 136.948 51.7979 135.628 52.0755C135.078 52.1913 134.274 52.4304 134.075 53.0248C137.421 53.6545 138.735 57.9527 137.792 61.1078C137.283 62.8109 134.223 64.8017 133.033 63.9065C132.279 63.3392 132.737 62.5946 133.033 62.103C133.6 61.1616 133.794 59.9524 132.745 59.2971C131.839 58.7318 130.887 60.0742 130.869 60.0727C130.621 60.0524 128.47 58.7893 126.989 56.9464C125.528 57.0364 125.306 56.0355 125.655 55.217C126.004 54.3987 128.182 53.3686 129.356 53.1684Z" fill="#191847"/>
  <path fill-rule="evenodd" clip-rule="evenodd" d="M140.219 98.0283L130.124 132.374L125.234 161.583H121.399L126.567 98.0283H140.219Z" fill="#997659"/>
  <path fill-rule="evenodd" clip-rule="evenodd" d="M143.831 98.0283C143.145 116.886 143.952 126.613 144.105 128.326C144.259 130.04 146.36 141.149 151.335 162.158L147.249 160.698C139.387 141.429 136.708 131.415 135.806 128.885C134.904 126.355 132.509 116.069 128.621 98.0283H143.831Z" fill="#B28B67"/>
  <path fill-rule="evenodd" clip-rule="evenodd" d="M150.618 160.338C150.874 160.219 151.178 160.337 151.275 160.611C151.472 161.169 151.754 162.056 151.754 162.548C151.754 163.303 151.512 164.752 151.512 164.752C150.671 164.752 136.382 164.752 136.382 164.752C136.382 164.752 135.792 162.723 137.063 162.561C138.333 162.399 139.174 162.269 139.174 162.269L146.234 158.994C146.357 158.937 146.501 158.996 146.552 159.126L147.016 160.296C147.016 160.296 148.192 160.867 148.927 160.867C149.394 160.867 150.137 160.562 150.618 160.338Z" fill="#E4E4E4"/>
  <path fill-rule="evenodd" clip-rule="evenodd" d="M125.402 160.338C125.657 160.219 125.962 160.337 126.058 160.611C126.255 161.169 126.537 162.056 126.537 162.548C126.537 163.303 126.296 164.752 126.296 164.752C125.454 164.752 111.165 164.752 111.165 164.752C111.165 164.752 110.575 162.723 111.846 162.561C113.117 162.399 113.957 162.269 113.957 162.269L121.017 158.994C121.14 158.937 121.284 158.996 121.335 159.126L121.799 160.296C121.799 160.296 122.975 160.867 123.711 160.867C124.177 160.867 124.92 160.562 125.402 160.338Z" fill="#E4E4E4"/>
  <path fill-rule="evenodd" clip-rule="evenodd" d="M141.56 98.0283L137.268 115.527H124.158L126.112 98.0283H141.56Z" fill="#69A1AC"/>
  <path fill-rule="evenodd" clip-rule="evenodd" d="M143.974 98.0283C146.093 104.637 144.779 115.527 144.779 115.527H131.401L127.722 98.0283H143.974Z" fill="#89C5CC"/>
  <path fill-rule="evenodd" clip-rule="evenodd" d="M158.572 106.83C157.571 105.304 150.82 84.7666 150.82 84.7666L144.997 85.6397C144.997 85.6397 154.678 107.025 155.231 108.02C155.95 109.312 155.313 111.435 154.882 112.874C154.815 113.097 154.753 113.303 154.702 113.487C155.608 113.758 155.952 113.221 156.315 112.654C156.726 112.014 157.16 111.336 158.453 111.745C158.953 111.903 159.433 112.105 159.902 112.303C161.522 112.987 163.01 113.616 164.72 112.145C164.991 111.912 165.22 111.15 164.358 110.706C162.213 109.6 159.062 107.576 158.572 106.83ZM108.394 105.769L114.899 97.0456L118.01 101.171L110.821 107.105C109.291 110.602 108.324 112.157 107.922 111.771C107.583 111.446 107.661 111.023 107.733 110.634C107.789 110.332 107.841 110.049 107.69 109.848C107.344 109.389 105.809 109.904 104.372 110.459C102.936 111.013 103.177 110.208 103.439 109.768C104.681 108.392 106.333 107.058 108.394 105.769Z" fill="#B28B67"/>
  <path fill-rule="evenodd" clip-rule="evenodd" d="M130.749 70.2236L128.393 70.1501C126.567 83.9615 109.171 95.7335 108.7 100.866C108.527 102.748 109.916 103.484 109.338 104.134L112.635 105.967C113.059 105.28 114.291 106.243 116.442 105.13C118.592 104.016 132.877 85.9508 130.749 70.2236Z" fill="#F47458"/>
  <path fill-rule="evenodd" clip-rule="evenodd" d="M134.582 66.8273C135.098 66.7134 135.606 67.0557 135.715 67.5917L136.067 69.3109C140.865 72.1334 152.992 80.8894 158.388 99.6974C158.955 101.673 158.57 102.832 158.263 103.758C158.052 104.391 157.878 104.916 158.07 105.518L154.308 107.209C154.246 106.753 153.706 106.477 153.009 106.123C151.996 105.606 150.651 104.921 149.964 103.265C149.312 101.695 148.406 99.7475 147.347 97.5885C147.682 100.604 147.506 103.447 146.619 105.911C144.404 112.057 126.295 108.314 123.704 102.753C122.321 99.7845 123.333 96.9754 124.672 93.2604C126.372 88.5443 128.597 82.3685 127.118 72.5541L126.518 69.621C126.408 69.0852 126.737 68.5584 127.253 68.4445L134.582 66.8273Z" fill="#FE875E"/>
</svg>