<svg xmlns="http://www.w3.org/2000/svg" width="201" height="170" viewBox="0 0 201 170" fill="none">
  <path fill-rule="evenodd" clip-rule="evenodd" d="M197.316 43.618C197.161 43.501 196.793 43.4596 196.622 43.4243C195.911 43.2789 195.179 43.2156 194.455 43.2156C192.22 43.2192 189.949 43.447 187.752 43.8413C186.357 44.0914 184.67 44.9339 183.282 44.4763C180.865 43.6793 178.421 43.7185 176.127 44.8564C174.03 45.8969 172.438 47.8732 171.509 50.0085C171.368 50.331 170.8 51.5175 170.639 52.3172C170.57 52.4807 170.504 52.6452 170.444 52.8123C170.275 53.2868 170.123 53.7695 169.982 54.2534C169.922 54.4598 169.771 54.9153 169.95 55.0034C169.663 55.5546 169.408 56.1223 169.196 56.7085C168.579 58.4136 167.904 60.284 167.687 62.091C167.607 62.7602 167.604 63.4332 167.678 64.1035C167.715 64.4351 167.7 65.1012 167.916 65.3534C168.375 65.888 168.611 65.1395 168.559 64.7829C168.164 62.066 168.927 59.5144 169.831 56.9604C170.416 55.309 171.377 53.7979 172.454 52.4298C173.325 51.322 174.259 50.4498 175.453 49.7156C176.913 48.8175 178.475 48.0916 180.021 47.3634C181.039 46.8843 182.057 46.4179 183.103 46.0052C183.336 45.9132 183.701 45.6776 183.959 45.6767C184.504 45.6749 185.277 46.0927 185.804 46.2481C187.536 46.7597 189.29 47.4146 191.081 47.6759C192.229 47.8436 193.305 47.6548 194.379 47.2575C194.489 47.217 194.673 47.1127 194.898 46.9636C195.695 46.6451 196.45 46.2441 197.106 45.6655C197.485 45.3325 197.828 44.9017 198.141 44.5074C198.235 44.3897 198.276 44.2546 198.278 44.126C198.349 44.0877 198.396 44.0425 198.406 43.99C198.485 43.602 197.772 43.5951 197.316 43.618Z" fill="#89C5CC"/>
  <path fill-rule="evenodd" clip-rule="evenodd" d="M15.7989 75.9601C15.3606 76.3288 14.9306 76.7053 14.5111 77.0972C14.1914 77.3958 13.6257 77.7533 13.5109 78.2058C13.3916 78.6762 13.7683 79.1163 14.0658 79.4005C15.6392 80.9041 17.4108 81.9204 19.591 82.0897C22.948 82.35 25.8695 81.4595 28.7822 79.7076C30.8281 78.4768 32.1834 76.6564 32.4793 74.1983C34.9159 75.25 37.2723 76.6999 39.275 78.4792C40.2631 79.3571 41.1141 80.3297 41.9012 81.4079C42.4055 82.0987 42.8931 82.8004 43.3456 83.5293C43.5423 83.8457 43.7424 84.4075 44.0671 84.5897C44.4485 84.8039 44.9094 84.4681 44.8905 84.028C44.8746 83.6614 44.4938 83.2363 44.3154 82.9368C44.0198 82.4393 43.7194 81.9449 43.4031 81.4613C42.8914 80.6778 42.3625 79.9058 41.7856 79.1727C40.4891 77.5256 38.8396 76.1653 37.1297 75.005C33.8494 72.7792 30.2493 71.377 26.2579 71.2582C23.8037 71.1852 21.739 72.0561 19.6403 73.3567C18.3335 74.1664 16.9847 74.9628 15.7989 75.9601Z" fill="#DDE3E9"/>
  <path fill-rule="evenodd" clip-rule="evenodd" d="M47.6349 65.1945C45.0772 62.4589 42.5108 59.7574 39.6534 57.3482C37.9693 55.9288 36.1947 54.6379 34.4567 53.2921C34.6571 53.4746 34.8537 53.6622 35.0457 53.8547C34.5031 53.4722 33.793 53.2559 33.2179 52.9017C32.5763 52.5068 31.9629 52.0549 31.3613 51.5997C30.187 50.7109 29.0305 49.8053 27.8234 48.963C26.4786 48.0245 25.0849 47.1574 23.7172 46.2542C22.5564 45.4879 21.3815 44.649 20.1397 44.0224C19.4629 43.6809 18.7845 43.2763 18.1049 42.9201C17.8774 42.8009 15.5696 41.2874 15.5754 41.2825C15.703 41.183 16.8644 41.7495 17.0439 41.8259C17.5686 42.0485 18.0703 42.3146 18.5747 42.5801C18.2978 42.0129 18.0787 41.4168 17.9594 40.7896C17.9226 40.5959 17.6273 39.1865 17.7784 39.0682C17.8538 39.0091 18.5901 41.5311 18.6278 41.7734C18.6585 41.9704 18.654 42.2539 18.716 42.4404C18.8162 42.7418 18.8112 42.6507 19.032 42.8205C19.4365 43.1315 19.9736 43.3258 20.4115 43.5856C20.6477 43.7225 21.3788 44.2655 21.8191 44.4203C23.1516 45.0924 24.5021 46.1266 25.7681 46.9852C25.4359 46.3366 25.183 45.6584 24.9987 44.9476C24.9548 44.779 24.4816 43.2655 24.5964 43.1756C24.7256 43.0742 25.6272 45.3863 25.6806 45.605C25.7798 46.0117 25.8004 46.4639 25.9247 46.8597C26.0609 47.2938 26.4864 47.4477 26.8698 47.7008C28.2805 48.6317 29.643 49.6209 30.9826 50.6557C32.4444 47.9554 30.7589 44.6948 29.3386 42.4292C28.3145 40.7962 26.9363 39.3964 25.4808 38.1743C23.5385 36.5432 21.3161 35.2402 19.0965 34.0483C16.5103 32.6596 13.715 31.7989 10.8089 31.4016C9.289 31.1935 7.73405 31.1995 6.19876 31.2662C5.44879 31.2985 4.72891 31.4016 4.01019 31.656C3.68625 31.7706 3.37318 31.9151 3.06809 32.0768C2.83628 32.1996 2.27554 32.3293 2.14225 32.5124C1.04514 33.9958 0.483872 35.4737 0.569584 37.3375C0.650619 39.1017 1.18708 40.8668 1.91512 42.4407C2.72591 44.1928 3.76868 45.7833 5.13249 47.1182C6.173 48.1367 7.33627 49.023 8.49189 49.8979C12.6021 53.0091 17.8131 55.7152 23.1365 55.0198C24.8597 54.795 26.4986 54.1691 28.0302 53.3183C28.3912 53.118 28.7499 52.9153 29.0906 52.6788C29.3203 52.5192 29.9344 51.8003 30.1653 51.774C30.4821 51.7384 31.1641 52.4073 31.4612 52.6109C33.7192 54.1591 35.9179 55.7912 38.0704 57.489C40.3609 59.2955 42.5387 61.225 44.6526 63.2451C45.5515 64.1043 46.445 64.9656 47.3178 65.8537C47.5211 66.0604 48.018 66.8212 48.3866 66.8556C48.6196 66.8776 48.7767 66.6707 48.7436 66.4468C48.6858 66.0573 47.8969 65.4748 47.6349 65.1945Z" fill="#C1DEE2"/>
  <path fill-rule="evenodd" clip-rule="evenodd" d="M194.631 54.577C193.64 54.3522 192.546 54.3694 191.537 54.3878C186.125 54.4645 180.81 57.1259 177.351 61.3783C174.407 64.9985 173.597 69.4995 173.015 74.0495C172.958 74.5011 172.933 74.95 172.901 75.4028C172.894 75.4999 172.883 75.5865 172.872 75.6683C172.643 75.8807 172.523 76.1283 172.659 76.4005C172.155 77.5459 171.728 78.7204 171.362 79.9319C170.286 83.4978 169.191 87.1315 169.865 90.8811C170.023 88.8176 170.355 86.7076 170.751 84.6779C170.774 84.5615 170.798 84.4459 170.824 84.3307C170.827 84.3186 170.829 84.3063 170.832 84.2942C170.972 83.6727 171.154 83.07 171.376 82.4766C171.379 82.4699 171.381 82.4636 171.383 82.4573C171.413 82.3791 171.444 82.3013 171.475 82.2238C171.538 82.063 171.603 81.9025 171.673 81.7429C171.696 81.6883 171.718 81.6334 171.74 81.5782C172.063 80.7558 172.199 79.829 172.489 78.9783C172.558 78.7849 172.63 78.5922 172.706 78.4003C172.711 78.3891 172.715 78.378 172.72 78.3668C172.925 77.8506 173.151 77.3411 173.391 76.8367C173.521 76.735 173.59 76.4831 173.703 76.2541C173.726 76.2089 173.907 75.9081 173.961 75.7347C174.102 75.4514 174.243 75.1681 174.385 74.8851C174.381 74.8869 174.376 74.8884 174.372 74.8902C174.514 74.6184 174.657 74.3481 174.798 74.0787C174.829 74.0196 174.861 73.9605 174.892 73.901C174.943 73.8066 174.994 73.7122 175.044 73.6181C175.518 72.7369 176.021 71.8735 176.543 71.0206C176.729 70.7162 177.174 70.2797 177.26 69.9382C177.263 69.9252 177.263 69.9135 177.265 69.9014C178.398 68.2488 179.702 66.7247 181.266 65.5171C181.077 65.7295 180.675 66.4496 180.569 66.5923C180.244 67.0288 179.891 67.4352 179.537 67.8466C178.902 68.5836 178.283 69.3439 177.733 70.1479C176.726 71.6182 175.858 73.1656 175.037 74.7442C175.029 74.7533 175.02 74.762 175.013 74.7717C174.6 75.2999 174.341 76.0982 174.044 76.7024C175.219 76.1371 176.519 75.7687 177.725 75.2667C178.928 74.7663 180.098 74.2088 181.228 73.5544C182.729 72.6844 184.287 71.7024 185.705 70.591C187.331 69.5436 188.697 68.1019 189.903 66.5889C191.33 64.7988 192.637 62.9932 193.446 60.8196C193.843 59.7517 194.156 58.6379 194.341 57.5111C194.349 57.4622 194.359 57.4088 194.371 57.3536C194.56 56.9645 194.73 56.5666 194.872 56.1596C195.098 55.514 195.631 54.8038 194.631 54.577Z" fill="#69A1AC"/>
  <path fill-rule="evenodd" clip-rule="evenodd" d="M26.7589 62.1398C26.4487 61.7907 26.1002 61.4758 25.6909 61.251C25.5874 61.1943 24.8167 60.8142 24.7665 60.8974C24.6495 61.0917 26.6657 62.0281 26.7589 62.1398ZM30.4134 59.8081C30.4108 59.8229 30.678 60.2938 30.7509 60.4386C30.9057 60.7466 31.0486 61.0604 31.1831 61.375C30.9841 60.8196 30.7793 60.3043 30.4134 59.8081ZM11.7244 63.6421C11.467 63.7281 11.1576 63.3887 11.4914 63.3051C11.7616 63.2382 11.7483 63.2225 11.8696 62.9962C11.9681 62.8128 12.0288 62.589 12.1152 62.3965C12.2986 61.988 12.5065 61.5982 12.7618 61.2332C13.3089 60.4507 13.9754 59.7764 14.7231 59.208C16.0278 58.2167 17.4907 57.3102 19.0425 56.8549C21.5099 56.1309 24.3182 56.0863 26.7894 56.5883C28.3201 56.899 29.7186 57.4396 30.7349 58.7196C31.2429 59.3592 31.6417 60.1086 31.816 60.9336C31.8616 61.1493 31.8528 61.3892 31.9098 61.6004C31.9975 61.9253 31.9589 61.8387 32.3245 61.9017C32.7236 61.9708 33.1224 62.0411 33.5212 62.1129C34.5654 62.3006 35.6156 62.4997 36.6331 62.8041C36.968 62.9042 37.2953 63.0267 37.6154 63.1688C37.8573 63.2762 38.8207 63.6138 38.9378 63.9402C39.1327 64.4835 38.4797 64.2373 38.2767 64.1188C38.099 64.0153 37.9166 63.9185 37.7315 63.8295C37.2654 63.6056 36.7797 63.4322 36.2831 63.2943C35.7463 63.1453 35.1988 63.0339 34.6531 62.9223C34.1445 62.8185 33.6339 62.7241 33.1224 62.6336C32.8383 62.5835 32.5543 62.5347 32.2699 62.4861C32.1726 62.4692 32.0016 62.382 32.0143 62.5132C31.4166 62.3935 30.7703 62.4107 30.1616 62.3778C29.416 62.3374 28.6675 62.3042 27.9193 62.3283C27.3796 62.3458 26.8397 62.3826 26.3026 62.458C25.989 62.5021 25.6803 62.5663 25.3725 62.6478C25.2034 62.6927 24.5367 62.7878 24.4446 62.9407C24.4842 62.875 25.22 62.9389 25.3136 62.935C25.6882 62.9205 26.0598 62.8819 26.4331 62.8387C27.1258 62.7582 27.8185 62.7163 28.5133 62.7223C28.5106 62.849 28.0361 63.0747 27.9202 63.1585C27.6605 63.3471 27.4116 63.5522 27.1795 63.7776C26.7709 64.1743 26.2812 64.6657 25.9985 65.136C26.0819 64.9973 26.4929 64.8172 26.6387 64.7113C26.8725 64.5417 27.1017 64.3607 27.3184 64.1673C27.5182 63.9888 27.7049 63.7957 27.8885 63.5987C28.0721 63.4017 28.321 62.9917 28.5623 62.8605C28.5769 62.8523 28.682 62.9386 28.7416 62.9093C28.802 62.8798 28.8769 62.732 28.892 62.7259C29.1165 62.636 29.5429 62.7479 29.779 62.7594C30.391 62.7887 31.0027 62.827 31.6141 62.862C31.8038 62.8728 31.9647 62.8279 32.0364 62.973C32.1125 63.1281 31.9728 63.535 31.933 63.7037C31.7855 64.3299 31.5238 64.8914 31.1113 65.3768C30.3393 66.2857 29.3869 66.8915 28.3114 67.297C24.1916 68.8494 19.8086 69.4712 15.6899 67.8563C13.9849 67.1875 11.417 65.9928 11.7244 63.6421Z" fill="#89C5CC"/>
  <g opacity="0.6">
    <path fill-rule="evenodd" clip-rule="evenodd" d="M200.361 136.782C203.164 156.489 135.192 169.343 76.6871 160.372C18.1819 151.402 -8.65747 116.371 19.2602 97.7049C47.178 79.0388 197.559 117.075 200.361 136.782Z" fill="#DDE3E9"/>
  </g>
  <path d="M80.7802 7.61768H39.246C37.9627 7.61768 36.9224 8.69821 36.9224 10.0311V96.3114C36.9224 97.6443 37.9627 98.7248 39.246 98.7248H80.7802C82.0635 98.7248 83.1038 97.6443 83.1038 96.3114V10.0311C83.1038 8.69821 82.0635 7.61768 80.7802 7.61768Z" fill="#F2F2F2"/>
  <path fill-rule="evenodd" clip-rule="evenodd" d="M59.868 92.9928C62.2741 92.9928 64.2247 90.9667 64.2247 88.4676C64.2247 85.9685 62.2741 83.9424 59.868 83.9424C57.4619 83.9424 55.5112 85.9685 55.5112 88.4676C55.5112 90.9667 57.4619 92.9928 59.868 92.9928Z" fill="white"/>
  <path fill-rule="evenodd" clip-rule="evenodd" d="M56.0925 13.6513C56.4136 13.6513 56.6737 13.3812 56.6737 13.0479C56.6737 12.7147 56.4136 12.4446 56.0925 12.4446C55.7713 12.4446 55.5112 12.7147 55.5112 13.0479C55.5112 13.3812 55.7713 13.6513 56.0925 13.6513Z" fill="white"/>
  <path d="M63.6438 12.4446H58.7061C58.3853 12.4446 58.1252 12.7147 58.1252 13.0479C58.1252 13.3812 58.3853 13.6513 58.7061 13.6513H63.6438C63.9646 13.6513 64.2247 13.3812 64.2247 13.0479C64.2247 12.7147 63.9646 12.4446 63.6438 12.4446Z" fill="white"/>
  <path d="M77.8759 16.0647H42.1506C41.5089 16.0647 40.9888 16.605 40.9888 17.2714V31.1487C40.9888 31.8151 41.5089 32.3554 42.1506 32.3554H77.8759C78.5175 32.3554 79.0377 31.8151 79.0377 31.1487V17.2714C79.0377 16.605 78.5175 16.0647 77.8759 16.0647Z" fill="white"/>
  <path d="M72.6479 20.9519H53.1878C52.7065 20.9519 52.3164 21.3571 52.3164 21.8569V22.4905C52.3164 22.9903 52.7065 23.3955 53.1878 23.3955H72.6479C73.1291 23.3955 73.5192 22.9903 73.5192 22.4905V21.8569C73.5192 21.3571 73.1291 20.9519 72.6479 20.9519Z" fill="#DDE3E9"/>
  <path d="M65.6771 25.0247H53.1878C52.7065 25.0247 52.3164 25.4299 52.3164 25.9297V26.5632C52.3164 27.0631 52.7065 27.4683 53.1878 27.4683H65.6771C66.1583 27.4683 66.5484 27.0631 66.5484 26.5632V25.9297C66.5484 25.4299 66.1583 25.0247 65.6771 25.0247Z" fill="#DDE3E9"/>
  <path fill-rule="evenodd" clip-rule="evenodd" d="M47.0882 27.8301C49.013 27.8301 50.5736 26.2092 50.5736 24.21C50.5736 22.2108 49.013 20.5898 47.0882 20.5898C45.1634 20.5898 43.6028 22.2108 43.6028 24.21C43.6028 26.2092 45.1634 27.8301 47.0882 27.8301Z" fill="#C5CFD6"/>
  <path d="M77.8759 34.7688H42.1506C41.5089 34.7688 40.9888 35.3091 40.9888 35.9755V46.2326C40.9888 46.8991 41.5089 47.4393 42.1506 47.4393H77.8759C78.5175 47.4393 79.0377 46.8991 79.0377 46.2326V35.9755C79.0377 35.3091 78.5175 34.7688 77.8759 34.7688Z" fill="white"/>
  <path d="M72.6479 38.5698H53.1878C52.7065 38.5698 52.3164 38.975 52.3164 39.4749V39.5654C52.3164 40.0652 52.7065 40.4704 53.1878 40.4704H72.6479C73.1291 40.4704 73.5192 40.0652 73.5192 39.5654V39.4749C73.5192 38.975 73.1291 38.5698 72.6479 38.5698Z" fill="#DDE3E9"/>
  <path d="M65.6771 41.7375H53.1878C52.7065 41.7375 52.3164 42.1427 52.3164 42.6426V42.7331C52.3164 43.2329 52.7065 43.6381 53.1878 43.6381H65.6771C66.1583 43.6381 66.5484 43.2329 66.5484 42.7331V42.6426C66.5484 42.1427 66.1583 41.7375 65.6771 41.7375Z" fill="#DDE3E9"/>
  <path fill-rule="evenodd" clip-rule="evenodd" d="M47.0882 44.7242C49.013 44.7242 50.5736 43.1033 50.5736 41.104C50.5736 39.1048 49.013 37.4839 47.0882 37.4839C45.1634 37.4839 43.6028 39.1048 43.6028 41.104C43.6028 43.1033 45.1634 44.7242 47.0882 44.7242Z" fill="#C5CFD6"/>
  <path d="M77.8759 49.8528H42.1506C41.5089 49.8528 40.9888 50.393 40.9888 51.0595V61.3166C40.9888 61.983 41.5089 62.5233 42.1506 62.5233H77.8759C78.5175 62.5233 79.0377 61.983 79.0377 61.3166V51.0595C79.0377 50.393 78.5175 49.8528 77.8759 49.8528Z" fill="white"/>
  <path d="M72.6479 53.6538H53.1878C52.7065 53.6538 52.3164 54.059 52.3164 54.5588V54.6493C52.3164 55.1492 52.7065 55.5544 53.1878 55.5544H72.6479C73.1291 55.5544 73.5192 55.1492 73.5192 54.6493V54.5588C73.5192 54.059 73.1291 53.6538 72.6479 53.6538Z" fill="#DDE3E9"/>
  <path d="M65.6771 56.8215H53.1878C52.7065 56.8215 52.3164 57.2267 52.3164 57.7266V57.8171C52.3164 58.3169 52.7065 58.7221 53.1878 58.7221H65.6771C66.1583 58.7221 66.5484 58.3169 66.5484 57.8171V57.7266C66.5484 57.2267 66.1583 56.8215 65.6771 56.8215Z" fill="#DDE3E9"/>
  <path fill-rule="evenodd" clip-rule="evenodd" d="M47.0882 59.8082C49.013 59.8082 50.5736 58.1872 50.5736 56.188C50.5736 54.1888 49.013 52.5679 47.0882 52.5679C45.1634 52.5679 43.6028 54.1888 43.6028 56.188C43.6028 58.1872 45.1634 59.8082 47.0882 59.8082Z" fill="#AFB9C5"/>
  <path d="M77.8759 64.9368H42.1506C41.5089 64.9368 40.9888 65.477 40.9888 66.1435V76.4006C40.9888 77.067 41.5089 77.6073 42.1506 77.6073H77.8759C78.5175 77.6073 79.0377 77.067 79.0377 76.4006V66.1435C79.0377 65.477 78.5175 64.9368 77.8759 64.9368Z" fill="white"/>
  <path d="M72.6479 68.7378H53.1878C52.7065 68.7378 52.3164 69.143 52.3164 69.6428V69.7333C52.3164 70.2332 52.7065 70.6384 53.1878 70.6384H72.6479C73.1291 70.6384 73.5192 70.2332 73.5192 69.7333V69.6428C73.5192 69.143 73.1291 68.7378 72.6479 68.7378Z" fill="#DDE3E9"/>
  <path d="M65.6771 71.9053H53.1878C52.7065 71.9053 52.3164 72.3105 52.3164 72.8103V72.9008C52.3164 73.4006 52.7065 73.8058 53.1878 73.8058H65.6771C66.1583 73.8058 66.5484 73.4006 66.5484 72.9008V72.8103C66.5484 72.3105 66.1583 71.9053 65.6771 71.9053Z" fill="#DDE3E9"/>
  <path fill-rule="evenodd" clip-rule="evenodd" d="M47.0882 74.8922C49.013 74.8922 50.5736 73.2712 50.5736 71.272C50.5736 69.2728 49.013 67.6519 47.0882 67.6519C45.1634 67.6519 43.6028 69.2728 43.6028 71.272C43.6028 73.2712 45.1634 74.8922 47.0882 74.8922Z" fill="#C5CFD6"/>
  <path fill-rule="evenodd" clip-rule="evenodd" d="M45.6765 81.2273C45.2917 81.2273 44.908 81.2354 44.5237 81.256C44.2307 81.2719 43.7831 81.2089 43.5353 81.3986C43.2777 81.5956 43.2954 81.9987 43.3358 82.2835C43.5484 83.7895 44.0674 85.1247 45.1534 86.1917C46.8255 87.8344 48.7422 88.6691 51.0103 89.0408C52.6037 89.302 54.0746 88.9394 55.2474 87.7626C56.1045 89.4146 56.7545 91.2427 57.0807 93.0878C57.2416 93.9983 57.2907 94.8979 57.2625 95.8249C57.2442 96.4187 57.2129 97.0111 57.1516 97.6021C57.1249 97.8589 56.9988 98.2474 57.0955 98.4903C57.2091 98.7751 57.5922 98.8028 57.7641 98.5597C57.9073 98.3575 57.8812 97.9602 57.9105 97.721C57.9593 97.3234 58.0043 96.9255 58.0366 96.5261C58.0892 95.8796 58.1278 95.2312 58.1252 94.582C58.1185 93.124 57.8063 91.6603 57.3793 90.2762C56.5602 87.6205 55.2314 85.2604 53.1646 83.4087C51.8936 82.2702 50.439 81.8092 48.789 81.5616C47.7614 81.4074 46.7172 81.2273 45.6765 81.2273Z" fill="#89C5CC"/>
  <path fill-rule="evenodd" clip-rule="evenodd" d="M51.6107 91.7861C47.4575 91.7861 44.6605 95.2627 43.3381 98.8762C42.8394 100.238 42.7226 101.734 42.5303 103.164C42.4688 103.623 42.4917 104.322 42.3122 104.731C42.2472 104.879 42.0979 104.932 42.1693 105.135C42.2126 105.257 42.2971 105.332 42.4246 105.356C42.6857 105.406 43.0552 105.11 43.2791 104.994C45.1368 104.026 46.3573 102.53 47.353 100.699C47.9705 99.5646 48.5967 98.3866 48.9632 97.1409C49.1872 96.3798 49.3176 95.5785 49.3942 94.7891C49.4245 94.478 49.4535 94.1597 49.4518 93.8472C49.45 93.5368 49.3109 93.3727 49.211 93.1027C50.5967 92.5578 52.1611 92.4094 53.5648 92.9738C54.8631 93.4961 55.9416 94.5052 56.5454 95.7731C56.7022 96.1026 56.8234 96.4501 56.9114 96.8049C56.9692 97.0372 56.9718 97.3382 57.079 97.5482C57.338 98.0574 57.8835 97.7171 57.8312 97.2432C57.6851 95.9215 56.9573 94.5945 56.0267 93.6755C54.853 92.5165 53.2625 91.7861 51.6107 91.7861Z" fill="#89C5CC"/>
  <path d="M99.9499 15.4612H58.4156C57.1324 15.4612 56.092 16.5417 56.092 17.8746V104.155C56.092 105.488 57.1324 106.568 58.4156 106.568H99.9499C101.233 106.568 102.274 105.488 102.274 104.155V17.8746C102.274 16.5417 101.233 15.4612 99.9499 15.4612Z" fill="#DDE3E9"/>
  <path fill-rule="evenodd" clip-rule="evenodd" d="M79.0374 100.837C81.4435 100.837 83.3942 98.8104 83.3942 96.3113C83.3942 93.8122 81.4435 91.7861 79.0374 91.7861C76.6313 91.7861 74.6807 93.8122 74.6807 96.3113C74.6807 98.8104 76.6313 100.837 79.0374 100.837Z" fill="white"/>
  <path fill-rule="evenodd" clip-rule="evenodd" d="M75.2619 21.4948C75.583 21.4948 75.8431 21.2248 75.8431 20.8914C75.8431 20.5581 75.583 20.2881 75.2619 20.2881C74.9408 20.2881 74.6807 20.5581 74.6807 20.8914C74.6807 21.2248 74.9408 21.4948 75.2619 21.4948Z" fill="white"/>
  <path d="M82.8132 20.2881H77.8756C77.5548 20.2881 77.2947 20.5582 77.2947 20.8914C77.2947 21.2247 77.5548 21.4948 77.8756 21.4948H82.8132C83.134 21.4948 83.3941 21.2247 83.3941 20.8914C83.3941 20.5582 83.134 20.2881 82.8132 20.2881Z" fill="white"/>
  <path d="M97.0453 23.9082H61.32C60.6784 23.9082 60.1582 24.4485 60.1582 25.1149V38.9922C60.1582 39.6586 60.6784 40.1989 61.32 40.1989H97.0453C97.6869 40.1989 98.2071 39.6586 98.2071 38.9922V25.1149C98.2071 24.4485 97.6869 23.9082 97.0453 23.9082Z" fill="white"/>
  <path d="M83.1037 28.7954H63.6436C63.1623 28.7954 62.7722 29.2006 62.7722 29.7004V30.334C62.7722 30.8338 63.1623 31.239 63.6436 31.239H83.1037C83.5849 31.239 83.975 30.8338 83.975 30.334V29.7004C83.975 29.2006 83.5849 28.7954 83.1037 28.7954Z" fill="#DDE3E9"/>
  <path d="M76.1329 32.8679H63.6436C63.1623 32.8679 62.7722 33.2731 62.7722 33.773V34.4065C62.7722 34.9063 63.1623 35.3115 63.6436 35.3115H76.1329C76.6141 35.3115 77.0042 34.9063 77.0042 34.4065V33.773C77.0042 33.2731 76.6141 32.8679 76.1329 32.8679Z" fill="#DDE3E9"/>
  <path fill-rule="evenodd" clip-rule="evenodd" d="M94.1408 34.1654C95.2637 34.1654 96.174 33.2199 96.174 32.0536C96.174 30.8874 95.2637 29.9419 94.1408 29.9419C93.0179 29.9419 92.1077 30.8874 92.1077 32.0536C92.1077 33.2199 93.0179 34.1654 94.1408 34.1654Z" fill="#DDE3E9"/>
  <path fill-rule="evenodd" clip-rule="evenodd" d="M94.1409 32.9588C94.6222 32.9588 95.0122 32.5536 95.0122 32.0537C95.0122 31.5538 94.6222 31.1487 94.1409 31.1487C93.6596 31.1487 93.2695 31.5538 93.2695 32.0537C93.2695 32.5536 93.6596 32.9588 94.1409 32.9588Z" fill="#F2F2F2"/>
  <path d="M97.0453 42.6123H61.32C60.6784 42.6123 60.1582 43.1526 60.1582 43.819V54.0761C60.1582 54.7426 60.6784 55.2828 61.32 55.2828H97.0453C97.6869 55.2828 98.2071 54.7426 98.2071 54.0761V43.819C98.2071 43.1526 97.6869 42.6123 97.0453 42.6123Z" fill="white"/>
  <path d="M91.8173 46.4133H72.3572C71.876 46.4133 71.4858 46.8185 71.4858 47.3184V47.4089C71.4858 47.9087 71.876 48.3139 72.3572 48.3139H91.8173C92.2985 48.3139 92.6887 47.9087 92.6887 47.4089V47.3184C92.6887 46.8185 92.2985 46.4133 91.8173 46.4133Z" fill="#DDE3E9"/>
  <path d="M84.8465 49.5811H72.3572C71.876 49.5811 71.4858 49.9863 71.4858 50.4861V50.5766C71.4858 51.0764 71.876 51.4816 72.3572 51.4816H84.8465C85.3278 51.4816 85.7179 51.0764 85.7179 50.5766V50.4861C85.7179 49.9863 85.3278 49.5811 84.8465 49.5811Z" fill="#DDE3E9"/>
  <path fill-rule="evenodd" clip-rule="evenodd" d="M66.2576 52.5677C68.1824 52.5677 69.743 50.9468 69.743 48.9475C69.743 46.9483 68.1824 45.3274 66.2576 45.3274C64.3328 45.3274 62.7722 46.9483 62.7722 48.9475C62.7722 50.9468 64.3328 52.5677 66.2576 52.5677Z" fill="#C5CFD6"/>
  <path d="M97.0453 57.6963H61.32C60.6784 57.6963 60.1582 58.2366 60.1582 58.903V69.1601C60.1582 69.8265 60.6784 70.3668 61.32 70.3668H97.0453C97.6869 70.3668 98.2071 69.8265 98.2071 69.1601V58.903C98.2071 58.2366 97.6869 57.6963 97.0453 57.6963Z" fill="white"/>
  <path d="M83.1037 61.4976H63.6436C63.1623 61.4976 62.7722 61.9028 62.7722 62.4026V62.4931C62.7722 62.9929 63.1623 63.3981 63.6436 63.3981H83.1037C83.5849 63.3981 83.975 62.9929 83.975 62.4931V62.4026C83.975 61.9028 83.5849 61.4976 83.1037 61.4976Z" fill="#DDE3E9"/>
  <path d="M76.1329 64.6653H63.6436C63.1623 64.6653 62.7722 65.0705 62.7722 65.5703V65.6608C62.7722 66.1607 63.1623 66.5659 63.6436 66.5659H76.1329C76.6141 66.5659 77.0042 66.1607 77.0042 65.6608V65.5703C77.0042 65.0705 76.6141 64.6653 76.1329 64.6653Z" fill="#AFB9C5"/>
  <path fill-rule="evenodd" clip-rule="evenodd" d="M94.1408 66.1434C95.2637 66.1434 96.174 65.198 96.174 64.0317C96.174 62.8654 95.2637 61.9199 94.1408 61.9199C93.0179 61.9199 92.1077 62.8654 92.1077 64.0317C92.1077 65.198 93.0179 66.1434 94.1408 66.1434Z" fill="#DDE3E9"/>
  <path fill-rule="evenodd" clip-rule="evenodd" d="M94.1409 64.9368C94.6222 64.9368 95.0122 64.5316 95.0122 64.0317C95.0122 63.5319 94.6222 63.1267 94.1409 63.1267C93.6596 63.1267 93.2695 63.5319 93.2695 64.0317C93.2695 64.5316 93.6596 64.9368 94.1409 64.9368Z" fill="#F2F2F2"/>
  <path d="M97.0453 72.7803H61.32C60.6784 72.7803 60.1582 73.3205 60.1582 73.987V84.2441C60.1582 84.9105 60.6784 85.4508 61.32 85.4508H97.0453C97.6869 85.4508 98.2071 84.9105 98.2071 84.2441V73.987C98.2071 73.3205 97.6869 72.7803 97.0453 72.7803Z" fill="white"/>
  <path d="M91.8173 76.5815H72.3572C71.876 76.5815 71.4858 76.9867 71.4858 77.4866V77.5771C71.4858 78.0769 71.876 78.4821 72.3572 78.4821H91.8173C92.2985 78.4821 92.6887 78.0769 92.6887 77.5771V77.4866C92.6887 76.9867 92.2985 76.5815 91.8173 76.5815Z" fill="#DDE3E9"/>
  <path d="M84.8465 79.7493H72.3572C71.876 79.7493 71.4858 80.1545 71.4858 80.6543V80.7448C71.4858 81.2446 71.876 81.6498 72.3572 81.6498H84.8465C85.3278 81.6498 85.7179 81.2446 85.7179 80.7448V80.6543C85.7179 80.1545 85.3278 79.7493 84.8465 79.7493Z" fill="#DDE3E9"/>
  <path fill-rule="evenodd" clip-rule="evenodd" d="M66.2576 82.7357C68.1824 82.7357 69.743 81.1147 69.743 79.1155C69.743 77.1163 68.1824 75.4954 66.2576 75.4954C64.3328 75.4954 62.7722 77.1163 62.7722 79.1155C62.7722 81.1147 64.3328 82.7357 66.2576 82.7357Z" fill="#C5CFD6"/>
  <path d="M170.239 23.0032H77.5853C76.302 23.0032 75.2617 24.0837 75.2617 25.4166V124.971C75.2617 126.304 76.302 127.384 77.5853 127.384H170.239C171.522 127.384 172.562 126.304 172.562 124.971V25.4166C172.562 24.0837 171.522 23.0032 170.239 23.0032Z" fill="#F2F2F2"/>
  <path d="M165.591 35.9753H149.907C148.624 35.9753 147.583 37.0559 147.583 38.3888V57.9979C147.583 59.3308 148.624 60.4114 149.907 60.4114H165.591C166.875 60.4114 167.915 59.3308 167.915 57.9979V38.3888C167.915 37.0559 166.875 35.9753 165.591 35.9753Z" fill="white"/>
  <path fill-rule="evenodd" clip-rule="evenodd" d="M157.749 50.1542C160.316 50.1542 162.397 47.9933 162.397 45.3274C162.397 42.6614 160.316 40.5005 157.749 40.5005C155.183 40.5005 153.102 42.6614 153.102 45.3274C153.102 47.9933 155.183 50.1542 157.749 50.1542Z" fill="#DDE3E9"/>
  <path d="M164.139 51.3608H151.36C150.878 51.3608 150.488 51.766 150.488 52.2659C150.488 52.7657 150.878 53.1709 151.36 53.1709H164.139C164.621 53.1709 165.011 52.7657 165.011 52.2659C165.011 51.766 164.621 51.3608 164.139 51.3608Z" fill="#DDE3E9"/>
  <path d="M161.816 54.3777H153.683C153.202 54.3777 152.812 54.7829 152.812 55.2827C152.812 55.7826 153.202 56.1878 153.683 56.1878H161.816C162.297 56.1878 162.687 55.7826 162.687 55.2827C162.687 54.7829 162.297 54.3777 161.816 54.3777Z" fill="#DDE3E9"/>
  <path d="M75.2617 25.4166C75.2617 24.0838 76.3021 23.0032 77.5853 23.0032H170.239C171.522 23.0032 172.562 24.0838 172.562 25.4166V31.1485H75.2617V25.4166Z" fill="#C5CFD6"/>
  <path fill-rule="evenodd" clip-rule="evenodd" d="M79.0375 28.4335C79.6791 28.4335 80.1993 27.8931 80.1993 27.2267C80.1993 26.5603 79.6791 26.02 79.0375 26.02C78.3959 26.02 77.8757 26.5603 77.8757 27.2267C77.8757 27.8931 78.3959 28.4335 79.0375 28.4335Z" fill="#F2F2F2"/>
  <path fill-rule="evenodd" clip-rule="evenodd" d="M82.5229 28.4335C83.1645 28.4335 83.6847 27.8931 83.6847 27.2267C83.6847 26.5603 83.1645 26.02 82.5229 26.02C81.8813 26.02 81.3611 26.5603 81.3611 27.2267C81.3611 27.8931 81.8813 28.4335 82.5229 28.4335Z" fill="#F2F2F2"/>
  <path fill-rule="evenodd" clip-rule="evenodd" d="M86.0082 28.4335C86.6498 28.4335 87.17 27.8931 87.17 27.2267C87.17 26.5603 86.6498 26.02 86.0082 26.02C85.3666 26.02 84.8464 26.5603 84.8464 27.2267C84.8464 27.8931 85.3666 28.4335 86.0082 28.4335Z" fill="#F2F2F2"/>
  <path d="M165.591 62.8247H149.907C148.624 62.8247 147.583 63.9052 147.583 65.2381V118.937C147.583 120.27 148.624 121.35 149.907 121.35H165.591C166.875 121.35 167.915 120.27 167.915 118.937V65.2381C167.915 63.9052 166.875 62.8247 165.591 62.8247Z" fill="white"/>
  <path d="M161.525 68.2549H153.973C153.332 68.2549 152.812 68.7951 152.812 69.4616V74.8918C152.812 75.5583 153.332 76.0985 153.973 76.0985H161.525C162.167 76.0985 162.687 75.5583 162.687 74.8918V69.4616C162.687 68.7951 162.167 68.2549 161.525 68.2549Z" fill="#DDE3E9"/>
  <path d="M161.525 78.512H153.973C153.332 78.512 152.812 79.0522 152.812 79.7187V84.8472C152.812 85.5137 153.332 86.0539 153.973 86.0539H161.525C162.167 86.0539 162.687 85.5137 162.687 84.8472V79.7187C162.687 79.0522 162.167 78.512 161.525 78.512Z" fill="#AFB9C5"/>
  <path d="M161.525 88.4673H153.973C153.332 88.4673 152.812 89.0076 152.812 89.674V94.8025C152.812 95.469 153.332 96.0093 153.973 96.0093H161.525C162.167 96.0093 162.687 95.469 162.687 94.8025V89.674C162.687 89.0076 162.167 88.4673 161.525 88.4673Z" fill="#DDE3E9"/>
  <path d="M161.525 108.378H153.973C153.332 108.378 152.812 108.918 152.812 109.585V114.713C152.812 115.38 153.332 115.92 153.973 115.92H161.525C162.167 115.92 162.687 115.38 162.687 114.713V109.585C162.687 108.918 162.167 108.378 161.525 108.378Z" fill="#DDE3E9"/>
  <path d="M161.525 98.4229H153.973C153.332 98.4229 152.812 98.9631 152.812 99.6296V104.758C152.812 105.425 153.332 105.965 153.973 105.965H161.525C162.167 105.965 162.687 105.425 162.687 104.758V99.6296C162.687 98.9631 162.167 98.4229 161.525 98.4229Z" fill="#C5CFD6"/>
  <path d="M144.098 36.2771H81.0707C80.4291 36.2771 79.9089 36.8174 79.9089 37.4838V49.2493C79.9089 49.9158 80.4291 50.456 81.0707 50.456H144.098C144.74 50.456 145.26 49.9158 145.26 49.2493V37.4838C145.26 36.8174 144.74 36.2771 144.098 36.2771Z" fill="white"/>
  <path d="M130.157 40.5308H83.3943C82.9131 40.5308 82.5229 40.936 82.5229 41.4358V41.7526C82.5229 42.2524 82.9131 42.6576 83.3943 42.6576H130.157C130.638 42.6576 131.028 42.2524 131.028 41.7526V41.4358C131.028 40.936 130.638 40.5308 130.157 40.5308Z" fill="#DDE3E9"/>
  <path d="M114.21 44.0754H83.3943C82.9131 44.0754 82.5229 44.4806 82.5229 44.9805V45.2972C82.5229 45.7971 82.9131 46.2023 83.3943 46.2023H114.21C114.691 46.2023 115.081 45.7971 115.081 45.2972V44.9805C115.081 44.4806 114.691 44.0754 114.21 44.0754Z" fill="#DDE3E9"/>
  <path fill-rule="evenodd" clip-rule="evenodd" d="M138.276 45.4784C139.399 45.4784 140.309 44.5329 140.309 43.3666C140.309 42.2003 139.399 41.2549 138.276 41.2549C137.153 41.2549 136.243 42.2003 136.243 43.3666C136.243 44.5329 137.153 45.4784 138.276 45.4784Z" fill="#DDE3E9"/>
  <path fill-rule="evenodd" clip-rule="evenodd" d="M138.276 44.2717C138.757 44.2717 139.147 43.8666 139.147 43.3667C139.147 42.8668 138.757 42.4617 138.276 42.4617C137.795 42.4617 137.405 42.8668 137.405 43.3667C137.405 43.8666 137.795 44.2717 138.276 44.2717Z" fill="#F2F2F2"/>
  <path d="M144.098 52.8694H81.0707C80.4291 52.8694 79.9089 53.4097 79.9089 54.0761V63.4282C79.9089 64.0946 80.4291 64.6349 81.0707 64.6349H144.098C144.74 64.6349 145.26 64.0946 145.26 63.4282V54.0761C145.26 53.4097 144.74 52.8694 144.098 52.8694Z" fill="white"/>
  <path d="M130.178 56.3989H83.3725C82.9033 56.3989 82.5229 56.794 82.5229 57.2813C82.5229 57.7687 82.9033 58.1638 83.3725 58.1638H130.178C130.648 58.1638 131.028 57.7687 131.028 57.2813C131.028 56.794 130.648 56.3989 130.178 56.3989Z" fill="#DDE3E9"/>
  <path d="M114.232 59.3403H83.3725C82.9033 59.3403 82.5229 59.7354 82.5229 60.2227C82.5229 60.7101 82.9033 61.1052 83.3725 61.1052H114.232C114.701 61.1052 115.081 60.7101 115.081 60.2227C115.081 59.7354 114.701 59.3403 114.232 59.3403Z" fill="#DDE3E9"/>
  <path fill-rule="evenodd" clip-rule="evenodd" d="M138.276 60.8639C139.399 60.8639 140.309 59.9184 140.309 58.7521C140.309 57.5858 139.399 56.6404 138.276 56.6404C137.153 56.6404 136.243 57.5858 136.243 58.7521C136.243 59.9184 137.153 60.8639 138.276 60.8639Z" fill="#DDE3E9"/>
  <path fill-rule="evenodd" clip-rule="evenodd" d="M138.276 59.6572C138.757 59.6572 139.147 59.2521 139.147 58.7522C139.147 58.2523 138.757 57.8472 138.276 57.8472C137.795 57.8472 137.405 58.2523 137.405 58.7522C137.405 59.2521 137.795 59.6572 138.276 59.6572Z" fill="#F2F2F2"/>
  <path d="M144.098 67.0483H81.0707C80.4291 67.0483 79.9089 67.5886 79.9089 68.2551V77.6071C79.9089 78.2736 80.4291 78.8138 81.0707 78.8138H144.098C144.74 78.8138 145.26 78.2736 145.26 77.6071V68.2551C145.26 67.5886 144.74 67.0483 144.098 67.0483Z" fill="white"/>
  <path d="M130.178 70.5779H83.3725C82.9033 70.5779 82.5229 70.9729 82.5229 71.4603C82.5229 71.9476 82.9033 72.3427 83.3725 72.3427H130.178C130.648 72.3427 131.028 71.9476 131.028 71.4603C131.028 70.9729 130.648 70.5779 130.178 70.5779Z" fill="#DDE3E9"/>
  <path d="M114.232 73.5193H83.3725C82.9033 73.5193 82.5229 73.9144 82.5229 74.4017C82.5229 74.889 82.9033 75.2841 83.3725 75.2841H114.232C114.701 75.2841 115.081 74.889 115.081 74.4017C115.081 73.9144 114.701 73.5193 114.232 73.5193Z" fill="#DDE3E9"/>
  <path fill-rule="evenodd" clip-rule="evenodd" d="M138.276 75.0428C139.399 75.0428 140.309 74.0974 140.309 72.9311C140.309 71.7648 139.399 70.8193 138.276 70.8193C137.153 70.8193 136.243 71.7648 136.243 72.9311C136.243 74.0974 137.153 75.0428 138.276 75.0428Z" fill="#DDE3E9"/>
  <path fill-rule="evenodd" clip-rule="evenodd" d="M138.276 73.8362C138.757 73.8362 139.147 73.431 139.147 72.9312C139.147 72.4313 138.757 72.0261 138.276 72.0261C137.795 72.0261 137.405 72.4313 137.405 72.9312C137.405 73.431 137.795 73.8362 138.276 73.8362Z" fill="#AFB9C5"/>
  <path d="M144.098 109.585H81.0707C80.4291 109.585 79.9089 110.125 79.9089 110.792V120.144C79.9089 120.81 80.4291 121.351 81.0707 121.351H144.098C144.74 121.351 145.26 120.81 145.26 120.144V110.792C145.26 110.125 144.74 109.585 144.098 109.585Z" fill="white"/>
  <path d="M130.178 113.115H83.3725C82.9033 113.115 82.5229 113.51 82.5229 113.997C82.5229 114.484 82.9033 114.88 83.3725 114.88H130.178C130.648 114.88 131.028 114.484 131.028 113.997C131.028 113.51 130.648 113.115 130.178 113.115Z" fill="#DDE3E9"/>
  <path d="M114.232 116.056H83.3725C82.9033 116.056 82.5229 116.451 82.5229 116.939C82.5229 117.426 82.9033 117.821 83.3725 117.821H114.232C114.701 117.821 115.081 117.426 115.081 116.939C115.081 116.451 114.701 116.056 114.232 116.056Z" fill="#DDE3E9"/>
  <path fill-rule="evenodd" clip-rule="evenodd" d="M138.276 117.58C139.399 117.58 140.309 116.634 140.309 115.468C140.309 114.302 139.399 113.356 138.276 113.356C137.153 113.356 136.243 114.302 136.243 115.468C136.243 116.634 137.153 117.58 138.276 117.58Z" fill="#DDE3E9"/>
  <path fill-rule="evenodd" clip-rule="evenodd" d="M138.276 116.373C138.757 116.373 139.147 115.968 139.147 115.468C139.147 114.968 138.757 114.563 138.276 114.563C137.795 114.563 137.405 114.968 137.405 115.468C137.405 115.968 137.795 116.373 138.276 116.373Z" fill="#F2F2F2"/>
  <path d="M144.098 95.4062H81.0707C80.4291 95.4062 79.9089 95.9465 79.9089 96.613V105.965C79.9089 106.631 80.4291 107.172 81.0707 107.172H144.098C144.74 107.172 145.26 106.631 145.26 105.965V96.613C145.26 95.9465 144.74 95.4062 144.098 95.4062Z" fill="white"/>
  <path d="M130.178 98.9358H83.3725C82.9033 98.9358 82.5229 99.3309 82.5229 99.8182C82.5229 100.306 82.9033 100.701 83.3725 100.701H130.178C130.648 100.701 131.028 100.306 131.028 99.8182C131.028 99.3309 130.648 98.9358 130.178 98.9358Z" fill="#DDE3E9"/>
  <path d="M114.232 101.877H83.3725C82.9033 101.877 82.5229 102.272 82.5229 102.76C82.5229 103.247 82.9033 103.642 83.3725 103.642H114.232C114.701 103.642 115.081 103.247 115.081 102.76C115.081 102.272 114.701 101.877 114.232 101.877Z" fill="#DDE3E9"/>
  <path fill-rule="evenodd" clip-rule="evenodd" d="M138.276 103.401C139.399 103.401 140.309 102.455 140.309 101.289C140.309 100.123 139.399 99.1772 138.276 99.1772C137.153 99.1772 136.243 100.123 136.243 101.289C136.243 102.455 137.153 103.401 138.276 103.401Z" fill="#DDE3E9"/>
  <path fill-rule="evenodd" clip-rule="evenodd" d="M138.276 102.194C138.757 102.194 139.147 101.789 139.147 101.289C139.147 100.789 138.757 100.384 138.276 100.384C137.795 100.384 137.405 100.789 137.405 101.289C137.405 101.789 137.795 102.194 138.276 102.194Z" fill="#F2F2F2"/>
  <path d="M144.098 81.2273H81.0707C80.4291 81.2273 79.9089 81.7676 79.9089 82.434V91.7861C79.9089 92.4525 80.4291 92.9928 81.0707 92.9928H144.098C144.74 92.9928 145.26 92.4525 145.26 91.7861V82.434C145.26 81.7676 144.74 81.2273 144.098 81.2273Z" fill="white"/>
  <path d="M130.178 84.7568H83.3725C82.9033 84.7568 82.5229 85.1519 82.5229 85.6392C82.5229 86.1266 82.9033 86.5217 83.3725 86.5217H130.178C130.648 86.5217 131.028 86.1266 131.028 85.6392C131.028 85.1519 130.648 84.7568 130.178 84.7568Z" fill="#DDE3E9"/>
  <path d="M114.232 87.6982H83.3725C82.9033 87.6982 82.5229 88.0933 82.5229 88.5807C82.5229 89.068 82.9033 89.4631 83.3725 89.4631H114.232C114.701 89.4631 115.081 89.068 115.081 88.5807C115.081 88.0933 114.701 87.6982 114.232 87.6982Z" fill="#DDE3E9"/>
  <path fill-rule="evenodd" clip-rule="evenodd" d="M138.276 89.2218C139.399 89.2218 140.309 88.2763 140.309 87.11C140.309 85.9438 139.399 84.9983 138.276 84.9983C137.153 84.9983 136.243 85.9438 136.243 87.11C136.243 88.2763 137.153 89.2218 138.276 89.2218Z" fill="#DDE3E9"/>
  <path fill-rule="evenodd" clip-rule="evenodd" d="M138.276 88.0152C138.757 88.0152 139.147 87.61 139.147 87.1101C139.147 86.6102 138.757 86.2051 138.276 86.2051C137.795 86.2051 137.405 86.6102 137.405 87.1101C137.405 87.61 137.795 88.0152 138.276 88.0152Z" fill="#F2F2F2"/>
  <path fill-rule="evenodd" clip-rule="evenodd" d="M196.665 74.402C195.52 73.595 193.996 73.3835 192.625 73.3835C187.271 73.3835 182.237 75.447 177.889 78.5217C175.507 80.2063 173.375 82.3519 171.494 84.5855C170.408 85.8752 169.439 87.2698 168.754 88.8214C168.291 89.8685 167.973 90.9597 167.758 92.0849C167.496 93.4564 167.287 94.8556 167.193 96.2499C167.156 96.799 166.849 99.7123 167.728 99.7618C167.723 99.8336 167.722 99.902 167.727 99.9633C165.819 103.063 164.64 106.695 163.546 110.139C162.595 113.136 161.747 116.157 161.197 119.258C160.472 123.339 159.997 127.482 159.77 131.623C159.722 132.512 159.688 133.403 159.66 134.293C159.635 135.053 159.61 135.813 159.586 136.574C159.56 137.425 159.415 138.406 159.546 139.252C159.659 139.989 160.274 139.878 160.301 139.144C160.334 138.258 160.328 137.37 160.366 136.484C160.415 135.307 160.466 134.13 160.522 132.953C160.908 124.78 162.356 116.727 165.028 109.007C166.11 105.883 167.349 102.925 168.942 100.035C170.342 97.4944 172.027 95.0342 173.748 92.7432C175.422 90.5165 177.162 88.3417 179.212 86.4553C180.876 84.9246 182.706 83.5909 184.588 82.35C186.978 80.7741 189.363 79.2364 191.951 78.0267C193.297 77.398 194.668 76.8351 196.024 76.2314C196.268 76.1231 196.529 76.0178 196.764 75.892C197.547 75.4727 197.289 74.8413 196.665 74.402Z" fill="#C1DEE2"/>
  <path fill-rule="evenodd" clip-rule="evenodd" d="M175.123 102.948C177.295 102.948 179.228 103.241 181.229 104.138C182.956 104.912 184.53 105.936 186.059 107.051C188.208 108.619 189.901 110.444 191.087 112.863C191.795 114.308 192.315 116.352 191.839 117.928C191.279 119.784 189.741 121.332 187.715 121.005C186.462 120.803 185.314 119.942 184.362 119.131C183.223 118.161 182.311 116.995 181.558 115.7C180.33 113.588 179.609 111.199 178.565 108.992C178.07 107.944 177.592 106.889 176.999 105.893C176.706 105.4 176.393 104.912 175.948 104.545C175.71 104.349 174.705 104.01 175.089 103.57C169.457 103.647 164.468 108.139 163.387 113.7C163.286 114.219 163.207 114.741 163.124 115.263C163.072 115.592 163.093 116.806 162.81 117.017C162.184 117.481 162.447 116.071 162.474 115.868C162.543 115.343 162.617 114.819 162.695 114.296C163.117 111.45 164.337 108.804 166.371 106.774C168.698 104.454 171.836 102.948 175.123 102.948Z" fill="#89C5CC"/>
  <path fill-rule="evenodd" clip-rule="evenodd" d="M18.6059 95.93C24.0276 105.377 30.3422 114.525 34.1343 124.854C33.9815 123.636 33.8194 122.42 33.6379 121.206C32.6759 114.768 31.4799 108.377 30.2234 101.993C29.5835 98.7434 28.9065 95.5049 28.2123 92.267C27.8391 90.5278 27.4702 88.7877 27.0891 87.0504C26.9968 86.6292 26.9175 85.894 26.8022 85.1492C30.4874 97.7102 34.0413 110.281 36.6409 123.143C36.9818 124.831 37.2723 126.517 37.5102 128.199C37.5915 127.815 37.6717 127.431 37.7591 127.048C38.8111 122.461 40.3888 117.91 42.2674 113.62C43.1655 111.569 44.1969 109.562 45.4116 107.692C46.1691 106.527 47.9553 105.142 48.646 103.948C44.8675 111.147 43.503 120.154 41.3212 127.979C40.7888 129.889 40.2529 131.796 39.7278 133.706C43.018 126.852 48.1229 121.221 55.2206 118.781C46.6291 124.677 41.476 135.003 38.0034 145.563C37.992 145.689 37.9784 145.814 37.9665 145.939C38.9886 143.925 40.2755 142.103 42.02 140.827C45.754 138.095 49.8958 138.891 53.5177 141.234C50.6751 139.358 45.5379 141.067 43.1461 142.974C41.4339 144.34 39.9706 146.171 38.6999 147.959C38.3955 148.387 37.9798 148.887 37.541 149.42C36.9258 153.569 35.9232 157.689 34.5034 161.776C34.7378 160.602 34.5685 158.726 34.6336 157.852C34.6405 157.757 34.6463 157.662 34.6533 157.568C34.4375 158.463 34.229 159.347 34.0283 160.218C34.4273 158.557 34.644 156.823 34.8133 155.071C34.8569 154.318 34.8996 153.565 34.9443 152.813C34.9301 151.384 34.8735 149.95 34.7776 148.513C34.4381 147.116 34.0576 145.799 33.7436 144.704C32.6117 140.752 30.9518 136.966 28.9091 133.433C27.0453 130.21 24.8142 127.29 22.2386 124.65C20.8501 123.226 19.397 121.871 17.9643 120.497C17.4463 120 16.5203 118.779 15.7195 118.142C21.5519 121.482 27.555 125.095 31.8098 130.476C31.3108 128.486 30.7691 126.525 30.1961 124.603C27.2884 114.851 23.6172 104.744 18.6059 95.93Z" fill="#DDE3E9"/>
  <path fill-rule="evenodd" clip-rule="evenodd" d="M24.4331 149.407C24.4331 160.237 25.2588 169.016 36.3415 169.016C47.4242 169.016 48.25 160.237 48.25 149.407" fill="#C5CFD6"/>
  <path d="M149.617 10.936C149.617 10.4362 149.227 10.031 148.745 10.031C148.264 10.031 147.874 10.4362 147.874 10.936V16.6679C147.874 17.1678 148.264 17.573 148.745 17.573C149.227 17.573 149.617 17.1678 149.617 16.6679V10.936Z" fill="#DDE3E9"/>
  <path d="M153.683 6.10914C153.683 5.6093 153.293 5.2041 152.812 5.2041C152.331 5.2041 151.94 5.6093 151.94 6.10914V16.6679C151.94 17.1677 152.331 17.5729 152.812 17.5729C153.293 17.5729 153.683 17.1677 153.683 16.6679V6.10914Z" fill="#DDE3E9"/>
  <path d="M157.749 3.69581C157.749 3.19597 157.359 2.79077 156.878 2.79077C156.397 2.79077 156.007 3.19597 156.007 3.69581V16.668C156.007 17.1679 156.397 17.5731 156.878 17.5731C157.359 17.5731 157.749 17.1679 157.749 16.668V3.69581Z" fill="#DDE3E9"/>
  <path d="M161.815 6.10914C161.815 5.6093 161.425 5.2041 160.944 5.2041C160.463 5.2041 160.073 5.6093 160.073 6.10914V16.6679C160.073 17.1677 160.463 17.5729 160.944 17.5729C161.425 17.5729 161.815 17.1677 161.815 16.6679V6.10914Z" fill="#DDE3E9"/>
  <path d="M165.882 1.28223C165.882 0.782396 165.492 0.377197 165.011 0.377197C164.529 0.377197 164.139 0.782396 164.139 1.28223V16.6679C164.139 17.1677 164.529 17.5729 165.011 17.5729C165.492 17.5729 165.882 17.1677 165.882 16.6679V1.28223Z" fill="#C5CFD6"/>
  <path fill-rule="evenodd" clip-rule="evenodd" d="M4.9729 92.7683C4.9729 89.4079 7.58753 86.6575 10.7819 86.6575V92.7683L6.81203 97.2162C5.68276 96.1287 4.9729 94.5334 4.9729 92.7683Z" fill="#F2F2F2"/>
  <path fill-rule="evenodd" clip-rule="evenodd" d="M10.6281 92.6909H16.4944C16.4944 94.266 15.8758 95.7418 14.8979 96.8143C13.8223 97.9872 12.2906 98.7245 10.6281 98.7245C9.09676 98.7245 7.69499 98.0883 6.61914 97.0825L10.6281 92.6909Z" fill="#AFB9C5"/>
  <path fill-rule="evenodd" clip-rule="evenodd" d="M16.5909 92.6911C16.5909 89.3732 13.9763 86.6575 10.7819 86.6575V92.6911H16.5909ZM7.8774 86.6575L10.201 92.0877L4.9729 89.6743C5.4899 88.2666 6.65083 87.1945 7.8774 86.6575Z" fill="#C5CFD6"/>
  <path fill-rule="evenodd" clip-rule="evenodd" d="M193.988 95.4603C193.43 96.0757 192.639 96.4621 191.76 96.4621C190.07 96.4621 188.7 95.044 188.7 93.2945C188.7 91.5451 190.07 90.1269 191.76 90.1269V84.2441C186.953 84.2441 183.019 88.3177 183.019 93.2945C183.019 98.2713 186.953 102.345 191.76 102.345C194.285 102.345 196.567 101.239 198.122 99.4795L193.988 95.4603Z" fill="#F2F2F2"/>
  <path fill-rule="evenodd" clip-rule="evenodd" d="M191.732 84.2441V90.1269C193.416 90.1269 194.782 91.5451 194.782 93.2945H200.446C200.446 88.3177 196.524 84.2441 191.732 84.2441Z" fill="#AFB9C5"/>
  <path fill-rule="evenodd" clip-rule="evenodd" d="M194.665 93.2947C194.665 94.3225 194.198 95.236 193.475 95.8261L197.036 100.535C199.109 98.8492 200.445 96.2357 200.445 93.2947H194.665Z" fill="#C5CFD6"/>
  <path fill-rule="evenodd" clip-rule="evenodd" d="M138.595 12.2948C138.165 12.7667 137.557 13.0629 136.881 13.0629C135.581 13.0629 134.527 11.9757 134.527 10.6344C134.527 9.29319 135.581 8.2059 136.881 8.2059V3.6958C133.183 3.6958 130.157 6.81887 130.157 10.6344C130.157 14.45 133.183 17.573 136.881 17.573C138.823 17.573 140.578 16.725 141.775 15.3762L138.595 12.2948Z" fill="#F2F2F2"/>
  <path fill-rule="evenodd" clip-rule="evenodd" d="M136.837 3.6958V8.2059C138.128 8.2059 139.175 9.29319 139.175 10.6344H143.517C143.517 6.81887 140.511 3.6958 136.837 3.6958Z" fill="#AFB9C5"/>
  <path fill-rule="evenodd" clip-rule="evenodd" d="M139.182 10.6345C139.182 11.4054 138.832 12.0906 138.289 12.533L140.96 16.0647C142.515 14.8003 143.517 12.8404 143.517 10.6345H139.182Z" fill="#C5CFD6"/>
  <path fill-rule="evenodd" clip-rule="evenodd" d="M32.8581 17.5688C32.8569 17.5718 32.8557 17.5749 32.854 17.5785C32.8557 17.5755 32.8581 17.5633 32.8581 17.5688Z" fill="#C5CFD6"/>
  <path fill-rule="evenodd" clip-rule="evenodd" d="M32.8556 17.5738C32.8556 17.5745 32.855 17.5759 32.855 17.5773C32.855 17.5738 32.8602 17.5635 32.8556 17.5738Z" fill="#C5CFD6"/>
  <path fill-rule="evenodd" clip-rule="evenodd" d="M32.8755 17.5225C32.8714 17.5345 32.8662 17.546 32.8615 17.5581C32.8638 17.552 32.8662 17.5472 32.8685 17.5412C32.808 17.698 32.8464 17.5961 32.8755 17.5225Z" fill="#C5CFD6"/>
  <path fill-rule="evenodd" clip-rule="evenodd" d="M32.8626 17.5588C32.8603 17.5643 32.858 17.5704 32.8556 17.5759C32.8388 17.6101 32.8626 17.5588 32.8626 17.5588Z" fill="#C5CFD6"/>
  <path fill-rule="evenodd" clip-rule="evenodd" d="M32.856 17.5737C32.856 17.5731 32.856 17.5731 32.8565 17.5725C32.856 17.5731 32.856 17.5731 32.856 17.5737Z" fill="#C5CFD6"/>
  <path fill-rule="evenodd" clip-rule="evenodd" d="M32.8532 17.5781C32.8497 17.5855 32.8695 17.5501 32.8532 17.5781V17.5781Z" fill="#C5CFD6"/>
  <path fill-rule="evenodd" clip-rule="evenodd" d="M32.8555 17.5737L32.8566 17.5725C32.856 17.5731 32.856 17.5737 32.8555 17.5737Z" fill="#C5CFD6"/>
  <path d="M45.3455 1.88574H20.0763C19.4347 1.88574 18.9146 2.42601 18.9146 3.09246V19.6848C18.9146 20.3513 19.4347 20.8915 20.0763 20.8915H45.3455C45.9871 20.8915 46.5073 20.3513 46.5073 19.6848V3.09246C46.5073 2.42601 45.9871 1.88574 45.3455 1.88574Z" fill="#DDE3E9"/>
  <path fill-rule="evenodd" clip-rule="evenodd" d="M29.3706 7.31592L21.238 20.8915H37.5032L29.3706 7.31592Z" fill="#AFB9C5"/>
  <path fill-rule="evenodd" clip-rule="evenodd" d="M37.358 10.936L30.2419 20.8914H44.474L37.358 10.936Z" fill="#C5CFD6"/>
  <path fill-rule="evenodd" clip-rule="evenodd" d="M40.4077 10.9361C41.8516 10.9361 43.0218 9.7205 43.0218 8.22097C43.0218 6.72145 41.8516 5.50586 40.4077 5.50586C38.9639 5.50586 37.7937 6.72145 37.7937 8.22097C37.7937 9.7205 38.9639 10.9361 40.4077 10.9361Z" fill="white"/>
  <path fill-rule="evenodd" clip-rule="evenodd" d="M171.398 146.386C171.399 146.389 171.401 146.392 171.402 146.395C171.401 146.392 171.398 146.38 171.398 146.386Z" fill="#C5CFD6"/>
  <path fill-rule="evenodd" clip-rule="evenodd" d="M171.401 146.391C171.401 146.391 171.401 146.393 171.401 146.394C171.401 146.391 171.396 146.38 171.401 146.391Z" fill="#C5CFD6"/>
  <path fill-rule="evenodd" clip-rule="evenodd" d="M171.381 146.339C171.385 146.351 171.39 146.363 171.395 146.375C171.392 146.369 171.39 146.364 171.388 146.358C171.448 146.515 171.41 146.413 171.381 146.339Z" fill="#C5CFD6"/>
  <path fill-rule="evenodd" clip-rule="evenodd" d="M171.394 146.376C171.396 146.381 171.399 146.387 171.401 146.393C171.418 146.427 171.394 146.376 171.394 146.376Z" fill="#C5CFD6"/>
  <path fill-rule="evenodd" clip-rule="evenodd" d="M171.4 146.391C171.4 146.39 171.4 146.39 171.4 146.389C171.4 146.39 171.4 146.39 171.4 146.391Z" fill="#C5CFD6"/>
  <path fill-rule="evenodd" clip-rule="evenodd" d="M171.403 146.395C171.387 146.367 171.406 146.402 171.403 146.395V146.395Z" fill="#C5CFD6"/>
  <path fill-rule="evenodd" clip-rule="evenodd" d="M171.401 146.391L171.4 146.389C171.4 146.39 171.4 146.391 171.401 146.391Z" fill="#C5CFD6"/>
  <path d="M151.94 123.161H190.86C191.502 123.161 192.022 123.701 192.022 124.367V150.312C192.022 150.978 191.502 151.518 190.86 151.518H151.94C151.299 151.518 150.778 150.978 150.778 150.312V124.367C150.778 123.701 151.299 123.161 151.94 123.161Z" fill="#DDE3E9"/>
  <path fill-rule="evenodd" clip-rule="evenodd" d="M176.708 131.306L188.632 151.518H164.783L176.708 131.306Z" fill="#AFB9C5"/>
  <path fill-rule="evenodd" clip-rule="evenodd" d="M164.413 136.72L174.955 151.518H153.871L164.413 136.72Z" fill="#C5CFD6"/>
  <path fill-rule="evenodd" clip-rule="evenodd" d="M159.927 136.736C157.762 136.736 156.006 134.913 156.006 132.663C156.006 130.414 157.762 128.591 159.927 128.591C162.093 128.591 163.848 130.414 163.848 132.663C163.848 134.913 162.093 136.736 159.927 136.736Z" fill="white"/>
</svg>