<svg width="201" height="177" viewBox="0 0 201 177" fill="none" xmlns="http://www.w3.org/2000/svg">
<g id="scene/Scene Whiteboard">
<path id="Background Shape" fill-rule="evenodd" clip-rule="evenodd" d="M3.66713 145.769C8.67029 119.008 59.2963 134.254 92.4859 125.98C125.676 117.707 164.942 79.1769 190.929 98.051C216.916 116.925 189.266 162.549 129.663 172.845C70.0596 183.141 -1.33602 172.531 3.66713 145.769Z" fill="#DDE3E9"/>
<g id="Cells" opacity="0.5">
<path id="Fill 5" fill-rule="evenodd" clip-rule="evenodd" d="M16.8904 20.78C16.4075 21.2807 16.5951 23.0592 16.5849 23.7177C16.5694 24.7422 16.6308 25.7579 16.7134 26.779C16.7687 27.4629 17.0804 33.987 17.948 33.486C18.4371 33.2037 18.1304 31.3161 18.1294 30.7192C18.1276 29.3922 18.0742 28.0684 17.9891 26.7439C17.9099 25.5147 17.8602 24.2996 17.9056 23.0679C17.9167 22.7673 18.1878 19.431 16.8904 20.78Z" fill="#89C5CC"/>
<path id="Fill 7" fill-rule="evenodd" clip-rule="evenodd" d="M37.9079 19.976C33.7618 20.0101 29.6172 20.2227 25.473 20.3527C23.4786 20.4155 21.4858 20.4951 19.4939 20.6099C18.8149 20.6491 17.3591 20.4231 16.7936 20.7988C15.5381 21.6328 17.5628 21.8279 18.1025 21.8075C26.3042 21.4987 34.5083 21.0917 42.7168 21.0726C46.7435 21.0633 50.7681 21.1822 54.7952 21.1558C56.3345 21.1456 58.0389 20.4566 58.4276 22.3177C58.8664 24.4175 58.3623 26.7557 58.2251 28.8661C58.1337 30.2746 58.1662 31.6542 58.2273 33.0619C58.2666 33.9634 58.1644 34.9794 58.3181 35.8644C58.4657 36.7166 59.0554 37.2274 59.596 36.273C59.9191 35.7025 59.7583 34.2942 59.7798 33.6336C59.8087 32.7438 59.7817 31.8541 59.7817 30.964C59.7813 28.7915 60.0765 26.6279 60.0375 24.4558C60.0124 23.0551 59.9409 20.5162 58.2402 20.1796C56.3673 19.809 54.0652 20.1815 52.1485 20.1589C47.3995 20.1025 42.6585 19.9374 37.9079 19.976Z" fill="#89C5CC"/>
<path id="Fill 9" fill-rule="evenodd" clip-rule="evenodd" d="M26.4833 33.5638C24.9197 33.5638 23.3562 33.5737 21.7929 33.6004C20.4521 33.6234 18.3442 33.3334 17.0962 33.8315C16.2419 34.1725 16.015 35.1633 17.0962 35.4271C18.2755 35.7149 20.0526 35.2442 21.2863 35.2216C27.4731 35.1081 33.7194 34.9603 39.8976 35.3669C45.6868 35.7474 51.5873 36.1168 57.3847 35.7149C57.8726 35.6811 60.3603 35.5782 59.225 34.6097C58.5629 34.0444 55.8785 34.4159 55.0179 34.3889C51.9822 34.2939 48.9434 34.2729 45.9086 34.1533C42.9131 34.0351 39.9314 33.6855 36.9349 33.5988C33.454 33.4981 29.9655 33.5638 26.4833 33.5638Z" fill="#89C5CC"/>
<path id="face" fill-rule="evenodd" clip-rule="evenodd" d="M24.9188 24.3277C27.3556 24.4383 29.7666 28.1089 27.3009 29.8827C24.9878 31.5475 20.653 29.7231 21.9392 26.4954C21.7542 26.962 22.173 25.9884 22.1782 25.982C22.4228 25.6828 22.8618 25.3513 23.1634 25.1155C23.5083 24.8452 23.8676 24.5482 24.2836 24.4128C24.5567 24.3239 24.5138 24.6582 24.9188 24.3277ZM23.732 23.0039C22.5915 23.4663 22.0711 23.988 21.2872 24.9322C20.7451 25.5856 20.0535 25.9294 20.0596 26.8122C20.0611 27.0075 20.3026 27.2223 20.3446 27.4107C20.4023 27.6707 20.3354 28.0041 20.3812 28.2804C20.8531 31.1326 24.129 32.0941 26.5271 31.5555C28.616 31.0864 30.1783 29.0038 29.6945 26.7389C29.2072 24.459 25.9525 22.1017 23.732 23.0039Z" fill="#89C5CC"/>
<path id="Fill 13" fill-rule="evenodd" clip-rule="evenodd" d="M22.7161 26.9852C22.7161 28.0111 24.2775 28.0111 24.2775 26.9852C24.2775 25.9709 22.7161 25.9272 22.7161 26.9852Z" fill="#89C5CC"/>
<path id="Fill 15" fill-rule="evenodd" clip-rule="evenodd" d="M24.6685 26.7774C24.6685 27.5926 25.9087 27.5926 25.9087 26.7774C25.9087 25.9714 24.6685 25.937 24.6685 26.7774Z" fill="#89C5CC"/>
<path id="Fill 17" fill-rule="evenodd" clip-rule="evenodd" d="M25.0523 28.4589C24.6552 28.6173 24.1514 28.2887 23.8256 28.5051C23.2484 28.8892 23.8271 29.2362 24.1364 29.3904C25.5294 30.0849 25.7773 28.1702 25.0523 28.4589Z" fill="#89C5CC"/>
<path id="Fill 19" fill-rule="evenodd" clip-rule="evenodd" d="M46.3275 26.185C46.1382 26.2682 46.2857 26.2031 46.3275 26.185V26.185ZM40.2606 25.264C39.2181 25.5084 38.3378 26.5199 37.205 26.3845C36.337 26.2809 35.7491 25.4106 34.8922 25.2844C33.7959 25.1225 30.812 27.7198 32.3808 28.1656C33.2961 28.4257 33.8039 26.6885 34.6123 26.5961C35.2521 26.5231 36.1219 27.338 36.7846 27.454C38.0211 27.6704 38.8704 26.9629 39.9557 26.5065C41.1354 26.011 41.8064 26.4575 42.8321 27.0085C43.6418 27.4432 44.4046 27.7265 45.3309 27.547C46.2004 27.3788 47.2927 26.4498 48.1681 26.5451C49.0254 26.6385 49.6372 27.5678 50.519 27.6541C50.8826 27.6895 51.4238 27.8182 51.3627 27.2354C51.3136 26.7691 50.8126 26.8482 50.499 26.6783C49.6927 26.2423 48.9385 25.4699 47.9656 25.5358C47.2335 25.5855 46.5671 26.1197 45.8927 26.3752C43.6836 27.2121 42.4415 24.756 40.2606 25.264Z" fill="#89C5CC"/>
<path id="Fill 21" fill-rule="evenodd" clip-rule="evenodd" d="M42.1063 40.041C37.8449 40.0818 33.569 40.1475 29.3198 40.5022C28.3122 40.5863 18.0253 41.5953 18.0449 41.6679C18.0808 41.8021 19.4042 42.0076 19.3959 42.0392C19.3066 41.8097 19.1029 41.7144 18.7844 41.7543C28.5408 41.7543 38.2658 40.847 48.0351 41.0101C50.4897 41.0509 52.9535 41.0341 55.4065 41.1144C56.0189 41.1344 57.5362 41.5902 58.017 41.303C59.2792 40.5493 56.9864 40.4623 56.6065 40.4308C51.7989 40.0311 46.9271 39.991 42.1063 40.041Z" fill="#69A1AC"/>
<path id="Fill 23" fill-rule="evenodd" clip-rule="evenodd" d="M16.7821 42.1916C16.145 42.8551 16.7316 45.2417 16.7567 46.1388C16.793 47.4355 16.7631 48.7415 16.8727 50.0351C16.9977 51.5125 17.1918 53.0868 17.565 54.5202C17.7706 55.31 18.4921 56.5649 18.7781 55.1302C18.9821 54.105 18.6722 52.7455 18.5642 51.7015C18.42 50.3047 18.385 48.9264 18.3798 47.5225C18.3749 46.2997 18.3522 45.0715 18.2555 43.8526C18.2055 43.2196 17.899 41.0376 16.7821 42.1916Z" fill="#69A1AC"/>
<path id="Fill 25" fill-rule="evenodd" clip-rule="evenodd" d="M32.8099 54.3459C29.7859 54.3998 26.7554 54.474 23.7365 54.67C22.4991 54.7506 21.2626 54.8705 20.0298 55.0062C19.7785 55.0339 16.994 55.1512 18.2383 56.2185C18.7998 56.7007 21.1098 56.0343 21.8726 55.9648C23.156 55.8479 24.4389 55.772 25.7257 55.7156C28.7077 55.584 31.6986 55.468 34.6834 55.5215C40.1347 55.62 45.5508 55.6637 51.0033 55.5375C51.778 55.5196 57.8473 55.6879 58.0535 54.851C58.2195 54.1764 56.049 54.4858 55.6532 54.4979C54.2016 54.5428 52.7498 54.5326 51.2973 54.5247C45.1451 54.4922 38.9574 54.2379 32.8099 54.3459Z" fill="#69A1AC"/>
<path id="Fill 27" fill-rule="evenodd" clip-rule="evenodd" d="M57.0261 41.0724C57.1221 43.8689 57.5805 46.6621 57.7272 49.4672C57.7941 50.7493 57.8729 52.0304 57.9334 53.3131C57.953 53.7268 57.7925 54.7239 58.2635 54.962C58.9097 55.2883 58.9968 54.6306 59.1177 54.1857C59.4672 52.9004 59.2309 51.2308 59.199 49.9108C59.1683 48.6326 59.1662 47.3518 59.0754 46.0758C58.9824 44.772 58.7299 43.4931 58.6127 42.1942C58.563 41.6447 58.7363 40.7304 58.1748 40.3894C57.6895 40.0947 57.0052 40.4662 57.0261 41.0724Z" fill="#69A1AC"/>
<path id="face_2" fill-rule="evenodd" clip-rule="evenodd" d="M27.3029 45.7243C27.3142 45.7335 27.3256 45.7428 27.3369 45.752C27.3256 45.7428 27.3142 45.7335 27.3029 45.7243ZM24.7329 44.8957C25.6911 45.18 26.4781 45.0742 27.3937 45.7985C28.1525 46.3993 28.9309 47.2785 29.1825 48.2499C29.7639 50.4941 27.7925 51.7242 25.9446 51.7484C24.0515 51.7729 21.2492 51.3169 21.3462 48.7967C21.4207 46.8604 22.7818 44.9709 24.7329 44.8957ZM24.8004 43.6273C22.3154 43.7558 20.311 46.6545 20.3324 49.0941C20.3585 52.0512 23.5842 52.8131 25.8758 52.8335C28.462 52.8565 31.0409 51.0017 30.3481 47.9809C29.7927 45.5605 27.1899 43.4983 24.8004 43.6273Z" fill="#69A1AC"/>
<path id="Fill 31" fill-rule="evenodd" clip-rule="evenodd" d="M22.3008 47.5975C22.3008 48.4223 23.5558 48.4223 23.5558 47.5975C23.5558 46.7826 22.3008 46.7476 22.3008 47.5975Z" fill="#69A1AC"/>
<path id="Fill 33" fill-rule="evenodd" clip-rule="evenodd" d="M24.9316 47.2357C24.9316 48.0668 26.1965 48.0668 26.1965 47.2357C26.1965 46.4141 24.9316 46.3788 24.9316 47.2357Z" fill="#69A1AC"/>
<path id="Fill 35" fill-rule="evenodd" clip-rule="evenodd" d="M23.4814 49.1165C22.6649 49.9629 25.5331 51.447 26.2094 50.2695C26.765 49.3019 25.5552 49.6229 25.1266 49.5706C24.6605 49.5136 23.8619 48.7223 23.4814 49.1165Z" fill="#69A1AC"/>
<path id="Fill 37" fill-rule="evenodd" clip-rule="evenodd" d="M46.4116 47.2526C46.333 47.287 46.333 47.287 46.4116 47.2526V47.2526ZM35.6415 45.8746C34.8149 46.0355 32.102 46.9862 32.0655 48.0047C31.9983 49.8562 34.6554 47.9597 35.2322 47.7163C36.7994 47.0547 37.623 48.4043 39.1976 48.4754C40.5648 48.5372 41.8221 47.3217 43.1102 47.4655C44.4599 47.6162 45.1088 49.1073 46.6669 48.3157C47.4913 47.897 47.4704 47.251 46.5451 47.1901C45.986 47.1535 45.6016 47.3934 45.0186 47.1436C44.1067 46.7529 43.7395 46.1168 42.6484 46.2178C41.8249 46.2943 41.0808 46.7761 40.277 46.9629C38.4366 47.3899 37.4158 45.5291 35.6415 45.8746Z" fill="#69A1AC"/>
<path id="point" fill-rule="evenodd" clip-rule="evenodd" d="M52.7608 48.0567C52.7037 48.0816 52.7037 48.0816 52.7608 48.0567V48.0567ZM52.9691 47.2858C52.9783 47.2899 53.0406 47.3798 52.9691 47.2858V47.2858ZM52.0216 46.6972C51.9861 46.7256 51.9861 46.7256 52.0216 46.6972V46.6972ZM52.0422 46.6899C52.226 46.8043 53.7033 47.8534 52.6304 48.1007C52.0855 48.2259 51.6347 47.0876 52.0422 46.6899ZM51.5531 45.5276C49.1866 46.6484 51.7332 50.6591 53.5904 49.0293C54.3719 48.3438 54.4747 46.9579 53.7144 46.2434C53.2591 45.8154 52.1714 45.2341 51.5531 45.5276Z" fill="#69A1AC"/>
<path id="Fill 41" fill-rule="evenodd" clip-rule="evenodd" d="M29.3378 61.3326C26.3847 61.3335 23.4057 61.2692 20.4565 61.4508C19.9604 61.4814 18.0697 61.3832 17.814 61.9221C17.3462 62.9078 19.2915 62.4187 19.5741 62.389C25.4461 61.7784 31.5798 62.1299 37.4711 62.3039C42.2895 62.4461 47.0817 62.5343 51.8942 62.7925C53.1593 62.86 54.4231 62.9349 55.6872 63.0143C56.0993 63.0401 57.1363 63.3237 57.2232 62.6401C57.3035 62.0075 56.01 62.1503 55.6869 62.1328C53.1172 61.9923 50.5494 61.845 47.9804 61.6949C41.7973 61.3329 35.5308 61.3313 29.3378 61.3326Z" fill="#89C5CC"/>
<path id="Fill 43" fill-rule="evenodd" clip-rule="evenodd" d="M17.7194 62.4285C17.1675 62.998 17.4263 65.1728 17.4108 65.8914C17.3839 67.1486 17.3268 68.4049 17.3011 69.6614C17.2744 70.9751 17.3115 72.2947 17.3863 73.6065C17.4177 74.1571 17.8531 76.8188 18.5387 75.2955C18.8451 74.6148 18.5313 72.7189 18.5359 71.9477C18.5445 70.5442 18.6173 69.1464 18.6845 67.7445C18.7425 66.5396 18.7447 65.3334 18.7953 64.1281C18.8113 63.7438 18.8552 61.2459 17.7194 62.4285Z" fill="#89C5CC"/>
<path id="Fill 45" fill-rule="evenodd" clip-rule="evenodd" d="M57.7198 73.6573C54.8458 73.9633 51.9258 73.8189 49.041 74.0449C46.5549 74.2396 44.0708 74.3192 41.5782 74.3741C35.9339 74.4977 30.2797 74.6185 24.6517 75.107C23.3691 75.2183 22.0878 75.3365 20.8019 75.3961C20.1588 75.4257 17.4598 75.1217 17.2588 75.826C16.9165 77.0255 19.8026 76.5507 20.4252 76.5319C21.7942 76.4911 23.1568 76.3882 24.5219 76.2801C30.2607 75.826 36.021 75.6902 41.7721 75.5016C44.8995 75.3989 48.0055 75.1612 51.1262 74.9451C52.6818 74.8374 54.2414 74.8339 55.7967 74.7294C56.2038 74.702 57.6444 74.7558 57.9371 74.4158C58.1381 74.1822 58.189 73.6121 57.7198 73.6573Z" fill="#89C5CC"/>
<path id="Fill 47" fill-rule="evenodd" clip-rule="evenodd" d="M56.7456 62.6324C56.8441 65.4951 57 68.3553 57.0929 71.2178C57.1209 72.0786 56.8705 73.6213 57.332 74.3804C58.0742 75.6013 58.6534 74.3094 58.7894 73.5487C59.2183 71.148 58.7572 68.4962 58.6372 66.0806C58.5918 65.1592 58.8673 63.1082 58.4384 62.2834C58.03 61.4979 56.7091 61.5766 56.7456 62.6324Z" fill="#89C5CC"/>
<path id="hola :)" fill-rule="evenodd" clip-rule="evenodd" d="M51.9207 66.7099C53.0216 67.0196 53.1824 69.5057 51.9401 69.6899C50.0908 69.9636 50.8996 67.2223 51.9207 66.7099ZM51.6121 65.721C51.2764 65.7102 50.5011 65.6139 50.2939 65.8979C50.1209 66.1356 50.2958 66.6369 50.2755 66.8632C50.2028 67.672 49.5695 68.1392 49.8527 69.0943C50.0448 69.7425 50.5593 70.3515 51.1865 70.5765C54.4956 71.7645 54.4554 65.1235 51.6121 65.721Z" fill="#89C5CC"/>
<path id="Fill 51" fill-rule="evenodd" clip-rule="evenodd" d="M21.7361 66.1671C21.7278 66.1779 21.7195 66.1887 21.7116 66.1999C21.7195 66.1887 21.7278 66.1779 21.7361 66.1671ZM24.3352 64.7307C24.3223 64.6157 24.3091 64.5006 24.2962 64.3856C26.0905 65.2652 27.5182 66.9016 26.9223 69.098C26.4679 70.7737 24.8255 71.368 23.2954 70.9544C21.6017 70.4961 20.7923 69.0461 21.2489 67.2656C21.4597 66.444 22.1067 65.3401 22.9428 65.0759C23.3322 64.9529 24.1931 65.2665 24.3352 64.7307ZM23.2859 64.035C22.8321 64.0669 22.3902 64.2632 22.0199 64.5319C22.3666 64.2272 22.8287 64.0459 23.2859 64.035ZM23.2991 62.9528C22.1779 62.9885 21.4431 63.6934 20.7782 64.5398C20.5696 64.8056 19.8639 65.5102 19.9513 65.8681C20.0203 66.1514 20.2011 66.5651 20.5818 66.2496C18.5881 70.3766 23.7384 73.8968 26.8824 71.0267C29.8169 68.3485 26.9055 62.8272 23.2991 62.9528Z" fill="#89C5CC"/>
<path id="Fill 53" fill-rule="evenodd" clip-rule="evenodd" d="M22.2805 66.7861C22.2805 67.3358 23.1024 67.3358 23.1024 66.7861C23.1024 66.2367 22.2805 66.2367 22.2805 66.7861Z" fill="#89C5CC"/>
<path id="Fill 55" fill-rule="evenodd" clip-rule="evenodd" d="M23.6821 66.8802C23.6821 67.4385 24.5172 67.4385 24.5172 66.8802C24.5172 66.3215 23.6821 66.3215 23.6821 66.8802Z" fill="#89C5CC"/>
<path id="Fill 57" fill-rule="evenodd" clip-rule="evenodd" d="M24.318 68.8417C23.9278 68.8745 22.4983 68.7368 22.2476 69.0919C21.8282 69.6856 22.4973 69.7063 22.8259 69.7703C23.122 69.828 24.4089 69.7955 24.5902 69.5224C24.7503 69.2811 24.7129 68.8066 24.318 68.8417Z" fill="#89C5CC"/>
<path id="Fill 59" fill-rule="evenodd" clip-rule="evenodd" d="M41.5383 67.3022C41.4711 67.3309 41.4711 67.3309 41.5383 67.3022V67.3022ZM36.1379 66.892C35.2579 66.9593 34.513 67.4848 33.6717 67.6945C32.7739 67.9185 32.3852 67.5068 31.5687 67.2372C30.7194 66.9567 30.1153 67.0673 29.4326 67.6699C29.046 68.0113 28.1973 68.7971 28.4391 69.4033C28.9926 70.7915 30.2457 68.5333 30.8351 68.4281C31.7543 68.2643 32.5723 69.0992 33.6327 68.8602C34.5934 68.6442 35.4457 67.959 36.449 67.9517C37.2882 67.9453 38.0789 68.4224 38.9073 68.5377C40.172 68.714 41.0023 68.2474 42.1713 67.9013C43.185 67.6011 43.8956 67.9969 44.8492 68.3299C45.2849 68.482 46.739 69.0352 46.4714 68.032C46.3956 67.7487 44.4795 67.2419 44.1825 67.1444C43.135 66.8009 42.4717 66.9347 41.4736 67.3299C40.6415 67.6597 39.9413 67.8204 39.0491 67.6387C38.066 67.4389 37.1719 66.8104 36.1379 66.892Z" fill="#89C5CC"/>
</g>
<g id="Big Cards" opacity="0.5">
<path id="Fill 67" fill-rule="evenodd" clip-rule="evenodd" d="M76.6186 20.8884C76.7606 17.7152 76.9558 14.5468 77.0586 11.3719C77.1098 9.7986 77.1497 8.22519 77.1883 6.65161C77.1966 6.30125 77.2055 5.95101 77.2132 5.60062C77.238 4.41023 77.1021 4.31287 78.2555 4.2072C83.4006 3.73548 88.5663 3.57913 93.7175 3.15234C99.9304 2.63763 106.175 2.2822 112.406 2.12289C115.174 2.05198 117.955 1.90507 120.724 1.99449C121.337 2.01428 122.541 1.84847 122.783 2.34384C122.888 2.55784 122.668 3.29422 122.641 3.54114C122.554 4.31255 122.473 5.08664 122.423 5.86188C122.128 10.4342 122.304 15.1217 123.156 19.6248C121.157 18.4536 118.63 17.4462 116.3 17.6461C113.924 17.85 112.146 19.2758 110.244 20.5882C109.169 21.3307 108.806 21.5257 107.733 20.8068C106.808 20.1869 105.933 19.4785 105.06 18.7828C103.714 17.7095 102.443 16.546 101.137 15.4207C98.7359 13.3518 95.4278 10.4068 92.1116 11.2739C89.7423 11.8934 87.5547 13.246 85.4983 14.5695C82.443 16.5361 79.6776 18.9444 76.6186 20.8884ZM117.795 0.585392C105.991 0.585392 94.275 1.774 82.5037 2.41698C81.2743 2.48409 80.0492 2.58295 78.8243 2.70574C78.0079 2.78761 76.0114 2.44387 75.4763 3.16844C75.1191 3.65185 75.4259 3.72439 75.4763 4.18371C75.5395 4.76254 75.502 5.44841 75.4858 6.06109C75.4465 7.53743 75.4051 9.01359 75.3729 10.4901C75.2511 16.0702 75.1747 21.6494 75.3922 27.228C75.4398 28.4447 75.8665 30.1293 75.6331 31.3116C75.464 32.1676 74.8988 32.6884 76.2022 32.8464C77.4847 33.0023 79.0529 32.6061 80.3366 32.4793C81.6278 32.3518 82.9186 32.2132 84.2112 32.1026C89.8313 31.6217 95.506 31.6944 101.141 31.5344C106.827 31.3731 112.514 31.3629 118.202 31.3594C120.582 31.3582 123.301 31.4971 125.623 30.817C126.44 30.5774 126.572 30.4595 126.371 29.6178C126.333 29.4578 126.086 29.3989 126.013 29.1102C125.915 28.7172 125.966 28.2395 125.943 27.8306C125.867 26.4947 125.841 25.1562 125.781 23.8196C125.679 21.586 125.309 19.4183 125.034 17.2072C124.718 14.6539 124.734 12.0611 124.728 9.49091C124.724 8.0653 124.759 6.64438 124.87 5.22275C124.94 4.31093 125.373 2.9496 125.153 2.09925C125.044 1.67587 124.866 1.3401 124.441 1.15791C124.173 1.04232 123.946 1.13277 123.681 1.10351C123.366 1.06877 123.169 1.02282 122.791 0.934003C121.174 0.553173 119.444 0.585392 117.795 0.585392Z" fill="#69A1AC"/>
<path id="Fill 69" fill-rule="evenodd" clip-rule="evenodd" d="M111.263 6.65591C111.262 7.5445 111.128 8.85576 111.523 9.6925C112.023 10.7539 112.65 10.4221 112.816 9.42471C112.911 8.85325 112.908 7.16204 112.731 6.65591C112.481 5.93947 111.263 5.4515 111.263 6.65591Z" fill="#89C5CC"/>
<path id="Fill 71" fill-rule="evenodd" clip-rule="evenodd" d="M112.698 6.99906C111.895 7.02848 109.556 6.82822 109.012 7.49902C108.08 8.64947 109.703 8.85327 110.4 8.78883C111.206 8.71436 113.698 8.8961 114.238 8.2246C115.141 7.10117 113.33 6.97513 112.698 6.99906Z" fill="#89C5CC"/>
<path id="Fill 73" fill-rule="evenodd" clip-rule="evenodd" d="M81.5301 36.6848C85.061 37.3218 83.9626 42.9138 80.6216 41.6184C79.4572 41.1671 77.742 39.863 78.3854 38.3266C78.8659 37.1787 80.4326 36.5755 81.5301 36.6848ZM80.068 34.9463C77.7718 35.3479 76.2018 37.9289 76.9894 40.1804C77.7488 42.3523 80.6295 43.9429 82.7543 43.1624C84.7824 42.417 85.7943 39.6141 85.1107 37.5637C84.3961 35.4215 82.0685 34.5964 80.068 34.9463Z" fill="#89C5CC"/>
<path id="Fill 75" fill-rule="evenodd" clip-rule="evenodd" d="M101.545 37.3388C100.666 37.4147 99.9065 38.054 99.0219 38.1671C98.1947 38.2729 97.5092 37.9788 96.7348 37.7439C95.7987 37.4599 94.9402 37.3353 93.9835 37.5874C93.2527 37.7802 92.5316 38.2968 91.7723 38.3593C90.278 38.482 88.5414 36.711 87.3749 38.714C86.8155 39.6738 87.6277 40.2924 88.4641 39.8447C89.3361 39.3778 88.9081 39.2108 89.9899 39.4865C90.8923 39.7162 91.6219 39.8412 92.5258 39.519C93.3447 39.2274 94.0636 38.6936 94.9537 38.6333C95.8254 38.5747 96.5836 38.9871 97.4166 39.1649C98.4411 39.3838 99.3474 39.2181 100.318 38.8848C101.241 38.5674 101.61 38.394 102.542 38.677C103.131 38.8561 104.42 39.4256 104.995 38.9667C105.987 38.1735 104.658 38.0575 104.135 37.9447C103.292 37.7633 102.42 37.2643 101.545 37.3388Z" fill="#89C5CC"/>
<path id="Fill 77" fill-rule="evenodd" clip-rule="evenodd" d="M121.663 36.8058C121.67 36.8116 121.677 36.8173 121.684 36.8227C121.677 36.8173 121.67 36.8116 121.663 36.8058ZM120.8 36.6185C122.083 36.7042 123.471 39.1326 121.771 39.2189C120.574 39.2795 119.235 37.1532 120.8 36.6185ZM120.62 34.6314C116.562 35.8084 118.417 41.7512 122.331 41.0648C124.109 40.7528 124.712 38.6134 124.124 37.0296C123.872 36.3495 123.379 35.7758 122.791 35.3845C122.357 35.0955 121.116 34.488 120.62 34.6314Z" fill="#89C5CC"/>
<path id="Image Border" fill-rule="evenodd" clip-rule="evenodd" d="M101.686 47.0374C105.258 46.9102 108.829 46.7827 112.404 46.7483C114.341 46.7298 116.268 46.7649 118.202 46.8802C119.06 46.9312 119.918 46.9806 120.776 47.0182C120.925 47.0249 121.129 47.0144 121.355 47.0029C121.886 46.9758 122.535 46.9427 122.841 47.1103C124.548 48.0485 121.069 48.1515 120.646 48.1442C119.699 48.1276 118.753 48.0788 117.807 48.0304C116.98 47.988 116.153 47.9456 115.325 47.9243C110.015 47.7888 104.672 48.0368 99.353 48.2834C98.1337 48.3398 96.9156 48.3966 95.6993 48.4482C94.4079 48.5033 93.1171 48.539 91.826 48.5744C89.9808 48.6254 88.1355 48.6764 86.2903 48.7841C85.5855 48.8252 84.8811 48.8685 84.1766 48.9122C83.1675 48.9746 82.1583 49.0371 81.1486 49.0922C80.3582 49.1356 79.5675 49.1776 78.7759 49.1984C78.6335 49.2019 78.4479 49.2226 78.2451 49.2449C77.7545 49.2994 77.1641 49.3647 76.845 49.2293C76.4615 49.0664 76.151 48.8386 76.3621 48.3554C76.5404 47.9472 77.1887 47.9963 77.6615 48.032C77.7907 48.0419 77.9067 48.0505 77.9963 48.0485C79.5071 48.0183 81.0145 47.93 82.5225 47.8341C83.0742 47.799 83.6255 47.763 84.1769 47.727H84.1772C87.0482 47.5396 89.9163 47.3522 92.7943 47.3012C95.7595 47.2486 98.7228 47.1428 101.686 47.0374ZM120.338 71.4497L121.365 71.4369C121.895 71.4847 122.132 72.0628 121.791 72.5071C121.531 72.8474 120.528 72.8627 119.874 72.8726C119.693 72.8755 119.538 72.878 119.434 72.8866C117.727 73.0291 116.024 73.0931 114.312 73.1103C110.706 73.1457 107.115 73.3063 103.515 73.5195C99.831 73.7378 96.1436 73.8197 92.4559 73.902H92.4556C89.7427 73.9622 87.0294 74.0227 84.3174 74.1371C82.7643 74.2028 81.2108 74.2519 79.6571 74.2942C79.4902 74.2987 79.268 74.3236 79.0167 74.3516C78.0352 74.4619 76.6091 74.6219 76.286 73.8121C75.9991 73.0938 76.3977 72.763 76.9807 72.6125C76.8886 72.1871 76.9058 71.5892 76.9153 71.2467C76.9184 71.1437 76.9205 71.0637 76.919 71.0185C76.9046 70.5892 76.8941 70.1596 76.884 69.73C76.8724 69.2434 76.861 68.7568 76.8429 68.2701C76.8263 67.8288 76.8113 67.3867 76.796 66.9444C76.7358 65.2005 76.6757 63.4522 76.5462 61.7154C76.4867 60.9136 76.3922 60.1213 76.2977 59.3304C76.147 58.0674 75.9964 56.8076 75.9896 55.5185C75.9884 55.2865 75.977 54.9965 75.9645 54.6692C75.9 52.9955 75.7982 50.3491 76.7984 49.5432C78.5623 48.474 78.2135 51.5598 78.0579 52.9369C78.0325 53.1644 78.0119 53.3451 78.007 53.4531C77.9057 55.7429 78.0432 57.9323 78.265 60.2077C78.4151 61.7444 78.3273 63.276 78.2399 64.8102C78.2086 65.358 78.1773 65.9061 78.1567 66.4552C78.1466 66.7267 78.1374 66.9983 78.1285 67.2695C78.1006 68.1047 78.073 68.9394 78.0125 69.7737C78.0058 69.8639 78.0036 70.0369 78.0009 70.2581C77.9929 70.8818 77.9803 71.8882 77.8517 72.4991C78.1254 72.4867 78.3908 72.4899 78.6105 72.4924C78.7501 72.494 78.8713 72.4953 78.964 72.4924C79.3849 72.479 79.8062 72.4663 80.2272 72.4535C81.471 72.4156 82.7149 72.3777 83.9584 72.3292C86.8941 72.2145 89.8307 72.1763 92.7673 72.138C96.2357 72.0928 99.7043 72.0475 103.171 71.8764C108.885 71.5943 114.618 71.522 120.338 71.4497ZM121.398 49.0626C121.395 52.9853 121.687 56.8003 122.028 60.7074C122.239 63.124 122.408 65.5498 122.543 67.9725C122.549 68.0847 122.548 68.2717 122.547 68.5063V68.5066C122.54 69.8464 122.525 72.733 123.8 72.0424C124.763 71.521 124.393 68.4977 124.188 66.8246C124.143 66.4578 124.106 66.1556 124.093 65.9593C124.065 65.5409 124.037 65.1225 124.01 64.7044C123.881 62.7623 123.753 60.8215 123.585 58.8816L123.549 58.4724C123.354 56.2321 123.159 53.993 123.124 51.7418C123.121 51.5557 123.139 51.2966 123.158 51.0034C123.214 50.156 123.29 49.0275 122.95 48.5776C122.474 47.9443 121.399 48.1314 121.398 49.0626Z" fill="#69A1AC"/>
<path id="Image X" fill-rule="evenodd" clip-rule="evenodd" d="M101.85 58.679C106.411 56.5355 111.025 54.3672 115.769 52.8232C116.112 52.7116 116.328 53.0788 116.251 53.3869C116.17 53.7043 115.428 53.9752 114.936 54.155C114.789 54.2088 114.664 54.2544 114.586 54.2904C113.924 54.5979 113.259 54.9013 112.595 55.205C111.915 55.5158 111.235 55.8268 110.556 56.1417C109.145 56.7962 107.733 57.4483 106.321 58.1C104.809 58.7979 103.297 59.4958 101.786 60.1976C101.729 60.224 101.672 60.2508 101.615 60.2772C103.669 61.0354 105.711 61.8273 107.744 62.6435C108.439 62.922 109.131 63.2069 109.824 63.4915C110.216 63.6524 110.607 63.8134 111 63.9734C111.128 64.0253 111.35 64.0961 111.617 64.1808C112.488 64.4568 113.835 64.8842 113.935 65.3157C114.097 66.0187 112.237 65.3386 111.535 65.0821C111.442 65.048 111.369 65.0215 111.325 65.0065C110.289 64.6627 109.266 64.2799 108.244 63.8972L108.102 63.844C107.292 63.5409 106.483 63.2343 105.673 62.9278C104.093 62.3293 102.512 61.7304 100.923 61.1562C100.698 61.0749 100.473 60.994 100.248 60.9133C97.6982 62.1033 95.1528 63.3044 92.616 64.5247C91.2555 65.1793 89.9024 65.8488 88.5533 66.5273C88.2588 66.6755 87.8939 66.9043 87.4978 67.1532C86.5485 67.7492 85.4182 68.4589 84.6404 68.441C84.2237 68.4315 83.9427 68.3387 83.8991 67.8138C83.8543 67.2721 84.5235 66.9881 85.0046 66.7839C85.1197 66.7348 85.224 66.6905 85.3053 66.6484C86.7474 65.8992 88.1983 65.1691 89.6536 64.4482C92.5439 63.0163 95.4611 61.6415 98.3885 60.2941C98.4054 60.2865 98.4223 60.2788 98.4392 60.2709C96.8155 59.7004 95.1874 59.143 93.5555 58.5978C93.3925 58.5433 93.0587 58.4473 92.6196 58.3208C90.5452 57.7242 86.1263 56.453 86.323 55.7105C86.5485 54.8612 90.6913 56.4135 92.5255 57.1009C92.8694 57.2296 93.132 57.3281 93.2726 57.3746C95.4654 58.1003 97.6522 58.8467 99.8275 59.6271C100.5 59.3132 101.174 58.9964 101.85 58.679Z" fill="#89C5CC"/>
<path id="Fill 117" fill-rule="evenodd" clip-rule="evenodd" d="M82.3051 77.3344C83.6401 77.5775 84.582 78.908 84.4357 80.301C84.2374 82.1835 82.4312 83.0462 80.7624 82.8008C78.869 82.5219 78.4707 80.8593 79.3881 79.2602C79.5912 78.9061 79.8247 78.4823 80.1941 78.2958C80.4479 78.1677 80.7713 78.2809 80.9756 78.1776C81.6923 77.8156 81.2613 77.2381 82.3051 77.3344ZM81.6969 76.1049C80.0677 76.3209 77.0575 78.2793 77.2097 80.2385C77.3419 80.4658 77.5407 80.5585 77.8061 80.5174C77.7423 80.9419 77.7632 81.3616 77.8687 81.7772C78.0233 82.3164 78.3323 82.7584 78.7459 83.1093C79.598 83.8327 80.7627 84.0102 81.8237 83.8834C83.8048 83.6469 85.3659 82.2405 85.4773 80.1002C85.5859 78.0113 83.8303 75.8251 81.6969 76.1049Z" fill="#89C5CC"/>
<path id="Fill 119" fill-rule="evenodd" clip-rule="evenodd" d="M89.5884 78.6543C88.8572 79.0565 87.7008 79.6747 87.2721 80.4389C86.8193 81.2462 87.2881 82.1293 88.2423 81.7475C88.9999 81.4444 89.4816 80.4813 90.2897 80.1725C91.0028 79.9001 91.29 80.039 92.0439 80.3102C92.8204 80.5897 93.4991 80.8599 94.3386 80.7911C95.3938 80.7051 96.3075 80.0696 97.3402 79.9252C98.2098 79.8035 98.9268 80.1547 99.7595 80.2946C100.726 80.4568 101.357 80.0769 102.261 79.879C102.876 79.7445 103.96 80.292 104.409 80.0871C105.417 79.6266 104.35 79.0638 103.792 78.8777C102.851 78.5644 102.273 78.8407 101.378 79.1008C100.407 79.3828 99.9878 79.1706 99.0594 78.9115C97.1813 78.3876 95.7303 79.655 93.9502 79.4246C92.3022 79.211 91.3158 77.704 89.5884 78.6543Z" fill="#89C5CC"/>
<path id="Fill 121" fill-rule="evenodd" clip-rule="evenodd" d="M120.298 77.7178C122.106 79.4782 120.075 81.9828 118.082 80.5758C117.38 80.0808 117.369 79.2854 117.915 78.5738C118.414 77.923 119.511 77.6694 120.298 77.7178ZM119.628 76.2952C117.939 76.6365 116.346 77.4415 116.193 79.4661C116.044 81.4413 117.995 82.3588 119.633 82.2294C123.313 81.9382 123.047 75.6087 119.628 76.2952Z" fill="#89C5CC"/>
</g>
<path id="Fill 79" opacity="0.5" fill-rule="evenodd" clip-rule="evenodd" d="M159.634 10.6883C158.283 10.7155 154.947 11.2258 154.451 12.8858C154.075 14.1455 155.193 13.8689 155.792 13.4107C156.603 12.7905 157.314 12.4195 158.319 12.2309C162.146 11.5119 165.823 14.0904 169.614 14.4164C171.05 14.5401 172.782 14.6204 174.153 14.1376C175.129 13.7934 175.257 13.0435 174.143 12.9294C173.196 12.8322 172.149 13.1382 171.178 13.1296C167.162 13.0939 163.592 10.6099 159.634 10.6883Z" fill="#C1DEE2"/>
<g id="Cards" opacity="0.5">
<path id="Fill 173" fill-rule="evenodd" clip-rule="evenodd" d="M17.6881 89.5175C15.1034 89.5474 12.5199 89.6466 9.94027 89.8161C7.48712 89.9777 4.8254 89.855 2.4122 90.3489C1.72698 90.4892 0.801321 91.1377 1.71246 91.8512C2.3529 92.3528 4.69595 91.776 5.46071 91.7272C8.27704 91.5472 11.0948 91.3321 13.9151 91.2285C16.5851 91.1303 19.2548 91.0959 21.9263 91.0682C22.3341 91.0641 23.0109 90.9283 23.4171 91.0513C24.0007 91.2279 23.8623 91.276 23.9059 92.0453C23.9851 93.4392 23.9633 94.8383 23.9366 96.2335C23.9108 97.5837 23.8626 98.9337 23.8676 100.285C23.8706 101.248 23.5742 103.163 24.0397 104C24.7098 105.205 25.4051 103.897 25.4551 103.096C25.5511 101.565 25.5081 100.015 25.5085 98.4818C25.5088 97.0429 25.5189 95.6037 25.4701 94.1655C25.4345 93.1266 25.5775 91.313 25.0387 90.3684C24.4898 89.4063 23.1683 89.6137 22.2043 89.5678C20.7002 89.4961 19.1934 89.5012 17.6881 89.5175Z" fill="#89C5CC"/>
<path id="Fill 171" fill-rule="evenodd" clip-rule="evenodd" d="M1.24263 91.2537C1.24549 93.9577 0.94434 96.6433 0.859964 99.3442C0.821273 100.586 0.742758 101.949 1.04519 103.168C1.35048 104.399 2.32007 104.666 2.43173 103.291C2.65792 100.509 2.60244 97.6242 2.77856 94.8198C2.84072 93.8293 3.2453 92.0147 2.8676 91.0877C2.535 90.2709 1.24122 90.1141 1.24263 91.2537Z" fill="#89C5CC"/>
<path id="Fill 175" fill-rule="evenodd" clip-rule="evenodd" d="M25.4806 103.172C20.9918 103.789 16.2991 103.564 11.7783 103.661C9.60933 103.708 7.44082 103.711 5.27158 103.734C4.51453 103.742 2.59197 103.443 1.93703 103.885C0.89444 104.589 2.02564 105.132 2.71587 105.148C6.9967 105.245 11.3252 105.04 15.6052 104.894C17.5282 104.829 19.4574 104.797 21.3754 104.627C22.556 104.523 23.8462 104.421 24.9928 104.092C25.237 104.022 25.7691 104.036 25.8237 103.69C25.8574 103.476 25.7964 103.127 25.4806 103.172Z" fill="#89C5CC"/>
<path id="Fill 177" fill-rule="evenodd" clip-rule="evenodd" d="M6.81483 107.102C5.56726 107.11 1.80779 106.508 1.2911 107.771C0.602308 109.456 3.28934 109.063 4.012 109.044C5.65332 109 7.29351 108.995 8.93526 108.996C10.5461 108.997 12.1569 108.986 13.7675 108.946C14.2341 108.935 15.3202 109.136 15.5886 108.552C15.7926 108.109 15.6314 107.759 15.2552 107.524C14.3499 106.959 11.998 107.287 10.938 107.236C9.56572 107.17 8.18885 107.102 6.81483 107.102Z" fill="#89C5CC"/>
<path id="Fill 179" fill-rule="evenodd" clip-rule="evenodd" d="M21.9922 107.414C21.2792 107.458 19.8371 107.153 19.1983 107.492C18.4723 107.877 18.7282 108.48 19.3548 108.745C19.7889 108.929 21.5694 108.832 21.9922 108.62C22.4328 108.398 22.9311 107.354 21.9922 107.414Z" fill="#89C5CC"/>
<path id="Fill 181" fill-rule="evenodd" clip-rule="evenodd" d="M29.8091 91.5193C29.0475 91.7363 29.2786 96.2266 29.2589 96.9382C29.2052 98.8886 28.9941 101.342 29.6179 103.22C30.0159 104.417 30.7802 104.255 30.6498 102.994C30.5356 101.888 30.3392 100.794 30.2543 99.6805C30.0625 97.1607 29.8011 94.4729 29.9824 91.9508C30.0597 92.0974 30.782 93.4566 30.952 93.3549C30.9007 93.3868 30.1189 91.4345 29.8091 91.5193Z" fill="#89C5CC"/>
<path id="Fill 183" fill-rule="evenodd" clip-rule="evenodd" d="M38.3745 89.8652C36.8333 89.8891 35.2924 89.9175 33.7519 89.9618C32.5267 89.9971 30.602 89.7881 29.4787 90.3235C28.141 90.9605 28.7755 92.3803 30.0319 92.4102C31.1436 92.437 32.3288 92.1766 33.4503 92.1368C36.4795 92.0291 39.5143 92.0061 42.5448 91.979C45.286 91.9545 48.1434 92.2582 50.8603 91.8305C51.2632 95.5474 50.1734 99.2798 50.544 103.039C50.6014 103.623 50.5756 104.447 51.2911 104.58C52.1941 104.748 52.2312 103.819 52.2653 103.154C52.3631 101.255 52.3101 99.3544 52.4441 97.4528C52.5681 95.6905 52.8123 93.8896 52.6058 92.1244C52.3521 89.9525 51.35 90.1265 49.5787 90.0363C45.8376 89.8458 42.1199 89.8082 38.3745 89.8652Z" fill="#89C5CC"/>
<path id="Fill 185" fill-rule="evenodd" clip-rule="evenodd" d="M33.2101 103.063C32.4246 103.084 31.1206 102.832 30.6174 103.614C30.094 104.428 30.715 105.138 31.4762 105.305C32.3774 105.502 33.5522 105.231 34.4874 105.229C35.4613 105.225 36.4354 105.237 37.4093 105.241C41.5845 105.258 45.7776 105.323 49.9501 105.144C50.5327 105.119 52.1865 105.322 52.5897 104.741C52.9477 104.227 52.6974 103.765 52.2258 103.503C51.4526 103.072 49.8645 103.236 49.0044 103.202C47.9422 103.16 46.8785 103.146 45.8159 103.129C41.621 103.062 37.4044 102.955 33.2101 103.063Z" fill="#89C5CC"/>
<path id="Fill 187" fill-rule="evenodd" clip-rule="evenodd" d="M36.7418 106.825C35.1795 106.852 33.5122 106.781 31.9652 107.027C30.6051 107.244 30.4375 108.61 31.9017 108.769C33.2474 108.916 34.8788 108.642 36.231 108.552C36.7111 108.519 37.2696 108.565 37.4997 108.014C37.7399 107.438 37.2806 106.885 36.7418 106.825Z" fill="#89C5CC"/>
<path id="Fill 189" fill-rule="evenodd" clip-rule="evenodd" d="M48.5543 106.968C47.7203 106.99 45.2844 106.617 44.8714 107.607C44.1836 109.254 47.4813 108.628 48.114 108.604C48.9114 108.573 52.0189 109.057 52.0195 107.739C52.0201 106.446 49.3179 106.949 48.5543 106.968Z" fill="#89C5CC"/>
<path id="Fill 191" fill-rule="evenodd" clip-rule="evenodd" d="M1.10798 115.153C1.10998 118.15 0.930456 121.174 1.19362 124.163C1.30245 125.399 1.28379 127.768 1.97317 128.815C2.46252 129.559 3.14121 129.507 3.40851 128.614C3.58718 128.017 3.3014 126.823 3.26952 126.184C3.23881 125.571 3.20294 124.958 3.17564 124.345C3.1055 122.765 3.11105 121.188 3.13198 119.607C3.14989 118.251 3.46414 116.457 3.16781 115.153C2.89155 113.938 1.10798 113.654 1.10798 115.153Z" fill="#69A1AC"/>
<path id="Fill 193" fill-rule="evenodd" clip-rule="evenodd" d="M30.1018 112.517C25.0966 112.648 20.08 112.531 15.0793 112.788C12.6131 112.915 10.1565 113.194 7.7026 113.472C6.497 113.608 5.2921 113.749 4.08862 113.903C3.72546 113.95 0.707673 114.071 1.84273 115.263C2.33835 115.784 3.91551 115.24 4.53959 115.163C5.74789 115.015 6.95861 114.886 8.1686 114.753C10.4711 114.5 12.7765 114.26 15.0888 114.128C20.5347 113.814 26.0032 113.908 31.4546 113.699C32.9291 113.643 34.3991 113.602 35.8743 113.663C36.2619 113.678 39.1083 113.829 37.8724 112.736C37.2879 112.22 35.0846 112.487 34.3543 112.471C32.9368 112.441 31.5187 112.48 30.1018 112.517Z" fill="#69A1AC"/>
<path id="Wireframy Stuff" fill-rule="evenodd" clip-rule="evenodd" d="M36.9247 117.565C36.9001 116.181 36.8753 114.797 36.8145 113.413C36.7507 111.957 38.6613 111.736 39.2277 112.915C39.6358 113.764 39.564 115.208 39.5023 116.447C39.4777 116.945 39.4544 117.411 39.4652 117.79C39.4894 118.659 39.5511 119.559 39.6134 120.47C39.7705 122.762 39.9328 125.13 39.5201 127.295C39.3194 128.346 38.4655 128.899 37.897 128.326C37.8961 128.327 37.8955 128.328 37.8945 128.329C37.6807 128.657 37.0152 128.656 36.5249 128.655C36.3899 128.655 36.2681 128.655 36.173 128.662C34.83 128.757 33.5119 128.917 32.1806 129.124C29.5284 129.537 26.8992 129.791 24.2185 129.859C22.3993 129.906 20.5777 129.922 18.7558 129.938C15.2666 129.968 11.7758 129.998 8.29781 130.246C7.12522 130.329 5.9704 130.473 4.81699 130.702C4.71884 130.721 4.6098 130.747 4.49375 130.774C3.63615 130.972 2.39462 131.258 2.30979 130.014C2.20896 128.536 5.29195 128.342 6.87848 128.243C7.12068 128.228 7.32803 128.215 7.48384 128.2C12.3011 127.734 17.194 127.806 22.0318 127.878C22.2662 127.881 22.5006 127.884 22.7347 127.888C23.1121 127.893 23.4895 127.9 23.8669 127.906C25.9382 127.942 28.0072 127.977 30.0776 127.846C31.0199 127.786 31.9747 127.755 32.9311 127.724C34.4569 127.675 35.987 127.626 37.4794 127.458C37.2542 126.551 37.2149 125.482 37.1778 124.474C37.1634 124.081 37.1493 123.698 37.1247 123.337C36.9937 121.416 36.959 119.491 36.9247 117.565Z" fill="#69A1AC"/>
<path id="Fill 199" fill-rule="evenodd" clip-rule="evenodd" d="M40.9759 114.48C40.2996 114.576 39.7357 115.177 40.0376 115.939C40.4177 116.899 41.5502 116.524 42.2983 116.463C44.6761 116.27 47.159 116.656 49.5083 116.365C50.1499 116.285 51.0805 115.922 50.5046 115.027C50.0716 114.354 48.4939 114.472 47.8232 114.407C45.5297 114.187 43.2663 114.246 40.9759 114.48Z" fill="#C1DEE2"/>
<path id="Fill 201" fill-rule="evenodd" clip-rule="evenodd" d="M44.989 118.668C44.067 118.733 41.9202 118.682 41.5314 119.772C40.8343 121.727 43.5647 121.038 44.3962 120.927C45.3618 120.798 47.6384 121.144 48.1527 120.171C49.0722 118.432 45.7978 118.61 44.989 118.668Z" fill="#C1DEE2"/>
<path id="Fill 203" fill-rule="evenodd" clip-rule="evenodd" d="M42.6174 122.959C42.1799 123.414 42.1793 124.225 42.6174 124.68C43.1538 125.237 44.3228 125.121 45.0275 125.162C46.0106 125.219 48.8343 125.759 49.3224 124.556C49.9812 122.934 47.4241 122.968 46.5831 122.876C45.6111 122.77 43.4232 122.122 42.6174 122.959Z" fill="#C1DEE2"/>
<path id="Fill 205" fill-rule="evenodd" clip-rule="evenodd" d="M8.15479 95.1893C8.15479 96.9335 10.7775 96.9335 10.7775 95.1893C10.7775 93.4544 8.15479 93.4279 8.15479 95.1893Z" fill="#89C5CC"/>
<path id="Fill 207" fill-rule="evenodd" clip-rule="evenodd" d="M13.1294 95.2089C13.1294 97.2029 16.1167 97.1987 16.1167 95.2089C16.1167 93.2218 13.1294 93.2014 13.1294 95.2089Z" fill="#89C5CC"/>
<path id="Fill 209" fill-rule="evenodd" clip-rule="evenodd" d="M10.1198 97.8601C8.66769 98.2766 10.0054 99.5549 10.6797 99.8468C11.7513 100.311 13.2138 100.653 14.2857 99.957C14.7122 99.6801 15.0584 99.3124 14.7459 98.775C14.4129 98.2027 13.957 98.4573 13.45 98.5099C12.8077 98.5771 12.2886 98.5666 11.6684 98.3528C11.2055 98.1931 10.6247 97.7157 10.1198 97.8601Z" fill="#89C5CC"/>
<path id="Fill 211" fill-rule="evenodd" clip-rule="evenodd" d="M36.46 95.2996C36.46 96.4794 38.2236 96.4794 38.2236 95.2996C38.2236 94.1199 36.46 94.1199 36.46 95.2996Z" fill="#89C5CC"/>
<path id="Fill 213" fill-rule="evenodd" clip-rule="evenodd" d="M40.3604 95.477C40.3604 96.7877 42.3197 96.788 42.3197 95.477C42.3197 94.1662 40.3604 94.1662 40.3604 95.477Z" fill="#89C5CC"/>
<path id="Fill 215" fill-rule="evenodd" clip-rule="evenodd" d="M40.2152 98.3217C39.1861 98.4597 36.2093 98.7729 36.0427 100.091C35.7859 102.124 39.0474 100.478 39.7918 100.319C40.7401 100.115 41.5867 100.168 42.5332 100.208C43.053 100.229 43.7443 100.317 43.6896 99.4948C43.6004 98.1445 41.1148 98.2022 40.2152 98.3217Z" fill="#89C5CC"/>
<path id="Fill 217" fill-rule="evenodd" clip-rule="evenodd" d="M14.3386 117.068C13.5926 117.275 12.6167 118.615 13.1299 119.435C13.9715 120.779 14.3427 118.715 14.6949 118.516C15.3357 118.155 15.856 119.476 16.5257 118.783C17.5825 117.689 15.0039 116.884 14.3386 117.068Z" fill="#69A1AC"/>
<path id="eye" fill-rule="evenodd" clip-rule="evenodd" d="M22.886 116.075C22.0014 116.083 20.1338 117.384 20.0016 118.345C19.923 118.915 20.2872 119.464 20.8797 119.471C21.6863 119.482 21.9425 118.392 22.6418 118.165C23.396 117.919 23.284 118.485 23.9354 118.778C24.4122 118.993 25.0083 118.903 25.1737 118.294C25.4863 117.146 23.7951 116.057 22.886 116.075Z" fill="#69A1AC"/>
<path id="Fill 221" fill-rule="evenodd" clip-rule="evenodd" d="M16.1143 121.575C14.6993 122.436 17.0276 124.282 17.8347 124.513C19.0532 124.861 21.5056 124.211 21.7943 122.665C21.9094 122.05 21.5388 121.492 20.8849 121.602C20.3468 121.693 20.0016 122.395 19.503 122.646C18.8298 122.985 18.2315 122.962 17.6597 122.451C17.1939 122.036 16.9444 121.072 16.1143 121.575Z" fill="#69A1AC"/>
<path id="Fill 223" fill-rule="evenodd" clip-rule="evenodd" d="M17.1399 134.3C15.8756 134.58 14.5905 134.392 13.3202 134.656C12.0248 134.924 11.2507 135.433 10.0472 134.92C9.99059 134.896 9.93411 134.871 9.87765 134.846C8.94617 134.429 7.96989 134.306 6.99486 134.97C6.41788 135.363 4.66632 136.723 4.87741 137.552C5.33492 139.35 7.30583 136.53 7.8084 136.256C8.76677 135.731 9.42386 136.401 10.4105 136.59C11.5924 136.816 12.5433 136.168 13.6566 135.909C14.9587 135.607 16.4234 135.502 17.7481 135.34C18.2714 135.276 20.2537 135.706 20.4326 135.03C20.7401 133.868 17.6367 134.191 17.1399 134.3Z" fill="#C1DEE2"/>
<path id="Fill 225" fill-rule="evenodd" clip-rule="evenodd" d="M26.2607 137.922C26.2773 137.935 26.3435 137.987 26.2607 137.922V137.922ZM29.8014 134.23C30.8836 134.116 34.3464 133.313 35.0573 134.475C35.5206 135.231 34.7855 138.023 34.0847 138.385C33.5241 138.673 32.2192 138.354 31.6043 138.332C30.4602 138.29 29.3139 138.271 28.171 138.197C27.7877 138.172 26.5546 138.246 26.2542 137.893C25.8996 137.477 25.9152 135.259 25.8317 134.709C26.8268 135.044 28.761 134.34 29.8014 134.23ZM32.1124 133.091C30.7265 133.154 29.3406 133.262 27.9648 133.455C27.198 133.562 26.4209 133.849 25.7127 133.984C25.4844 134.028 25.1138 133.907 24.834 134.047C24.0157 134.458 24.7321 137.233 24.9294 137.975C25.2325 139.114 25.995 139.299 27.0636 139.406C28.471 139.547 29.9073 139.503 31.3193 139.485C32.68 139.467 34.5152 139.781 35.2788 138.363C35.7725 137.445 36.3018 135.31 35.8799 134.288C35.3249 132.943 33.2523 133.041 32.1124 133.091Z" fill="#C1DEE2"/>
<path id="quare" fill-rule="evenodd" clip-rule="evenodd" d="M47.6347 138.685C47.5604 138.784 47.5604 138.784 47.6347 138.685V138.685ZM47.9384 138.305C47.809 138.458 47.9154 138.341 47.9384 138.305V138.305ZM44.6327 138.2C45.2439 138.081 45.8551 137.963 46.4666 137.847C45.8876 138.689 45.2777 138.341 44.2879 138.268C44.4029 138.245 44.518 138.223 44.6327 138.2ZM41.7179 137.902C41.8725 137.849 42.0275 137.795 42.1824 137.741C42.1775 137.863 42.203 137.978 42.2582 138.085C41.9931 138.055 41.7283 138.023 41.4635 137.989C41.5482 137.96 41.6332 137.931 41.7179 137.902ZM40.367 136.866C40.3584 136.645 40.6781 136.797 40.8616 136.782C40.5081 137.105 40.343 137.133 40.367 136.866ZM45.1979 134.36C45.2445 134.298 45.3062 134.301 45.3829 134.369C45.2991 134.398 44.977 134.54 45.1979 134.36ZM48.3309 133.977C48.3392 133.977 48.5131 134.221 48.3309 133.977V133.977ZM48.2431 133.897C48.2885 133.933 48.2885 133.933 48.2431 133.897V133.897ZM47.8519 133.85C48.4441 134.743 48.4926 133.962 47.8519 133.85V133.85ZM40.3262 133.797C40.1961 133.909 40.2406 133.8 40.3262 133.797V133.797ZM42.7758 132.134C41.6884 132.2 39.692 132.134 38.7838 132.736C37.5985 133.521 38.2223 136.225 38.3284 137.411C38.4849 139.163 39.279 139.662 40.8677 139.846C42.7639 140.066 44.7119 140.106 46.6179 140.054C48.3342 140.008 49.3118 139.394 49.6263 137.517C49.7226 136.943 49.9668 136.055 49.9592 135.504C49.954 135.123 49.7708 134.949 49.7018 134.624C49.3075 132.777 48.6481 132.558 46.8253 132.477C45.4835 132.418 44.0924 132.063 42.7758 132.134Z" fill="#89C5CC"/>
</g>
<g id="Profile" opacity="0.5">
<path id="face_3" fill-rule="evenodd" clip-rule="evenodd" d="M100.384 89.6931C103.149 89.7543 106.286 91.3439 105.849 94.7111C105.529 97.1778 103.473 99.1801 101.091 99.3528C98.5314 99.5383 95.8253 97.4981 95.4776 94.7911C95.0864 91.7467 97.6803 89.6322 100.384 89.6931ZM99.0282 88.3224C97.9071 88.4961 96.8359 89.1077 95.8489 89.6552C95.4721 89.8646 93.5621 91.1396 95.0603 91.4564C91.4506 97.5028 99.9456 103.119 104.722 99.1896C106.867 97.4248 107.996 94.0789 106.609 91.4599C105.176 88.7511 101.775 87.8938 99.0282 88.3224Z" fill="#89C5CC"/>
<path id="Fill 231" fill-rule="evenodd" clip-rule="evenodd" d="M98.3674 93.4694C98.3674 94.5988 100.056 94.5988 100.056 93.4694C100.056 92.34 98.3674 92.34 98.3674 93.4694Z" fill="#89C5CC"/>
<path id="Fill 233" fill-rule="evenodd" clip-rule="evenodd" d="M101.496 93.65C101.496 94.8744 103.326 94.8744 103.326 93.65C103.326 92.4259 101.496 92.4259 101.496 93.65Z" fill="#89C5CC"/>
<path id="Fill 235" fill-rule="evenodd" clip-rule="evenodd" d="M99.3849 96.0714C99.1386 97.0004 101.946 97.4768 102.04 96.4019C102.084 95.8882 99.5561 95.4235 99.3849 96.0714Z" fill="#89C5CC"/>
<path id="Fill 237" fill-rule="evenodd" clip-rule="evenodd" d="M107.615 95.4973C110.846 95.0948 114.177 95.2809 117.423 95.3771C118.235 95.4017 119.048 95.4253 119.86 95.4393C120.377 95.4485 121.492 95.706 121.943 95.4546C123.789 94.4265 120.168 93.929 119.655 93.8819C116.426 93.6059 111.443 93.5074 108.204 93.6377C107.246 93.6763 107.039 95.569 107.615 95.4973Z" fill="#89C5CC"/>
<path id="Hola :)" fill-rule="evenodd" clip-rule="evenodd" d="M122.153 112.178C122.18 108.663 122.302 105.123 122.562 101.617C122.668 100.189 122.795 98.762 122.9 97.333C122.95 96.6603 123.18 95.7176 122.799 95.1271C122.407 94.5187 121.546 94.3922 121.027 94.9314C120.406 95.7664 120.587 97.1676 120.509 98.1778C120.391 99.7308 120.247 101.283 120.176 102.839C120.038 105.851 120.006 108.916 120.239 111.925C120.349 113.344 120.588 114.729 120.905 116.113C121.05 116.744 122.199 119.551 121.958 119.938C121.583 120.538 118.814 120.312 118.213 120.328C116.672 120.371 115.13 120.399 113.588 120.43C112.268 120.456 110.948 120.475 109.628 120.487C109.104 120.492 106.024 120.395 106.707 121.202C99.0676 121.755 91.2819 120.832 83.6887 120.515C83.3052 120.499 82.6777 120.386 82.0984 120.353C82.0291 120.063 81.972 119.803 81.9579 119.623C81.8582 118.355 81.8321 117.083 81.7238 115.816C81.5259 113.497 81.142 111.203 80.9138 108.888C80.6858 106.576 80.7088 104.257 80.576 101.939C80.5532 101.542 80.4996 98.2888 79.7092 97.4981C80.0838 97.6456 80.6883 97.6651 81.0362 97.6358C83.8528 97.3999 86.6489 96.8913 89.4416 96.455C90.2406 96.3304 92.0536 96.4187 92.7163 96.0041C93.2898 95.6449 93.5168 94.3858 92.5191 94.4878C89.7343 94.7976 86.9649 95.2784 84.2023 95.7517C83.4632 95.8782 82.7262 96.0137 81.9892 96.152C81.497 96.2444 80.198 96.2374 79.8163 96.5455C79.3527 96.9197 79.3036 97.1743 79.4607 97.3435C79.2422 97.2811 78.9805 97.3792 78.666 97.7059C78.0714 98.5096 78.6304 100.489 78.7013 101.431C78.7863 102.562 78.8283 103.694 78.8777 104.826C78.9734 107.018 79.1943 109.179 79.5337 111.344C79.9141 113.769 80.2378 116.204 80.6192 118.629C80.7183 119.26 80.8478 119.876 81.0132 120.486C79.9856 121.031 80.6843 121.9 81.4989 122.053C81.5047 122.055 81.5108 122.055 81.5167 122.057C81.7707 122.7 82.126 123.296 82.4034 122.434C82.4246 122.368 82.4347 122.286 82.4371 122.195C84.5416 122.442 86.8551 122.289 88.9271 122.377C93.4153 122.567 97.9311 122.853 102.424 122.708C104.203 122.651 105.986 122.487 107.75 122.24C108.783 122.096 109.821 121.923 110.838 121.684C110.91 121.667 111.021 121.649 111.149 121.627C111.17 121.626 111.191 121.626 111.211 121.626C112.768 121.601 114.323 121.558 115.879 121.491C117.185 121.434 118.497 121.405 119.798 121.277C120.607 121.198 122.315 121.213 122.811 120.368C123.263 119.601 122.508 117.622 122.401 116.76C122.213 115.241 122.141 113.708 122.153 112.178Z" fill="#C1DEE2"/>
<path id="Fill 241" fill-rule="evenodd" clip-rule="evenodd" d="M106.375 102.027C105.13 102.137 103.98 102.744 102.725 102.752C101.671 102.758 100.633 102.431 99.5735 102.479C98.3306 102.535 97.6467 103.37 96.558 103.65C95.6913 103.872 95.1451 103.182 94.3827 102.878C93.4202 102.493 92.7089 102.692 91.8839 103.274C91.2776 103.702 89.8638 104.662 89.8748 105.527C89.9073 108.149 92.8519 104.528 93.4453 104.484C94.2342 104.425 95.1154 105.359 95.9545 105.412C97.064 105.483 97.7752 104.74 98.7969 104.469C99.83 104.196 100.947 104.531 101.983 104.635C103.164 104.754 104.199 104.48 105.342 104.187C106.45 103.903 107.394 103.918 108.52 104.157C109.279 104.318 111.172 105.253 111.505 104.05C111.957 102.412 107.244 101.95 106.375 102.027Z" fill="#89C5CC"/>
<path id="Fill 243" fill-rule="evenodd" clip-rule="evenodd" d="M106.753 107.026C104.204 107.283 101.639 107.509 99.0785 107.581C97.9693 107.612 93.7057 107.118 94.0837 108.582C94.408 109.837 100.21 109.047 101.392 108.951C102.697 108.846 103.999 108.699 105.297 108.528C105.757 108.468 106.868 108.53 107.193 108.13C107.503 107.747 107.35 106.964 106.753 107.026Z" fill="#89C5CC"/>
<path id="have a nice day :)" fill-rule="evenodd" clip-rule="evenodd" d="M89.1675 113.693C89.1096 113.718 89.1096 113.718 89.1675 113.693V113.693ZM89.7054 113.685C90.3408 113.664 90.2046 113.316 90.8385 113.498C91.1309 113.581 91.161 113.457 91.3877 113.748C91.8298 114.314 91.4135 115.547 90.9775 116.003C89.3633 117.693 87.426 113.76 89.7054 113.685ZM89.7054 112.027C85.2862 112.182 87.1351 119.272 90.9815 117.825C92.5699 117.227 93.5683 114.534 92.634 113.021C92.1796 112.285 91.6 112.154 90.8385 112.103C90.6618 112.091 90.4393 112.358 90.3292 112.345C90.0668 112.317 90.0914 112.012 89.7054 112.027Z" fill="#89C5CC"/>
<path id="espero" fill-rule="evenodd" clip-rule="evenodd" d="M100.273 113.936C100.195 113.91 101.669 114.356 101.507 114.181C101.852 114.553 101.389 115.432 100.999 115.586C100.057 115.958 99.5276 114.435 100.273 113.936ZM100.928 112.013C99.5438 112.217 98.4761 112.815 98.2868 114.413C98.1122 115.889 99.0719 117.383 100.585 117.411C103.885 117.474 103.985 111.57 100.928 112.013Z" fill="#89C5CC"/>
<path id="hola" fill-rule="evenodd" clip-rule="evenodd" d="M115.989 114C113.567 114.222 116.183 116.62 115.989 114V114ZM114.867 111.198C114.638 111.604 114.833 112.035 115.178 112.271C112.094 112.948 112.792 117.77 115.931 117.057C117.528 116.695 117.821 114.952 117.583 113.512C117.47 112.827 115.828 109.492 114.867 111.198Z" fill="#89C5CC"/>
</g>
<path id="Fill 251" opacity="0.5" fill-rule="evenodd" clip-rule="evenodd" d="M122.165 113.713C121.246 113.883 119.072 114.938 119.09 116.071C119.12 117.84 120.968 115.908 121.379 115.648C123.586 114.253 126.446 116.061 128.745 116.446C129.799 116.622 131.861 116.948 132.792 116.215C134.447 114.91 130.618 115.236 130.131 115.184C127.48 114.9 124.843 113.217 122.165 113.713Z" fill="#C1DEE2"/>
<g id="List" opacity="0.5">
<path id="Fill 253" fill-rule="evenodd" clip-rule="evenodd" d="M165.601 101.279C165.6 103.088 165.512 104.935 165.833 106.723C165.93 107.265 166.007 108.301 166.556 108.582C167.109 108.864 167.644 108.547 167.781 107.959C167.941 107.276 167.59 106.252 167.555 105.534C167.506 104.552 167.503 103.57 167.502 102.588C167.502 101.879 167.727 100.737 166.92 100.372C166.321 100.101 165.601 100.606 165.601 101.279Z" fill="#C1DEE2"/>
<path id="Fill 255" fill-rule="evenodd" clip-rule="evenodd" d="M193.143 98.4166C187.371 99.0186 181.516 99.1436 175.723 99.4575C173.045 99.6025 169.809 99.4173 167.286 100.494C166.818 100.694 165.14 101.807 166.502 102.26C166.927 102.401 167.358 101.926 167.706 101.767C168.287 101.502 168.959 101.42 169.578 101.317C174.842 100.439 180.348 100.592 185.666 100.181C187.029 100.076 188.393 99.968 189.752 99.829C190.724 99.7296 192.766 99.0024 193.662 99.3743C195.194 100.01 195.159 104.14 195.189 105.561C195.205 106.295 194.518 108.932 195.883 108.665C196.975 108.451 196.579 105.711 196.494 104.962C196.271 102.998 195.89 98.1276 193.143 98.4166Z" fill="#C1DEE2"/>
<path id="Fill 257" fill-rule="evenodd" clip-rule="evenodd" d="M195.272 108.57C190.258 109.04 185.129 108.578 180.094 108.764C177.456 108.86 174.82 109.015 172.18 109.105C171.039 109.145 169.896 109.146 168.754 109.155C168.208 109.159 165.723 109.503 167.26 110.627C167.941 111.125 170.111 110.724 170.892 110.715C172.066 110.7 173.238 110.65 174.411 110.602C177.127 110.491 179.841 110.338 182.559 110.262C185.158 110.189 187.759 110.173 190.359 110.1C191.652 110.064 192.963 110.023 194.245 109.827C194.534 109.782 195.474 109.747 195.675 109.412C195.865 109.095 195.731 108.524 195.272 108.57Z" fill="#89C5CC"/>
<path id="Fill 259" fill-rule="evenodd" clip-rule="evenodd" d="M170.63 104.66C170.603 104.726 170.603 104.726 170.63 104.66V104.66ZM172.802 103.974C172.881 104.009 172.881 104.009 172.802 103.974V103.974ZM172.7 103.955C173.87 105.194 172.071 106.673 170.975 105.464C169.811 104.181 171.947 103.959 172.7 103.955ZM171.459 102.081C167.429 102.826 168.855 108.405 172.62 107.599C174.272 107.245 175.217 105.516 174.649 103.855C174.426 103.206 173.942 102.493 173.268 102.289C172.931 102.187 172.634 102.348 172.313 102.31C172.008 102.274 171.838 102.01 171.459 102.081Z" fill="#C1DEE2"/>
<path id="Fill 261" fill-rule="evenodd" clip-rule="evenodd" d="M186.883 103.651C184.453 103.659 182.022 103.766 179.592 103.815C178.847 103.829 176.931 103.483 176.928 104.703C176.925 106.007 179.059 105.526 179.769 105.508C182.179 105.448 184.596 105.339 186.996 105.1C187.603 105.04 189.702 105.144 189.7 104.287C189.698 103.38 187.373 103.651 186.883 103.651Z" fill="#C1DEE2"/>
<path id="Fill 263" fill-rule="evenodd" clip-rule="evenodd" d="M192.688 112.163C186.677 112.331 180.676 112.389 174.67 112.708C172.423 112.828 170.18 112.917 167.93 112.917C167.497 112.917 166.624 112.743 166.217 113.026C165.11 113.795 166.37 114.455 167.091 114.496C172.025 114.78 177.031 114.072 181.962 113.913C184.848 113.819 187.736 113.792 190.621 113.639C191.408 113.598 192.195 113.549 192.981 113.486C193.433 113.449 194.628 113.549 194.993 113.274C196.588 112.076 193.226 112.148 192.688 112.163Z" fill="#89C5CC"/>
<path id="Fill 265" fill-rule="evenodd" clip-rule="evenodd" d="M165.11 115.215C165.053 116.834 165.047 118.425 165.251 120.034C165.331 120.668 165.368 121.387 166.083 121.547C166.732 121.693 167.061 121.184 167.196 120.618C167.524 119.237 167.235 117.25 167.231 115.816C167.23 115.106 167.229 114.312 166.385 114.152C165.742 114.03 165.134 114.513 165.11 115.215Z" fill="#89C5CC"/>
<path id="Fill 267" fill-rule="evenodd" clip-rule="evenodd" d="M199.059 119.118C189.329 119.65 179.612 120.115 169.875 120.543C169.116 120.576 163.217 120.509 165.279 122.646C165.916 123.306 167.557 122.859 168.381 122.817C169.619 122.754 170.858 122.706 172.096 122.64C177.004 122.381 181.925 122.311 186.829 122.019C189.528 121.859 192.221 121.608 194.906 121.282C196.183 121.127 197.768 121.143 198.964 120.623C199.58 120.356 200.244 119.053 199.059 119.118Z" fill="#89C5CC"/>
<path id="Fill 269" fill-rule="evenodd" clip-rule="evenodd" d="M193.465 110.907C192.725 111.673 193.105 113.182 193.161 114.129C193.238 115.43 193.331 116.733 193.487 118.028C193.589 118.869 193.535 120.178 193.967 120.905C194.473 121.755 195.587 121.661 196.044 120.839C196.449 120.112 196.244 118.583 196.234 117.777C196.219 116.663 196.152 115.547 196.089 114.436C196.036 113.507 196.238 112.017 195.746 111.222C195.246 110.414 194.158 110.191 193.465 110.907Z" fill="#89C5CC"/>
<path id="Fill 271" fill-rule="evenodd" clip-rule="evenodd" d="M171.225 116.847C171.138 116.917 171.138 116.917 171.225 116.847V116.847ZM172.953 116.622C174.566 116.959 171.958 118.914 171.134 117.572C171.006 117.363 170.938 117.105 171.145 116.923C171.334 116.756 171.452 117.051 171.63 116.972C171.937 116.835 172.626 116.609 172.953 116.622ZM172.731 115.017C171.63 115.107 170.116 115.178 169.571 116.324C168.839 117.864 170.091 119.371 171.54 119.606C172.933 119.831 175.014 119.029 175.126 117.341C175.216 115.98 173.969 114.912 172.731 115.017Z" fill="#89C5CC"/>
<path id="Fill 273" fill-rule="evenodd" clip-rule="evenodd" d="M181.922 115.831C180.783 115.85 178.542 115.5 177.549 116.077C176.567 116.648 177.005 117.664 177.901 117.908C178.494 118.068 179.462 117.809 180.079 117.783C180.89 117.749 181.702 117.741 182.514 117.729C183.88 117.71 185.245 117.727 186.61 117.727C188.005 117.727 189.423 117.766 190.815 117.66C192.577 117.525 192.53 116.155 190.807 115.984C187.88 115.693 184.859 115.783 181.922 115.831Z" fill="#89C5CC"/>
<path id="Fill 275" fill-rule="evenodd" clip-rule="evenodd" d="M179.011 131.175C179.011 131.826 179.567 131.175 179.563 131.175C179.567 131.175 179.011 130.524 179.011 131.175Z" fill="#89C5CC"/>
<path id="Fill 277" fill-rule="evenodd" clip-rule="evenodd" d="M166.433 125.935C166.468 127.827 166.492 129.721 166.57 131.612C166.595 132.21 166.429 133.377 167.127 133.682C167.904 134.021 168.145 133.176 168.235 132.603C168.518 130.787 168.24 128.715 168.213 126.878C168.204 126.261 168.332 125.402 167.658 125.095C167.108 124.844 166.421 125.31 166.433 125.935Z" fill="#89C5CC"/>
<path id="Fill 279" fill-rule="evenodd" clip-rule="evenodd" d="M196.39 125.965C196.436 126.078 196.436 126.078 196.39 125.965V125.965ZM196.455 125.946C196.493 125.962 196.643 126.028 196.455 125.946V125.946ZM181.739 124.416C178.942 124.462 176.144 124.496 173.349 124.621C172.156 124.674 170.95 124.717 169.761 124.834C168.919 124.916 166.828 124.951 166.281 125.665C165.155 127.141 167.544 126.738 168.059 126.618C168.996 126.4 169.952 126.33 170.909 126.278C172.985 126.164 175.062 126.104 177.141 126.06C182.779 125.942 188.421 125.96 194.06 125.934C194.606 125.931 195.592 125.703 196.096 125.932C196.602 126.162 196.573 126.728 196.626 127.384C196.695 128.257 196.141 129.921 196.563 130.655C197.219 131.795 198.172 130.827 198.318 129.997C198.519 128.849 198.2 127.471 197.887 126.374C197.447 124.826 196.835 124.765 195.394 124.644C193.71 124.502 192.032 124.417 190.342 124.4C187.475 124.373 184.606 124.37 181.739 124.416Z" fill="#89C5CC"/>
<path id="Fill 281" fill-rule="evenodd" clip-rule="evenodd" d="M192.8 132.238C186.734 132.97 180.496 132.538 174.398 132.564C172.915 132.571 171.431 132.583 169.949 132.658C169.167 132.697 167.312 132.473 166.776 133.1C165.646 134.422 167.681 134.614 168.424 134.559C169.927 134.448 171.433 134.398 172.939 134.386C178.245 134.343 183.581 134.6 188.882 134.328C191.103 134.214 193.275 133.82 195.455 133.379C195.938 133.281 199.244 132.628 197.358 131.846C196.244 131.383 193.97 132.096 192.8 132.238Z" fill="#89C5CC"/>
<path id="Fill 284" fill-rule="evenodd" clip-rule="evenodd" d="M175.09 129.818C175.047 129.875 175.047 129.875 175.09 129.818V129.818ZM175.049 129.808C174.99 129.949 175.034 129.849 175.049 129.808V129.808ZM174.666 129.296C174.675 129.308 174.711 129.356 174.666 129.296V129.296ZM174.651 129.292C174.798 129.473 174.896 129.675 174.947 129.898C173.69 130.252 173.205 129.196 174.651 129.292ZM174.572 129.243C174.573 129.243 174.749 129.32 174.572 129.243V129.243ZM172.508 127.669C171.694 128.721 171.023 129.947 172.037 131.149C172.944 132.224 174.768 132.362 175.919 131.645C177.104 130.906 177.001 129.35 176.175 128.334C175.642 127.68 175.211 127.698 174.438 127.592C173.912 127.519 172.954 127.094 172.508 127.669Z" fill="#89C5CC"/>
<path id="Fill 286" fill-rule="evenodd" clip-rule="evenodd" d="M180.916 129.617C180.916 131.018 186.739 130.415 187.775 130.413C188.643 130.412 193.891 130.909 193.515 129.467C193.205 128.283 188.036 128.872 186.935 128.87C185.984 128.868 180.916 128.19 180.916 129.617Z" fill="#89C5CC"/>
</g>
<g id="Checkmark!" opacity="0.5">
<path id="Fill 292" fill-rule="evenodd" clip-rule="evenodd" d="M104.885 142.742C107.801 143.182 110.835 144.607 110.81 148.133C110.788 151.098 108.394 154.253 105.32 154.076C102.554 153.917 99.9484 150.775 99.602 148.082C99.4226 146.686 99.7585 145.184 100.549 144.037C101.584 142.533 103.227 142.535 104.885 142.742ZM103.507 140.826C101.397 140.838 99.8539 141.63 98.5484 143.303C98.0802 143.903 97.5356 144.549 97.1791 145.228C96.8462 145.863 96.9045 147.477 98.0471 146.721C97.7657 149.846 99.5241 152.878 102.052 154.48C104.799 156.221 107.905 155.881 110.192 153.441C112.285 151.208 113.022 147.436 111.49 144.674C109.96 141.913 106.414 140.796 103.507 140.826Z" fill="#89C5CC"/>
<path id="Fill 294" fill-rule="evenodd" clip-rule="evenodd" d="M109.833 139.988C108.482 141.016 107.249 142.37 106.225 143.743C105.223 145.085 104.562 146.761 103.359 147.932C102.752 147.245 102.04 145.389 100.828 146.125C99.823 146.736 100.47 147.787 100.96 148.476C102.225 150.258 103.629 150.975 105.25 149.215C106.723 147.616 107.559 145.484 108.936 143.794C109.54 143.052 110.473 142.317 110.954 141.498C111.39 140.755 110.851 139.211 109.833 139.988Z" fill="#89C5CC"/>
</g>
<g id="Whiteboard Stuff" opacity="0.5">
<path id="Wireframy Stuff_2" fill-rule="evenodd" clip-rule="evenodd" d="M160.872 28.494C160.874 28.6343 160.876 28.7659 160.879 28.8873C160.942 31.5337 160.906 34.3158 160.699 36.9561C160.627 37.8679 159.989 39.0231 159.26 37.7665C158.94 37.2139 158.985 36.0794 159.018 35.2448C159.027 35.0207 159.035 34.8187 159.035 34.6549C159.034 33.7237 159.081 32.7829 159.128 31.8393C159.221 29.995 159.314 28.1409 159.051 26.3295C159.045 26.2929 159.04 26.2578 159.036 26.2237C158.921 25.4273 158.913 25.3722 158.07 25.3904C157.718 25.398 157.367 25.4079 157.015 25.4178C156.67 25.4273 156.324 25.4372 155.978 25.4445C155.634 25.4522 155.291 25.4589 154.948 25.4659C153.871 25.4872 152.794 25.5089 151.717 25.5497C151.538 25.5567 151.202 25.6004 150.78 25.6555C149.934 25.7654 148.737 25.9216 147.73 25.9206C147.73 25.9251 147.731 25.9296 147.731 25.934C147.732 25.9423 147.732 25.9503 147.732 25.9586C147.744 26.536 147.6 27.1804 147.456 27.828C147.336 28.3704 147.215 28.915 147.184 29.4236C147.11 30.6343 147.109 31.8578 147.109 33.0815C147.107 34.5714 147.107 36.0612 146.974 37.5278C146.967 37.5995 146.963 37.6751 146.959 37.7515C146.959 37.7617 146.958 37.7719 146.958 37.7821C147.003 37.7748 147.048 37.7697 147.09 37.7668C147.816 37.719 148.548 37.7149 149.279 37.7104C149.682 37.7082 150.085 37.706 150.486 37.6961C151.206 37.6789 151.935 37.6798 152.667 37.6805C154.283 37.6824 155.914 37.6843 157.495 37.4909C157.962 37.4281 158.125 38.0498 157.915 38.3723C157.728 38.6611 157.211 38.7079 156.833 38.742C156.737 38.7509 156.65 38.7586 156.58 38.7694C155.56 38.9262 154.527 38.981 153.498 39.0285C152.418 39.0782 151.336 39.1152 150.255 39.1464C149.998 39.1541 149.655 39.1901 149.274 39.2299C148.269 39.3354 147.003 39.4683 146.375 39.1732C145.699 38.8558 145.715 38.5036 145.991 38.2308C145.87 37.9545 145.851 37.5514 145.836 37.2359C145.83 37.1154 145.825 37.0077 145.815 36.9249C145.666 35.6689 145.575 34.4289 145.573 33.1621C145.569 30.6809 145.574 28.1036 146.235 25.7017C145.97 25.5812 145.81 25.4037 145.811 25.1481C145.814 23.8594 149.675 23.925 151.511 23.9563C151.839 23.9617 152.103 23.9661 152.268 23.9617C153.605 23.9254 154.942 23.9206 156.28 23.9282C156.562 23.9298 156.877 23.9104 157.203 23.8906C157.896 23.8482 158.64 23.803 159.239 23.9473C160.812 24.3266 160.849 26.9283 160.872 28.494Z" fill="#89C5CC"/>
<path id="Wireframy Stuff_3" fill-rule="evenodd" clip-rule="evenodd" d="M170.709 24.2298C172.169 24.1495 173.63 24.1313 175.092 24.1256C176.64 24.1176 178.19 24.1463 179.738 24.1957L179.774 24.197C180.459 24.2183 184.27 24.3372 182.519 25.3235C182.417 25.3812 182.302 25.429 182.177 25.4692C182.251 25.9258 182.26 26.3972 182.248 26.6244C182.203 27.4858 182.173 28.3485 182.143 29.2109C182.123 29.7953 182.103 30.3798 182.077 30.964C182.009 32.5778 181.943 34.1919 181.89 35.8067C181.883 36.0049 181.893 36.264 181.904 36.5531C181.942 37.5082 181.992 38.7883 181.492 39.2616C181.054 39.6768 180.754 39.5937 180.552 39.3113C179.298 39.6899 176.722 39.5669 175.427 39.5051C175.114 39.4901 174.877 39.4786 174.75 39.4786C174.523 39.4789 174.101 39.5082 173.568 39.5455C171.35 39.7001 167.209 39.9891 167.201 38.8533C167.2 38.744 167.234 38.6462 167.299 38.5582C167.123 38.3721 166.965 38.0987 166.863 37.7574C166.499 36.5324 166.464 35.2108 166.437 33.9405C166.399 32.1469 166.399 30.3511 166.398 28.556C166.398 27.6337 166.398 26.7117 166.393 25.7904C166.155 25.4596 166.296 25.0813 166.592 24.8175C167.222 24.2559 168.786 24.2492 169.916 24.2441C170.221 24.2429 170.494 24.2416 170.709 24.2298ZM168.333 38.0601C169.74 37.7481 172.112 37.8485 173.382 37.9024C173.715 37.9164 173.972 37.9272 174.117 37.9266C175.414 37.9215 176.712 37.9403 178.009 37.9942C178.143 37.9996 178.342 37.9945 178.577 37.9881C179.048 37.976 179.661 37.9597 180.183 38.02C180.175 37.9464 180.171 37.8794 180.168 37.8214C180.109 36.6225 180.152 35.4134 180.194 34.211C180.202 33.9555 180.211 33.7002 180.219 33.4456C180.247 32.5465 180.284 31.6479 180.321 30.7495V30.7488C180.344 30.1832 180.368 29.6175 180.389 29.0518C180.398 28.8036 180.384 28.4661 180.369 28.0869C180.337 27.315 180.299 26.3685 180.432 25.6413C179.952 25.632 179.46 25.5966 179.009 25.5641C178.574 25.5329 178.177 25.5045 177.865 25.5042C177.469 25.5042 177.074 25.503 176.678 25.5017C175.581 25.4982 174.485 25.4947 173.389 25.5173C173.285 25.5195 173.181 25.5214 173.077 25.5237C171.567 25.5539 170.045 25.5845 168.548 25.791C168.46 25.8032 168.355 25.8264 168.238 25.8548C168.402 26.5674 168.322 27.5715 168.251 28.4508C168.217 28.8778 168.185 29.2756 168.185 29.5962C168.183 31.5899 168.233 33.5756 168.284 35.5594V35.5597C168.303 36.3102 168.322 37.0601 168.338 37.8103C168.341 37.8998 168.339 37.983 168.333 38.0601Z" fill="#89C5CC"/>
<path id="Fill 135" fill-rule="evenodd" clip-rule="evenodd" d="M152.315 39.089C151.355 39.6712 151.872 42.0005 152.205 42.8058C152.751 44.1306 153.86 45.1669 155.057 45.8543C157.475 47.2438 160.961 46.8748 162.79 49.284C162.809 49.3089 163.441 49.959 163.585 49.117C163.704 48.4261 162.523 47.371 162.066 47.0249C160.765 46.0398 159.097 45.7224 157.593 45.2303C155.989 44.7058 154.228 43.7386 153.555 42.0205C153.317 41.4122 153.771 38.2011 152.315 39.089Z" fill="#C1DEE2"/>
<path id="Fill 137" fill-rule="evenodd" clip-rule="evenodd" d="M174.251 40.2086C173.372 40.4603 173.953 41.7172 173.952 42.3463C173.95 43.1315 173.708 43.9531 173.243 44.5797C172.061 46.1683 169.748 46.4064 168.014 46.8621C166.755 47.1929 163.742 47.9026 163.624 49.6716C163.493 51.6468 166.152 49.243 166.377 49.1445C168.863 48.1974 172.079 48.0145 173.998 45.9296C174.79 45.0688 175.258 43.9203 175.333 42.7348C175.374 42.0671 175.382 39.8876 174.251 40.2086Z" fill="#C1DEE2"/>
<path id="Fill 139" fill-rule="evenodd" clip-rule="evenodd" d="M156.081 57.7297C156.061 54.075 159.428 51.8639 162.473 51.0325C166.133 50.0308 169.543 52.6944 169.974 56.5263C170.429 60.5701 167.495 63.8255 163.626 64.0039C160.222 64.1607 156.103 61.6294 156.081 57.7297ZM164.257 52.7897C164.455 53.0692 164.634 53.5154 164.235 53.7582C163.851 53.9905 163.66 53.7113 163.467 53.4303C163.345 53.2528 163.223 53.0746 163.051 53.0243C162.606 52.8942 161.891 53.3802 161.52 53.6635C161.37 53.7786 161.156 54.0262 160.906 54.3159C160.109 55.2372 158.946 56.5827 158.303 55.4249C155.739 60.0232 162.131 63.4647 165.766 61.7244C169.757 59.8132 168.981 52.826 164.257 52.7897Z" fill="#89C5CC"/>
<path id="Fill 141" fill-rule="evenodd" clip-rule="evenodd" d="M160.907 56.5063C160.907 57.3451 162.183 57.3451 162.183 56.5063C162.183 55.6768 160.907 55.6414 160.907 56.5063Z" fill="#89C5CC"/>
<path id="Fill 143" fill-rule="evenodd" clip-rule="evenodd" d="M163.151 56.3489C163.151 57.3763 164.715 57.3763 164.715 56.3489C164.715 55.3329 163.151 55.2896 163.151 56.3489Z" fill="#89C5CC"/>
<path id="Fill 145" fill-rule="evenodd" clip-rule="evenodd" d="M161.545 58.7431C160.267 59.5242 163.923 61.0758 164.067 59.4901C164.129 58.8058 163.491 58.9904 163.066 58.9403C162.659 58.8919 161.931 58.5098 161.545 58.7431Z" fill="#89C5CC"/>
<path id="Fill 147" fill-rule="evenodd" clip-rule="evenodd" d="M160.991 64.2834C161.047 66.2781 161.02 68.2718 161.384 70.2384C161.454 70.6119 161.502 71.9669 161.786 72.2445C162.486 72.9272 162.497 71.6189 162.524 71.1173C162.621 69.3215 162.44 67.4697 162.4 65.67C162.391 65.2825 162.49 64.4804 162.314 64.1053C162.034 63.5103 160.964 63.3334 160.991 64.2834Z" fill="#C1DEE2"/>
<path id="Fill 149" fill-rule="evenodd" clip-rule="evenodd" d="M159.624 62.6662C156.822 65.933 152.963 65.6924 149.075 65.9786C147.021 66.1296 144.945 66.44 143.292 67.82C142.523 68.4621 141.86 69.2661 141.415 70.1824C141.22 70.583 140.296 72.8944 141.683 72.3462C142.175 72.1515 142.66 70.6231 142.977 70.1709C143.583 69.3098 144.359 68.5988 145.289 68.1367C147.083 67.2454 149.225 67.2607 151.17 67.1475C153.204 67.0293 155.386 66.9187 157.255 66.0002C158.135 65.5681 158.959 65.0295 159.667 64.3351C159.92 64.0869 160.462 63.6652 160.503 63.2857C160.549 62.8519 160.147 62.0578 159.624 62.6662Z" fill="#C1DEE2"/>
<path id="Fill 151" fill-rule="evenodd" clip-rule="evenodd" d="M145.477 72.6929C142.845 72.7843 140.216 72.8949 137.587 73.068C137.049 73.1033 135.253 72.9902 135.71 74.1368C136.077 75.0556 138.267 74.4479 138.992 74.4033C141.731 74.2343 144.481 74.1757 147.214 73.9198C147.828 73.8624 150.604 73.8851 149.458 72.755C148.912 72.2171 146.23 72.6664 145.477 72.6929Z" fill="#89C5CC"/>
<path id="Fill 153" fill-rule="evenodd" clip-rule="evenodd" d="M134.039 74.0117C133.209 75.1437 133.59 77.8946 133.653 79.2554C133.714 80.5738 133.467 82.9846 135.124 83.1892C134.598 83.1175 135.524 83.2224 135.674 83.2306C136.011 83.2494 136.349 83.2555 136.686 83.2593C137.464 83.2682 138.243 83.2574 139.021 83.2412C140.784 83.2048 142.551 83.1513 144.311 83.0503C145.051 83.0076 149.066 83.0432 149.225 82.2446C149.428 81.2242 145.579 81.8016 144.89 81.8342C143.212 81.9141 141.531 81.931 139.851 81.9537C139.019 81.9651 138.186 81.9737 137.353 81.9569C137.009 81.9498 135.648 82.0964 135.439 81.8581C135.261 81.6554 135.4 79.7911 135.396 79.5058C135.384 78.5762 135.385 77.6447 135.417 76.7154C135.438 76.0898 135.764 74.8995 135.499 74.3119C135.24 73.7405 134.488 73.5455 134.039 74.0117Z" fill="#89C5CC"/>
<path id="Fill 155" fill-rule="evenodd" clip-rule="evenodd" d="M147.593 74.0647C147.641 76.1355 147.656 78.2477 148.127 80.273C148.284 80.9467 148.503 82.3365 149.155 82.6855C149.839 83.0516 150.43 82.529 150.474 81.8247C150.531 80.9397 150.074 79.7774 149.981 78.8692C149.871 77.8096 149.808 76.749 149.77 75.6839C149.742 74.8831 149.977 73.6823 149.241 73.166C148.581 72.702 147.571 73.1692 147.593 74.0647Z" fill="#89C5CC"/>
<path id="Fill 157" fill-rule="evenodd" clip-rule="evenodd" d="M152.831 73.559C152.013 74.4061 152.378 77.0879 152.481 78.1762C152.556 78.9732 153.396 82.8946 154.654 80.8496C155.211 79.9452 154.504 77.5535 154.509 76.4986C154.512 75.8268 154.741 74.9775 154.63 74.3322C154.484 73.4794 153.574 72.7888 152.831 73.559Z" fill="#89C5CC"/>
<path id="Wireframy Stuff_4" fill-rule="evenodd" clip-rule="evenodd" d="M158.5 72.8599C160.959 72.5963 163.421 72.3988 165.893 72.3742C166.012 72.3733 166.137 72.3717 166.266 72.3701C167.961 72.3478 170.508 72.314 171.648 73.6359C172.269 74.3558 172.551 75.469 172.796 76.4394C172.842 76.6201 172.886 76.7963 172.932 76.9639C172.97 77.107 173.021 77.2702 173.075 77.4467C173.331 78.2798 173.678 79.407 173.326 80.1046C173.133 80.4873 172.823 80.8137 172.352 80.6782C172.242 80.6463 172.156 80.6059 172.089 80.5581C172.269 80.7608 172.349 81.0498 172.232 81.3322C172.005 81.8784 171.29 81.8902 170.726 81.8991C170.59 81.9013 170.462 81.9036 170.352 81.9131C168.475 82.0757 166.589 82.184 164.705 82.2012C163.808 82.2092 162.91 82.2015 162.013 82.1942C161.09 82.1862 160.167 82.1783 159.243 82.1878C158.573 82.1945 157.89 82.2608 157.208 82.3271C156.346 82.4106 155.483 82.4941 154.645 82.4584C154.017 82.4316 153.348 82.2184 153.507 81.3765C153.636 80.689 154.259 80.6291 154.817 80.5753C154.866 80.5708 154.914 80.566 154.961 80.5609C156.739 80.3732 158.517 80.3066 160.303 80.3133C164.056 80.3267 167.806 80.3066 171.558 80.2862C171.713 80.2996 171.858 80.3608 171.977 80.4539C171.842 80.2837 171.845 80.0568 171.848 79.8155C171.849 79.7062 171.85 79.5937 171.839 79.4825C171.816 79.2585 171.795 79.0354 171.774 78.8126C171.705 78.0768 171.636 77.3464 171.501 76.6064C171.48 76.4945 171.461 76.3715 171.44 76.2415C171.317 75.4731 171.154 74.4549 170.566 74.04C169.974 73.6228 168.815 73.6429 167.911 73.6585C167.667 73.6627 167.441 73.6665 167.251 73.6614C164.839 73.5967 162.413 73.7748 160.012 74.0014C159.827 74.0189 159.643 74.0355 159.458 74.0524C158.544 74.1349 157.626 74.2181 156.726 74.3877C156.561 74.4189 156.309 74.51 156.021 74.6149C155.253 74.8931 154.223 75.2663 153.873 74.8552C152.713 73.4934 157.808 72.9341 158.5 72.8599Z" fill="#89C5CC"/>
<path id="Line" fill-rule="evenodd" clip-rule="evenodd" d="M184.661 69.7592C184.768 69.902 184.768 69.902 184.661 69.7592V69.7592ZM168.02 61.3216C166.527 62.2334 169.291 64.9088 169.995 65.3224C171.58 66.2536 173.757 66.3942 175.526 66.6558C177.765 66.9876 180.202 67.1096 182.354 67.8716C183.271 68.1963 183.854 68.7031 184.454 69.4819C184.759 69.8768 185.491 71.5776 186.158 71.1748C187.501 70.364 183.882 66.9611 183.085 66.5953C181.272 65.7635 179.129 65.5305 177.191 65.2077C175.389 64.9072 173.547 64.6838 171.789 64.1541C170.823 63.8632 170.136 63.3934 169.579 62.4944C169.232 61.9342 168.947 60.7588 168.02 61.3216Z" fill="#C1DEE2"/>
<path id="Wireframy Stuff_5" fill-rule="evenodd" clip-rule="evenodd" d="M190.915 71.7726C189.193 71.8125 187.475 71.9502 185.756 72.0875C184.792 72.1646 183.829 72.2418 182.865 72.3017C182.563 72.3205 182.261 72.3374 181.959 72.3543C181.11 72.4017 180.259 72.4492 179.414 72.5381C179.286 72.5515 179.137 72.5643 178.974 72.578C178.256 72.6392 177.278 72.7226 176.652 72.9948C176.079 72.5442 175.193 72.9272 175.18 73.7303C175.156 75.1931 175.169 76.6301 175.341 78.0839C175.381 78.4214 175.586 80.1299 176.033 81.0193C175.874 81.8594 176.563 82.0946 177.205 82.1589C179.69 82.4082 182.296 82.2147 184.867 82.0241C186.174 81.9269 187.473 81.8307 188.741 81.7934C189.163 81.781 189.591 81.7762 190.02 81.7711C191.423 81.7548 192.853 81.7383 194.211 81.4626C194.266 81.4515 194.324 81.4406 194.386 81.4291C194.923 81.3294 195.663 81.1914 195.719 80.5776C195.753 80.2092 195.553 79.872 195.218 79.8246C195.241 79.5177 195.204 79.1827 195.177 78.9367C195.17 78.8793 195.165 78.8268 195.16 78.7805C195.079 77.9271 194.874 77.0791 194.672 76.2419C194.626 76.0536 194.581 75.8658 194.537 75.6791C194.489 75.472 194.444 75.2253 194.396 74.9598C194.225 74.0219 194.01 72.8438 193.44 72.2966C192.841 71.7229 191.867 71.7481 191.087 71.7685C191.028 71.7701 190.971 71.7717 190.915 71.7726ZM193.945 79.9163C193.741 79.3612 193.681 78.6107 193.624 77.8971C193.589 77.4494 193.554 77.016 193.486 76.6549C193.434 76.384 193.392 76.0985 193.35 75.8082C193.246 75.1029 193.138 74.3703 192.883 73.7523C192.542 72.9247 192.238 72.9562 191.52 73.0311C191.386 73.0452 191.238 73.0605 191.073 73.0722C190.341 73.1239 189.609 73.1895 188.877 73.2555C188.526 73.287 188.175 73.3186 187.824 73.3485C186.322 73.4767 184.819 73.5755 183.316 73.6739C182.438 73.7316 181.559 73.789 180.681 73.8527C179.992 73.9024 179.319 74.0385 178.65 74.1739C178.119 74.2813 177.59 74.3884 177.056 74.4518C177.049 74.6415 177.033 74.8317 177.018 75.013C176.999 75.26 176.98 75.4901 176.984 75.6785C177.002 76.5141 177.072 77.3442 177.144 78.176C177.155 78.3038 177.165 78.4316 177.176 78.5597C177.189 78.713 177.221 78.9099 177.256 79.1286C177.311 79.4667 177.373 79.8561 177.387 80.2146C177.452 80.2143 177.517 80.2146 177.581 80.2146C177.663 80.215 177.743 80.2153 177.821 80.214C179.714 80.1796 181.605 80.12 183.496 80.0445C183.738 80.0349 183.979 80.025 184.221 80.0155C185.908 79.9473 187.596 79.8787 189.285 79.8587C189.956 79.8507 190.636 79.8727 191.318 79.8947C192.195 79.9227 193.075 79.9511 193.945 79.9163Z" fill="#89C5CC"/>
</g>
</g>
</svg>
